<svg width="431" height="330" viewBox="0 0 431 330" fill="none" xmlns="http://www.w3.org/2000/svg">
<path d="M0.0833033 283.475C-1.2539 256.441 13.9945 227.203 10.9319 197.101C9.87507 186.664 3.03813 174.973 2.82245 166.264C2.56364 156.064 10.5221 143.898 11.1907 130.846C13.0024 96.1627 -14.7984 35.0292 22.0178 12.4687C43.0248 -0.410564 88.9641 13.1603 113.336 15.4077C135.809 17.5038 157.463 16.4017 179.549 11.4099C187.658 9.57309 210.046 8.60152e-06 214.683 8.60152e-06C220.786 8.60152e-06 243.713 9.50823 253.052 11.4531C277.833 16.5962 303.801 18.2169 328.927 15.2348C359.23 11.6476 408.404 -7.21758 426.715 28.8488C439.548 54.132 419.253 101.5 421.453 132.445C422.272 143.833 429.907 157.296 429.735 166.178C429.605 173.158 424.947 179.597 423.545 186.015C415.543 222.816 440.368 272.194 425.658 302.621C407.067 341.064 348.209 317.466 314.39 315.478C293.297 314.225 270.435 315.392 249.773 319.433C240.046 321.335 218.5 330 211.404 330C203.058 330 172.216 317.466 157.248 315.651C115.751 310.595 82.4938 326.283 46.3462 325.159C22.3413 324.403 1.26958 308.066 0.0617803 283.475H0.0833033ZM9.8535 291.708C12.0318 302.318 23.7216 311.826 33.9447 314.722C56.6556 321.162 101.775 306.705 127.959 305.711C145.989 305.019 168.571 308.52 186.062 313.036C191.929 314.549 207.652 321.659 211.383 321.745C215.826 321.832 228.853 315.716 234.784 314.311C262.089 307.829 291.205 305.538 319.308 307.396C340.919 308.823 379.827 320.902 398.569 314.592C436.507 301.843 418.067 258.688 415.177 230.553C413.645 215.62 412.481 199.132 415.392 184.395C416.406 179.252 421.28 169.246 421.345 166.264C421.431 162.223 416.751 154.12 415.737 149.344C413.128 137.199 412.61 123.823 413.365 111.397C414.896 85.9414 432.323 48.103 415.392 27.0984C396.391 3.50078 356.189 20.5291 330.739 23.4464C305.289 26.3637 278.696 24.8943 252.793 19.7296C243.799 17.936 220.463 9.16248 214.683 9.16248C210.52 9.16248 188.866 17.7847 181.188 19.4486C155.695 25.0023 134.58 26.0612 108.612 23.2519C66.512 18.6923 7.20066 -5.89938 11.126 61.3497C12.8083 90.004 23.3765 117.34 17.2297 146.448C16.0003 152.261 10.9534 160.732 11.1907 166.07C11.5142 173.222 18.1356 186.988 19.063 197.058C21.8884 227.657 4.63414 266.317 9.83198 291.643L9.8535 291.708Z" fill="#D17620"/>
</svg>
