<svg width="433" height="331" viewBox="0 0 433 331" fill="none" xmlns="http://www.w3.org/2000/svg">
<rect width="432.693" height="331" fill="black"/>
<path d="M0.183714 171.025C-2.41603 142.134 23.1143 116.778 42.6733 99.3094C27.5623 62.9706 26.6889 10.3766 79.0292 14.5607C121.966 17.9916 144.754 46.5899 189.62 15.795C199.003 9.35146 207.209 -4.20501 219.903 1.27615C223.498 2.82427 234.547 16.569 242.001 21.0251C276.082 41.3807 299.52 25.8577 331.509 16.0041C360.919 6.94555 400.504 17.636 401.723 54.3095C402.149 66.8618 389.476 98.5563 391.08 103.975C391.568 105.627 411.939 123.368 415.534 127.678C450.062 169.121 427.355 198.954 392.624 227.97C391.364 232.133 400.606 255.962 401.459 263.744C406.739 311.066 370.891 324.476 331.022 316.443C303.46 310.878 284.084 294.518 254.309 306.255C242.062 311.066 233.897 322.384 222.848 327.426C195.876 339.727 190.432 317.112 170.731 307.238C127.51 285.564 82.1976 339.079 46.9792 306.255C22.9721 283.87 37.9613 262.719 40.9266 238.2C42.7952 222.761 37.2098 226.171 28.2122 217.552C15.5791 205.481 1.82887 189.267 0.183714 171.004V171.025ZM7.8814 172.636C9.12035 181.841 15.701 192.447 21.3676 199.539C25.7953 205.062 48.1978 223.054 48.7462 224.853C54.3722 243.263 32.1119 266.569 45.6996 291.966C66.9444 331.652 118.757 290.815 152.777 294.246C178.348 296.82 181.78 310.397 199.43 320.313C218.136 330.836 230.322 309.937 245.555 302.071C287.375 280.502 321.09 316.443 361.955 310.815C388.541 307.154 396.483 287.364 393.497 262.468C391.953 249.644 384.885 238.765 383.382 226.464C402.454 208.682 427.416 191.757 424.796 162.029C422.663 138.075 396.381 121.443 382.286 105.167C386.023 80.3555 406.618 49.8116 381.494 29.4978C354.379 7.61503 326.046 30.2928 298.505 35.6275C276.285 39.9371 257.213 39.3514 237.37 27.3221C227.987 21.6317 222.32 12.5941 213.038 7.2385C202.253 14.1423 193.459 23.9958 181.8 29.6861C162.465 39.1003 147.78 38.4518 127.307 34.3305C100.883 29.0167 55.3471 5.37657 42.5718 43.0543C35.3209 64.4141 48.4618 83.368 50.4116 104.017C30.3652 119.309 4.12395 144.602 7.90171 172.594L7.8814 172.636Z" fill="#D17620"/>
<path d="M1.87429 173.084C-2.02785 144.159 25.0773 118.022 45.7838 102.219C43.7488 80.882 30.1962 61.2741 37.6858 39.2235C50.8818 0.288965 97.9382 24.696 125.211 30.2087C146.358 34.4675 161.547 35.1161 181.498 25.4094C193.54 19.5509 202.624 9.34704 213.764 2.213C223.352 7.74728 229.205 17.0864 238.898 22.9666C259.394 35.3755 279.094 35.9808 302.045 31.549C330.493 26.0364 359.759 2.6021 387.766 25.2148C413.738 46.1846 392.445 77.7473 388.584 103.408C403.144 120.227 430.312 137.414 432.494 162.167C435.221 192.886 409.417 210.375 389.717 228.751C391.27 241.463 398.57 252.682 400.165 265.956C403.249 291.682 395.067 312.133 367.584 315.916C325.374 321.753 290.548 284.613 247.352 306.879C231.618 314.986 219.009 336.605 199.708 325.731C181.477 315.462 177.911 301.453 151.519 298.794C116.379 295.249 62.8609 337.448 40.9166 296.438C26.8815 270.193 49.8748 246.111 44.0635 227.086C43.4971 225.227 20.378 206.635 15.7835 200.928C9.9303 193.621 3.13304 182.639 1.8533 173.127L1.87429 173.084ZM9.82541 171.484C11.7345 185.666 24.6787 199.847 34.8326 209.035C39.2593 213.035 51.8258 219.758 53.2734 224.276C55.8538 246.175 31.7907 283.964 54.0286 300.913C76.2666 317.862 109.162 293.736 133.099 290.968C158.673 288.007 176.421 294.276 196.226 309.928C200.694 313.451 204.869 321.234 210.555 321.321C218.611 321.407 237.513 301.237 248.485 296.697C295.751 277.09 328.605 314.878 369.262 307.896C389.57 304.415 394.501 289.282 392.696 270.366C391.584 258.822 378.116 232.513 380.277 225.487C381.2 222.482 395.424 213.921 399.095 210.657C438.578 175.721 428.361 152.525 394.333 120.249C385.291 111.688 378.011 113.396 380.381 98.0685C383.361 78.8282 403.71 51.0055 384.661 33.2353C358.416 8.72012 309.681 45.9684 274.248 43.5904C248.905 41.9041 232.058 28.9548 213.785 12.8924C190.1 32.2624 168.135 45.2118 136.288 41.5583C105.407 38.0129 38.2732 -1.57016 44.4201 62.1605C45.4062 72.386 57.5322 98.8035 55.3294 105.462C36.3432 119.19 6.3009 145.153 9.82541 171.484Z" fill="#D17620"/>
</svg>
