<svg width="433" height="330" viewBox="0 0 433 330" fill="none" xmlns="http://www.w3.org/2000/svg">
<path d="M385.456 50.6929C387.294 52.582 394.321 52.9461 397.456 54.4028C415.833 62.9149 422.038 81.0771 419.379 101.037C418.384 108.389 410.709 118.585 411.617 124.616C412.525 130.648 425.476 139.479 429.151 147.285C434.708 159.052 434.34 176.349 427.443 187.57C422.903 194.967 411.509 199.837 410.363 207.302C409.369 213.834 419.163 228.833 419.573 238.893C419.984 248.953 413.433 264.293 406.428 271.121C400.461 276.947 387.121 280.065 384.959 282.865C382.321 286.301 380.894 298.501 376.613 304.782C356.42 334.393 303.579 306.876 274.585 311.155C261.094 313.135 254.046 329.636 235.106 329.681C229.787 329.681 222.307 326.131 217.183 326.427C213.81 326.609 210.61 329.272 207.107 329.59C178.59 332.139 180.687 322.284 160.018 314.114C138.267 305.511 131.5 313.34 111.695 317.323C84.6047 322.762 54.6818 315.98 53.1899 282.136C46.4011 277.493 38.769 277.288 32.1098 271.712C20.3914 261.857 19.6563 244.81 21.1914 230.335C21.9697 222.893 27.0289 216.019 24.4777 208.395C22.0778 201.226 15.1376 199.177 10.5108 193.851C-2.05081 179.467 -3.67239 157.254 7.37577 141.254C14.5538 130.853 26.0993 131.308 24.3696 114.989C23.8507 110.096 20.6725 104.429 19.9806 99.1028C16.8457 74.6589 30.5099 55.1766 53.2116 49.4867C53.9467 31.3244 64.1084 18.6017 80.5185 13.2304C107.782 4.33137 129.792 27.5691 159.326 16.7583C171.974 12.1381 180.903 0.416705 195.757 0.00703033C203.648 -0.220567 211.237 5.15074 215.431 5.15074C218.22 5.15074 224.966 1.46367 230.76 1.1678C237.571 0.826402 245.073 2.3968 251.17 5.5604C263.537 11.9786 261.202 17.2817 279.364 18.8066C303.276 20.8322 313.243 14.8692 333.567 12.1836C352.312 9.70275 373.067 14.4595 380.959 34.1239C382.667 38.3799 383.683 48.9176 385.413 50.7384L385.456 50.6929ZM63.6111 57.6346C50.9414 60.3658 36.9745 63.9163 31.2018 77.5721C22.7265 97.6234 38.596 110.255 32.2395 129.624C29.0613 139.296 18.4888 139.729 13.2566 149.015C8.52167 157.436 7.80819 174.437 12.9972 182.745C19.3536 192.918 30.2288 190.46 34.2286 206.688C37.1691 218.637 30.1855 224.008 29.3207 235.32C27.4613 259.764 39.5689 273.92 63.784 270.233C56.3249 300.503 76.0862 311.269 102.377 309.357C118.376 308.196 131.024 299.183 148.04 301.004C169.098 303.257 185.681 325.311 204.88 320.464C208.642 319.508 211.323 316.185 215.41 315.934C220.447 315.616 223.02 318.825 226.977 319.394C231.236 320.008 238.738 319.986 242.911 319.098C251.927 317.186 256.165 306.512 264.208 303.804C301.222 291.286 377.046 341.107 375.23 271.917C387.726 273.283 401.585 266.956 407.034 254.756C417.174 232.019 397.477 218.955 401.693 196.56C410.925 190.642 419.401 187.888 422.882 176.053C427.054 161.942 423.941 152.338 413.714 142.87C410.341 139.752 403.942 138.113 403.099 133.493C399.531 113.988 414.471 104.451 410.925 84.6049C407.531 65.646 388.915 62.6645 374.278 57.9305C376.765 45.8906 372.051 31.8707 361.652 25.2476C342.193 12.8436 323.491 27.2277 303.925 28.9574C295.471 29.7085 265.829 28.1153 258.954 24.6558C250.608 20.4225 249.051 10.5676 233.463 10.1579C224.404 9.93031 217.853 16.4168 215.41 16.5534C213.939 16.6444 207.734 11.5007 203.583 10.7041C182.395 6.60737 171.693 26.6586 151.521 29.0029C127.5 31.8023 107.112 17.0769 86.0534 20.6047C69.2109 23.4269 61.6004 41.5208 63.6111 57.6574V57.6346Z" fill="#D17620"/>
</svg>
