<svg width="432" height="331" viewBox="0 0 432 331" fill="none" xmlns="http://www.w3.org/2000/svg">
<rect width="431.386" height="330.254" fill="black"/>
<path d="M76.7734 51.6494C77.586 51.0781 83.3753 38.1221 86.4223 34.5311C104.339 13.2711 149.617 18.3718 176.065 13.5363C190.122 10.9655 202.594 3.49799 216.407 0.253893C232.739 10.435 249.457 18.0454 269.06 19.8205C296.462 22.3097 321.244 5.80352 343.528 28.4102C348.972 33.9394 352.527 46.0181 356.59 48.9969C362.338 53.2 373.653 52.2206 380.58 54.1997C384.927 65.4011 380.011 77.8469 377.553 89.089C430.408 117.327 452.591 172.762 405.89 219.526C401.543 223.892 379.848 237.644 379.178 240.399C380.295 246.519 385.942 268.657 382.895 272.921C378.061 275.023 372.861 274.492 367.498 275.961C349.48 280.919 346.819 302.608 327.46 309.463C309.199 315.931 285.635 307.321 264.652 309.79C245.963 311.993 231.602 322.766 215.229 330.254C197.678 327.989 181.732 318.604 165.218 314.38C141.228 308.259 104.786 314.462 87.0723 295.711C82.6034 290.978 78.5204 278.981 75.4937 276.696C69.7653 272.37 59.0399 275.696 52.3772 273.656C48.3551 270.881 52.4177 256.843 52.5802 252.273C53.1084 236.869 45.6128 239.297 36.3499 231.646C18.1695 216.629 1.9594 189.064 0.151509 165.417C-2.36734 132.548 27.0261 106.187 50.6911 87.518L51.6052 56.444L76.7532 51.6289L76.7734 51.6494ZM55.7898 59.831L56.4398 90.048C31.0075 107.452 1.10626 134.527 5.18924 168.07C8.80501 197.776 30.2762 225.361 56.4195 239.317L56.3179 268.269L78.7032 272.003C90.0381 308.667 116.974 302.383 147.179 306.321C171.21 309.463 191.503 320.522 214.985 325.378C230.586 317.93 245.374 307.362 263.108 305.158C290.917 301.71 325.063 316.645 345.092 290.305C348.972 285.204 350.475 278.675 354.315 273.533C359.373 271.656 374.729 272.697 377.594 269.147C382.936 262.495 371.987 239.011 374.587 234.951C404.346 222.362 430.388 187.697 426.732 154.767C424.883 138.057 408.531 118.082 395.937 107.554C388.075 100.984 379.056 97.1687 371.5 90.6193C375.969 80.3565 378.427 69.3796 377.35 58.1579L352.263 53.6488C346.981 40.3052 339.526 27.2268 325.043 22.33C309.686 17.1476 304.141 23.2686 290.429 24.554C273.894 26.1251 252.423 22.5749 236.904 16.5967C232.556 14.9237 216.489 5.08938 215.27 5.10978C209.257 5.2322 186.872 15.7807 177.304 17.7802C158.778 21.6568 139.785 20.3713 121.219 23.2482C99.9916 26.5331 87.3973 35.4084 80.2877 55.8728L55.7898 59.831Z" fill="#D17620"/>
<path d="M54.6406 56.3841L79.2973 52.3056C86.453 31.2194 99.1085 22.0743 120.494 18.6896C139.16 15.7254 158.276 17.0709 176.943 13.0554C186.552 10.9952 209.103 0.147199 215.154 3.68996e-05C216.381 -0.0209862 232.553 10.1122 236.928 11.8361C252.528 17.9958 274.158 21.6539 290.801 20.0351C304.601 18.6897 310.183 12.4037 325.639 17.7436C340.237 22.7891 347.74 36.2439 353.035 50.0141L378.285 54.6602C379.368 66.2229 376.874 77.5333 372.397 88.1079C380.002 94.8774 389.08 98.7877 396.992 105.557C409.668 116.405 426.106 136.987 427.987 154.205C431.667 188.136 405.477 223.833 375.504 236.826C372.867 241.009 383.907 265.207 378.53 272.06C375.647 275.739 360.211 274.646 355.1 276.58C351.236 281.878 349.744 288.605 345.818 293.861C325.659 321.002 291.291 305.634 263.302 309.166C245.454 311.437 230.57 322.327 214.868 330C191.254 324.996 170.809 313.602 146.623 310.364C116.221 306.307 89.1313 312.782 77.7026 275.004L55.1722 271.156L55.2744 241.324C28.9617 226.945 7.35136 198.5 3.71215 167.912C-0.397295 133.329 29.6978 105.452 55.2949 87.5193L54.6406 56.3841ZM62.1644 62.4387L63.5137 91.2194C39.5113 106.966 7.96472 134.296 11.4608 166.377C14.732 196.167 36.3628 224.338 62.9618 236.615L62.839 264.975L83.8156 268.865C87.6797 274.814 88.1909 280.596 92.5252 286.713C105.978 305.739 129.694 300 149.71 302.565C172.056 305.445 191.459 316.818 213.335 321.486C229.404 313.791 244.84 303.111 263.077 301.177C281.314 299.243 300.389 304.163 317.195 302.607C344.591 300.105 338.928 273.238 356.552 268.697C361.54 267.414 367.49 269.096 371.456 264.891C374.564 257.617 363.83 238.045 366.672 233.483C367.94 231.423 378.755 227.512 381.965 225.368C428.907 194.022 433.568 140.918 386.626 106.65C382.497 103.623 365.241 95.2348 364.628 92.7541C365.139 86.1949 373.582 67.5894 369.923 62.3546L347.413 56.9096C339.46 35.7814 332.57 23.1045 307.77 24.7443C292.743 25.7324 281.11 29.4114 264.611 27.7506C245.699 25.8375 229.18 15.7254 212.108 9.3764C184.773 24.8704 153.308 22.0744 123.397 26.3841C110.026 28.3182 100.54 30.0001 92.4843 42.1514C85.6147 52.5158 91.4007 60.1472 75.147 62.2706C70.8331 62.8382 66.4578 62.3126 62.1439 62.4387H62.1644Z" fill="#D17620"/>
</svg>
