<svg width="432" height="330" viewBox="0 0 432 330" fill="none" xmlns="http://www.w3.org/2000/svg">
<path d="M76.7734 51.3954C77.586 50.8242 83.3753 37.8681 86.4223 34.2772C104.339 13.0172 149.617 18.1179 176.065 13.2824C190.122 10.7116 202.594 3.24408 216.407 -1.2767e-05C232.739 10.1811 249.457 17.7915 269.06 19.5666C296.462 22.0558 321.244 5.54961 343.528 28.1563C348.972 33.6855 352.527 45.7641 356.59 48.743C362.338 52.946 373.653 51.9667 380.58 53.9458C384.927 65.1471 380.011 77.593 377.553 88.8351C430.408 117.073 452.591 172.508 405.89 219.272C401.543 223.639 379.848 237.39 379.178 240.145C380.295 246.266 385.942 268.403 382.895 272.667C378.061 274.769 372.861 274.238 367.498 275.707C349.48 280.665 346.819 302.354 327.46 309.209C309.199 315.677 285.635 307.067 264.652 309.536C245.963 311.739 231.602 322.512 215.229 330C197.678 327.735 181.732 318.35 165.218 314.126C141.228 308.005 104.786 314.208 87.0723 295.458C82.6034 290.724 78.5204 278.727 75.4937 276.442C69.7653 272.116 59.0399 275.442 52.3772 273.402C48.3551 270.627 52.4177 256.59 52.5802 252.019C53.1084 236.615 45.6128 239.043 36.3499 231.392C18.1695 216.375 1.9594 188.81 0.151509 165.163C-2.36734 132.294 27.0261 105.933 50.6911 87.2641L51.6052 56.1901L76.7532 51.375L76.7734 51.3954ZM55.7898 59.5771L56.4398 89.7941C31.0075 107.198 1.10626 134.273 5.18924 167.816C8.80501 197.523 30.2762 225.108 56.4195 239.063L56.3179 268.015L78.7032 271.749C90.0381 308.413 116.974 302.129 147.179 306.067C171.21 309.209 191.503 320.268 214.985 325.124C230.586 317.677 245.374 307.108 263.108 304.904C290.917 301.456 325.063 316.391 345.092 290.051C348.972 284.95 350.475 278.421 354.315 273.279C359.373 271.402 374.729 272.443 377.594 268.893C382.936 262.241 371.987 238.757 374.587 234.697C404.346 222.108 430.388 187.443 426.732 154.513C424.883 137.803 408.531 117.828 395.937 107.3C388.075 100.73 379.056 96.9148 371.5 90.3654C375.969 80.1026 378.427 69.1257 377.35 57.904L352.263 53.3949C346.981 40.0513 339.526 26.9729 325.043 22.0761C309.686 16.8937 304.141 23.0147 290.429 24.3001C273.894 25.8711 252.423 22.321 236.904 16.3428C232.556 14.6698 216.489 4.83547 215.27 4.85588C209.257 4.9783 186.872 15.5268 177.304 17.5263C158.778 21.4029 139.785 20.1174 121.219 22.9943C99.9916 26.2792 87.3973 35.1545 80.2877 55.6188L55.7898 59.5771Z" fill="#D17620"/>
<path d="M54.9161 58.7073L79.5493 54.7259C86.6983 34.1418 99.3417 25.2145 120.707 21.9104C139.355 19.0167 158.453 20.3301 177.102 16.4103C186.702 14.3991 209.231 3.80943 215.277 3.66577C216.503 3.64525 232.659 13.5371 237.03 15.22C252.615 21.2331 274.225 24.8041 290.852 23.2238C304.639 21.9104 310.215 15.7741 325.657 20.9868C340.241 25.9122 347.737 39.0467 353.027 52.489L378.253 57.0245C379.335 68.3119 376.843 79.353 372.37 89.6759C379.969 96.2841 389.037 100.101 396.942 106.71C409.606 117.299 426.028 137.391 427.907 154.199C431.584 187.322 405.419 222.17 375.475 234.853C372.84 238.937 383.87 262.558 378.498 269.248C375.618 272.84 360.197 271.773 355.09 273.661C351.23 278.832 349.739 285.4 345.817 290.53C325.677 317.025 291.342 302.023 263.379 305.471C245.548 307.687 230.678 318.318 214.991 325.809C191.4 320.924 170.974 309.801 146.811 306.641C116.438 302.68 89.374 309.001 77.9561 272.122L55.4471 268.366L55.5493 239.244C29.2616 225.207 7.67176 197.44 4.03601 167.58C-0.0695319 133.82 29.9969 106.607 55.5697 89.1012L54.9161 58.7073ZM62.4327 64.6178L63.7808 92.7132C39.8012 108.085 8.28454 134.764 11.7773 166.081C15.0454 195.162 36.6557 222.662 63.2293 234.647L63.1067 262.332L84.0634 266.129C87.9238 271.937 88.4345 277.581 92.7647 283.553C106.205 302.126 129.898 296.523 149.895 299.027C172.22 301.838 191.604 312.941 213.459 317.497C229.514 309.986 244.935 299.56 263.155 297.672C281.374 295.784 300.431 300.586 317.221 299.068C344.591 296.626 338.934 270.398 356.54 265.965C361.524 264.713 367.468 266.355 371.431 262.25C374.535 255.149 363.812 236.043 366.651 231.589C367.917 229.578 378.723 225.761 381.929 223.668C428.827 193.069 433.484 141.229 386.586 107.777C382.461 104.822 365.221 96.6331 364.609 94.2114C365.119 87.8084 373.555 69.6458 369.899 64.5357L347.41 59.2204C339.465 38.5952 332.581 26.2201 307.805 27.8209C292.792 28.7854 281.17 32.3769 264.687 30.7556C245.793 28.888 229.289 19.0167 212.234 12.8189C184.925 27.944 153.49 25.2145 123.607 29.4216C110.249 31.3097 100.771 32.9515 92.7238 44.8136C85.8608 54.9312 91.6413 62.3809 75.4029 64.4537C71.0931 65.0078 66.722 64.4947 62.4123 64.6178H62.4327Z" fill="#D17620"/>
</svg>
