<svg width="257" height="275" viewBox="0 0 257 275" fill="none" xmlns="http://www.w3.org/2000/svg">
<path d="M254.906 3.8613C256.169 5.56547 256.169 7.54531 256.353 9.52515C258.903 38.2955 253.46 89.6712 247.991 118.592C239.76 162.224 207.68 219.89 175.073 251.592C128.635 296.778 94.0828 269.712 62.2389 228.11C11.9093 162.399 2.57433 107.264 0.628461 26.9678C0.391801 17.3944 -2.94772 4.03673 8.56973 1.95664C32.8931 -2.40403 70.8376 1.78121 96.7387 2.50799C113.699 2.98415 130.713 4.08685 147.883 3.68587C175.362 3.05933 205.839 -1.17602 233.081 0.352715C236.605 0.553205 253.25 2.33256 254.933 3.88636L254.906 3.8613ZM101.787 79.3961C88.9815 50.8011 56.4539 48.0193 35.8908 71.3013C41.8862 72.3538 48.5389 69.7976 54.5869 69.6221C70.522 69.171 87.1934 73.8826 101.787 79.3961ZM222.221 72.9052C202.552 48.0945 168.289 49.9741 155.194 79.3961C176.519 70.8 199.502 66.8153 222.221 72.9052ZM185.67 142.4C179.07 138.541 166.948 151.372 161.925 154.58C140.494 168.263 121.719 170.444 99.1579 157.161C86.983 149.994 66.3673 125.358 68.8654 157.888C69.4176 165.056 75.1763 188.914 83.3017 190.693C90.717 192.322 102.734 183.877 110.886 181.721C126.347 177.611 138.89 178.664 153.695 184.227C160.716 186.884 170.077 195.079 177.256 188.663C183.777 182.849 193.086 146.686 185.67 142.375V142.4Z" fill="#D17620"/>
</svg>
