<svg width="236" height="275" viewBox="0 0 236 275" fill="none" xmlns="http://www.w3.org/2000/svg">
<path d="M71.6222 253.328C44.039 226.184 17.3653 173.717 11.0227 135.371C7.67924 115.113 9.00677 94.6298 7.50715 74.2468C6.15503 55.6851 1.26281 36.0755 0.107366 18.1624C-0.23681 12.8983 -0.11389 2.46977 6.15503 0.623573C12.7927 -1.34737 37.8192 6.9605 46.6449 8.68196C105.868 20.2082 166.566 17.3141 224.387 0.0497283C234.737 -0.773575 236.36 8.78173 235.942 17.1645C235.155 33.5307 229.82 52.791 228.493 69.9557C226.182 99.7692 228.271 124.593 220.257 154.307C204.081 214.308 140.285 320.864 71.6468 253.353L71.6222 253.328ZM40.0072 86.1722C39.2205 87.0205 38.0159 87.3199 37.2784 88.243C36.5654 90.8626 47.9724 94.7795 50.2587 95.528C65.6483 100.543 82.5867 99.869 96.747 91.4364C81.6033 71.6023 58.0273 66.8122 40.0072 86.1473V86.1722ZM139.253 92.0102C158.477 101.191 180.603 101.366 198.721 89.3407C185.372 73.1491 169.811 68.9078 151.299 79.985C149.111 81.2823 137.679 89.8397 139.277 92.0102H139.253ZM101.787 187.139C88.5852 189.41 67.5167 217.352 97.2633 214.882C104.171 214.308 112.309 211.788 119.586 211.888C127.354 212.013 157.076 221.643 153.413 206.524C151.078 196.894 141.195 187.588 131.312 186.84C126.42 186.466 122.536 188.062 118.504 188.037C112.8 188.037 108.203 186.017 101.762 187.114L101.787 187.139Z" fill="white"/>
</svg>
