<svg width="243" height="275" viewBox="0 0 243 275" fill="none" xmlns="http://www.w3.org/2000/svg">
<path d="M37.3883 0.0469782C70.9182 -1.05128 99.4098 17.5193 137.807 12.6021C184.857 6.56169 238.521 -26.7605 242.601 48.8197C246.141 114.266 226.033 183.706 185.177 234.326C144.322 284.946 105.751 290.886 60.9627 237.571C17.8457 186.202 -2.97583 117.436 0.34276 49.893C1.64561 23.6097 6.75896 1.0454 37.3883 0.0469782ZM90.6582 80.6693C83.0869 62.9474 59.5123 59.8273 45.0826 71.6087C38.8387 76.7006 39.355 77.1 46.5575 79.6459C60.5202 84.5631 76.4497 83.8642 90.6827 80.6693H90.6582ZM203.245 77.4244C204.646 75.5773 193.732 68.7132 191.962 67.8646C176.156 60.4014 162.611 65.9426 152.286 79.0469C162.979 85.0873 179.794 83.8892 191.568 81.2184C195.723 80.2699 199.165 78.3479 203.221 77.4244H203.245ZM79.6945 170.502C65.5598 171.226 78.1279 194.295 86.6213 199.875C91.4738 204.411 99.6112 209.007 106.145 211.212C110.603 213.065 116.948 213.573 121.594 213.573C126.24 213.573 132.586 213.065 137.905 211.212C149.572 207.992 166.06 194.802 170.108 180.187C170.978 177.047 172.555 171.27 164.356 170.452C161.603 170.177 145.698 178.065 140.609 179.363C127.36 182.758 116.666 182.658 103.416 179.363C98.0084 178.015 82.4477 170.377 79.6945 170.502Z" fill="#D17620"/>
</svg>
