<svg width="259" height="275" viewBox="0 0 259 275" fill="none" xmlns="http://www.w3.org/2000/svg">
<path d="M21.3395 4.49565C22.8386 4.99499 41.1231 9.76817 60.5511 12.6197C112.369 20.1987 167.674 19.2232 218.955 9.36791C225.868 8.0422 249.646 0 256.709 1.41369C259.64 2.99604 259.003 20.824 258.795 25.5265C256.292 87.4346 249.766 144.815 219.164 201.921C177.835 279.037 109.3 309.503 51.3437 221.381C10.7891 159.698 1.90941 89.6608 0.0619546 20.1987C-0.116831 13.9704 -0.147581 3.38417 3.45884 0.388135C3.45884 0.388135 3.97157 0.0292184 4.34989 0.0018679C5.75891 -0.0999969 19.8404 3.99631 21.3395 4.49565ZM103.072 82.3069C93.7457 52.2408 50.3901 48.864 34.8357 77.4293C34.6272 79.1552 34.7166 79.2803 36.7428 79.0552C40.5867 78.63 45.4437 76.7289 50.0326 76.1286C68.5667 73.7773 85.9983 75.5282 103.072 82.2818V82.3069ZM224.081 79.0552C208.765 48.5889 165.767 51.7406 154.563 82.3069C177.298 73.9274 200.332 73.077 224.081 79.0552ZM181.589 215.228C170.385 177.908 112.31 167.427 85.2534 199.745C81.9458 203.697 76.5226 210.625 77.9529 215.228C110.254 194.167 148.812 196.193 181.589 215.228Z" fill="white"/>
</svg>
