<svg width="254" height="275" viewBox="0 0 254 275" fill="none" xmlns="http://www.w3.org/2000/svg">
<path d="M3.96938 2.599C6.43726 0.560303 11.2657 -0.370958 14.5115 0.157594C76.7451 23.0112 140.857 26.9627 205.531 10.6531C214.196 8.4634 233.965 0.409277 240.672 0.0317402C251.884 -0.597488 254.406 8.23689 253.95 16.9202C252.314 48.0293 244.105 91.7229 238.713 123.31C230.21 172.969 209.796 209.439 174.039 246.412C136.779 284.946 116.526 284.292 79.5349 245.859C11.8827 175.586 12.8752 106.648 0.187069 16.9202C-0.349427 12.3143 0.0798061 5.82065 3.99623 2.599H3.96938ZM99.7877 94.718C87.5555 86.8904 78.3009 80.2961 62.7157 84.3735C56.3851 86.0347 52.12 89.9862 46.4867 92.5535L47.1842 94.6928C64.1375 98.6192 81.9759 101.463 99.0902 96.8574L99.7608 94.718H99.7877ZM207.57 92.5283C188.846 79.9186 173.1 79.7927 155.744 94.3656C154.993 95.02 153.518 94.2902 154.269 96.8322C171.973 101.338 189.383 98.5941 206.872 94.6677L207.57 92.5283ZM116.929 181.979C103.919 183.364 86.6435 190.159 78.0595 199.598C84.8999 209.867 102.738 216.662 115.4 217.594C136.323 219.154 162.424 217.141 175.836 200.202C163.094 184.899 136.752 179.84 116.929 181.954V181.979Z" fill="white"/>
</svg>
