<svg width="247" height="275" viewBox="0 0 247 275" fill="none" xmlns="http://www.w3.org/2000/svg">
<path d="M83.7328 255.136C50.0437 221.131 15.6906 152.087 6.93638 104.486C2.85434 82.2872 -3.14573 31.4316 1.96911 10.721C3.297 5.39836 5.04295 0.151356 11.2152 0C21.9613 3.75867 32.6582 7.49214 43.7731 10.04C99.3724 22.88 161.021 22.0728 216.128 6.98764C222.252 5.32273 234.989 -1.36215 240.35 1.3118C248.145 5.17137 247.088 37.8642 246.768 46.0374C244.162 111.701 227.563 162.001 192.989 216.464C167.316 256.876 129.939 301.778 83.7328 255.161V255.136ZM104.364 92.2767C90.9624 60.6685 53.1421 58.2972 33.1746 85.2133L77.2408 87.9378L104.34 92.2767H104.364ZM213.792 85.7431C199.776 65.7137 174.57 59.3568 154.849 75.9807C152.39 78.0492 140.758 90.082 143.66 93.3866C166.185 86.3738 190.333 86.5504 213.768 85.7431H213.792ZM140.242 184.124C135.176 184.755 130.504 187.883 125.119 188.261C117.52 188.791 114.348 185.663 108.077 184.932C85.7738 182.409 79.1098 201.051 95.2904 215.48C108.791 227.488 130.898 228.421 146.34 219.844C166.628 208.568 165.201 181.022 140.217 184.124H140.242Z" fill="#D17620"/>
</svg>
