<svg width="1031" height="1117" viewBox="0 0 1031 1117" fill="none" xmlns="http://www.w3.org/2000/svg">
<g clip-path="url(#clip0_1325_48)">
<path d="M850.914 683.117C819.163 665.567 780.95 661.714 748.479 645.878C714.256 629.185 681.144 605.545 644.284 595.053C644.278 595.053 644.271 595.053 644.258 595.046C644.716 592.214 641.439 593.725 640.222 591.468C639.725 590.539 639.077 586.837 639.058 585.633C639.006 581.382 641.844 566.422 643.552 562.451C645.619 557.65 649.485 557.323 652.814 553.739C661.507 544.398 666.315 520.915 671.43 508.539C674.753 500.506 680.562 493.632 681.765 484.722C682.779 477.246 682.007 466.551 680.993 458.996C679.417 447.294 674.465 441.42 676.683 428.396C680.045 408.629 689.301 397.803 683.603 376.381C682.733 373.11 679.718 370.938 679.345 366.137C679.123 363.292 680.863 364.338 681.092 363.442C683.074 355.514 672.425 345.944 688.071 343.616C694.239 342.7 697.477 346.128 703.469 345.074C705.817 343.086 703.011 327.982 701.579 325.111C700.925 323.796 699.185 323.776 699.008 322.991C698.262 319.695 704.934 310.87 697.791 310.164C695.973 314.795 693.448 317.556 688.28 318.203C689.445 313.363 686.691 308.372 686.711 303.178C686.717 301.863 688.215 301.052 688.13 299.927C688.051 298.835 686.41 297.533 686.416 296.225C686.416 295.512 688.575 295.636 689.046 294.282C691.348 287.669 687.155 281.343 683.25 276.032C679.352 270.727 669.089 262.858 685.115 265.18C686.998 263.316 684.264 263.362 683.348 262.492C678.776 258.168 666.943 249.233 664.457 244.484C661.776 239.369 668.598 242.809 671.09 244.137C671.424 244.314 678.312 250.044 676.578 245.844C674.845 241.645 653.625 229.504 657.805 224.788C658.191 224.35 663.071 224.514 662.102 220.837C661.945 220.249 655.771 213.387 654.43 211.359C653.318 209.678 653.331 207.794 652.343 206.257C650.669 203.634 647.071 202.98 646.26 202.005C644.657 200.082 645.75 193.979 644.317 192.023C643.597 191.029 641.033 191.5 640.746 190.041C640.562 189.113 641.988 187.68 641.158 186.064C640.53 184.835 638.109 184.161 637.024 182.931C631.987 177.221 633.91 179.87 628.494 176.187C625.779 174.343 622.862 171.249 620.409 168.985L617.276 172.57C617.642 170.012 616.144 164.164 614.633 162.182C612.775 159.749 608.811 157.322 606.934 155.51C604.475 153.136 590.418 141.277 593.021 138.425C594.82 138.405 598.084 141.022 597.515 137.529C595.389 138.15 593.904 136.397 592.4 136.031C591.431 135.795 586.303 136.26 584.956 134.788C584.334 134.108 586.231 130.726 585.832 130.34C585.623 130.144 582.751 130.595 582.274 128.881C581.947 127.697 583.51 125.342 583.137 124.943C582.869 124.662 577.531 123.596 575.7 122.275C573.868 120.953 573.881 117.539 569.649 118.657L572.338 122.235C569.852 122.17 566.621 122.752 564.521 121.071C560.701 118.01 564.541 114.321 564.056 112.005C563.788 110.723 561.152 109.022 560.884 105.372C560.616 101.846 563.788 99.7337 556.626 99.7533C549.463 99.7729 549.404 103.109 544.989 94.2914C543.484 91.289 546.304 90.0919 539.998 90.7657L540.901 86.2719C542.202 84.8917 546.461 90.3667 546.278 86.7428C544.904 84.46 538.389 84.1329 537.473 83.3545C537.211 83.1321 537.355 81.9612 536.93 81.2613C536.682 80.8558 535.55 80.823 535.517 80.339C535.485 79.9007 536.4 76.1396 536.649 75.7405C537.983 73.6474 543.903 74.465 543.583 70.9982C541.417 69.8208 538.494 71.2075 536.983 71.0178C536.283 70.9328 536.832 69.3563 535.118 69.1208C532.162 68.7088 523.351 70.5272 522.925 70.0955C522.742 69.9058 523.403 68.0481 522.396 67.3155C520.603 66.0072 516.168 66.6483 513.938 66.4978C513.002 63.2926 520.976 64.9934 522.023 63.7963C519.923 59.6296 522.657 60.493 522.899 59.5969C524.338 54.3312 521.408 56.287 518.608 55.1031C517.47 54.619 517.607 53.0099 517.006 52.9968C515.887 52.9772 512.263 54.8218 511.276 53.8406C510.988 53.5593 511.511 51.6297 511.184 51.3157C510.595 50.7401 507.089 51.5839 506.736 51.2241C506.435 50.9167 507.056 47.9208 506.749 47.6134C506.402 47.2602 502.896 48.0974 502.301 47.5218C501.974 47.2013 502.497 45.2847 502.209 44.9969C501.287 44.0877 494.314 46.5995 492.372 45.8211C491.384 43.6233 493.889 41.7132 494.046 40.732C494.661 37.0297 488.283 39.9863 487.878 39.5285C487.655 39.2799 488.224 37.3175 487.812 36.9447C487.446 36.6045 478.439 35.4337 477.987 35.0281C477.248 34.3609 481.389 30.0045 476.182 30.083L477.987 25.1509C473.546 26.3283 469.17 24.9808 464.519 26.034C464.421 24.1697 468.601 15.8035 468.117 15.2672C466.488 13.4683 459.096 16.196 464.519 5.38341L459.129 4.46764L460.49 0C454.845 4.06863 453.975 11.9181 448.362 16.6212L430.322 20.1469C427.646 22.1812 423.028 25.3864 419.62 23.823C418.495 23.3063 417.593 20.716 416.127 21.7168C415.97 21.828 416.101 23.2801 415.427 23.4109C412.425 23.9866 405.55 20.317 407.009 26.9628C402.332 26.9628 400.827 26.4722 401.619 21.5532L398.93 21.5663C398.603 21.8476 401.867 26.8255 396.242 28.3888C392.749 29.3634 391.186 26.5834 388.144 26.0601L389.884 29.9914C385.887 32.9088 386.895 38.9528 380.975 35.8981C381.878 33.6414 381.616 23.2932 379.601 22.469L374.133 34.0796C369.273 35.7476 370.502 30.011 370.169 29.6513C369.672 29.1083 365.996 30.9072 364.785 30.5539C364.314 30.1353 367.16 26.0798 364.347 26.9759C360.906 28.0748 356.759 34.2693 360.743 35.9439C363.575 37.1344 362.339 34.1123 363.876 34.1581C362.993 37.3764 366.126 36.6438 366.578 39.0902C366.375 39.9013 361.659 42.3412 360.593 43.4466C358.905 45.1866 358.97 46.6322 355.556 49.4449C354.764 50.099 354.83 52.6632 353.096 50.7793C354.516 43.3747 347 42.629 341.427 44.0419C342.886 30.3512 325.682 39.0248 334.166 46.3706C335.213 47.2798 340.073 48.1956 337.842 50.328C337.509 50.642 334.755 49.929 334.277 50.3672C333.898 50.7139 334.323 55.6198 332.694 56.6468C330.981 57.7261 328.462 56.5683 326.84 56.843C325.636 57.0458 324.4 59.0409 322.555 58.4194L323.89 50.3214C318.003 49.8636 317.872 55.1227 315.753 56.5617C314.418 57.471 312.253 57.2355 310.892 58.0008C308.956 59.0932 309.735 62.076 306.386 61.1144C305.424 56.9935 309.218 55.5152 309.97 52.1399C309.578 51.7736 303.108 54.9984 299.406 52.794C298.909 52.4997 298.87 50.884 297.738 50.4784C295.096 49.53 289.189 50.6158 290.262 54.2919C290.621 55.5217 296.037 57.8504 295.593 60.2183C290.419 60.6435 291.38 56.915 291.099 56.6337C288.692 54.2462 285.957 62.1414 286.67 64.1561C287.468 66.4128 291.197 63.901 290.19 68.7218C289.771 70.73 284.093 76.1396 282.196 74.4912C281.902 74.2361 283.027 70.6384 278.134 71.044C277.205 71.1225 269.212 74.55 268.636 75.0668C267.217 76.3554 268.067 78.5533 267.636 79.0046C267.302 79.3447 264.98 78.8803 263.606 79.9073C261.016 81.8566 261.467 88.8753 257.379 89.8695C254.893 90.4779 256.856 86.9456 255.214 85.7747C254.259 85.0879 252.702 85.4477 251.564 85.3888C251.355 87.1942 251.93 89.3266 251.531 91.0535C251.472 91.2955 249.601 94.6904 249.294 95.2268C248.09 97.2872 245.474 97.2611 244.002 98.9487C242.092 101.147 238.867 109.716 237.71 110.631C236.552 111.547 227.191 115.06 226.557 116.106C225.922 117.153 227.061 119.298 225.523 120.914C224.339 122.157 220.591 122.811 218.76 124.034C214.783 126.677 209.223 133.087 205.677 135.213C203.355 136.606 197.396 137.849 195.512 139.249C194.289 140.165 191.817 146.052 191.13 147.17C189.985 149.035 181.632 152.318 180.782 152.999C180.245 153.424 175.954 163.144 174.666 165.303C173.246 167.684 170.126 170.235 169.4 171.72C168.137 174.316 166.947 181.165 165.514 184.893C164.527 187.471 161.603 191.598 161.053 193.94C159.32 201.384 166.07 207.461 160.805 217.717C160.255 218.79 158.528 218.81 158.28 219.817C158.097 220.582 159.006 221.976 158.803 223.127C158.064 227.359 154.349 237.014 156.298 240.297C156.854 241.239 158.26 240.625 158.783 241.109C159.215 241.521 158.901 242.744 159.294 243.254C159.994 244.163 161.59 243.895 161.563 245.596C161.544 246.832 160.144 253.164 159.686 254.577C158.855 257.128 156.324 263.479 155.16 266.227C152.975 271.355 147.827 275.116 147.304 280.833C146.996 284.215 146.532 289.697 151.255 288.565C152.111 288.362 152.066 286.367 153.276 285.942C157.573 284.437 155.761 287.283 156.54 289.631C156.893 290.691 158.11 291.319 158.162 292.562C158.182 293.085 156.422 293.078 156.311 293.464C155.591 295.924 157.698 295.518 158.064 296.395C159.15 299.018 159.294 309.929 158.868 313.062C158.443 316.195 153.668 317.503 154.473 321.238C154.702 322.324 158.378 322.167 158.934 324.169C159.248 325.3 158.077 327.681 158.09 329.389C158.103 331.351 158.528 341.974 159.019 342.726C159.431 343.348 160.883 343.308 160.883 343.851C160.896 345.755 153.479 357.607 155.441 359.537C158.96 362.369 166.496 353.408 168.02 355.05C169.733 356.901 164.971 360.688 164.252 362.5C163.657 364.011 162.741 367.563 162.721 369.081C162.656 373.103 166.097 375.517 166.142 377.937C166.195 380.358 163.82 382.451 163.487 385.12C163.022 388.842 165.357 393.276 165.213 394.022C164.762 396.429 157.704 398.333 156.913 400.217C156.389 401.466 157.03 408.805 157.423 410.14C157.933 411.906 160.936 418.898 162.002 421.737C163.441 425.577 166.816 428.933 167.608 433.204C169.302 434.551 171.146 435.729 173.056 436.743C176.772 438.725 183.98 440.406 187.238 442.329C189.357 443.578 189.893 446.254 191.803 447.647C193.426 448.824 195.8 448.85 197.272 450.263C200.379 453.246 204.716 465.001 207.188 469.109C210.642 474.839 215.012 477.252 217.491 484.873C219.473 490.956 220.251 498.027 217.438 503.77C217.68 505.216 225.451 505.779 226.89 508.729C227.159 509.285 228.199 519.594 228.199 521C228.199 521.667 226.537 526.383 226.321 526.58C225.759 527.077 219.119 526.082 218.537 525.638C218.269 525.435 216.13 520.11 216.111 519.456C215.973 515.662 218.321 514.537 219.25 511.437H212.964C211.682 515.028 214.515 518.39 214.77 520.948C215.136 524.63 215.313 529.687 215.954 533.337C216.261 535.07 217.831 541.304 218.753 542.076C219.545 542.73 221.226 542.56 221.749 543.155C222.161 543.619 221.749 545.019 222.102 545.379C222.462 545.745 230.462 548.009 231.796 548.767C233.543 549.762 236.63 558.174 237.18 560.463C237.69 562.595 237.069 565.264 237.664 568.064C239.129 574.893 249.202 586.098 252.676 593.496C257.3 603.354 264.777 624.678 267.518 635.275C268.218 637.97 269.225 641.24 268.702 644.027C268.244 646.46 265.555 645.603 265.981 648.05C262.978 648.213 261.585 649.41 259.093 650.588C233.68 662.604 207.64 686.146 180.055 690.175C130.27 697.449 66.2255 710.427 21.5426 733.864C16.604 736.454 11.9859 740.836 6.28851 741.523V741.975C-66.188 759.309 -165.562 1016.94 -174 1115.97L6.28197 1117.28H402.528C402.528 1117.28 402.528 1117.29 402.528 1117.3H408.821L408.853 1117.28H520.276C520.276 1117.28 520.276 1117.28 520.276 1117.28H850.96V1116.64H1031C1022.43 1016 923.633 692.805 850.914 683.104V683.117Z" fill="black"/>
</g>
<defs>
<clipPath id="clip0_1325_48">
<rect width="1031" height="1117" fill="white"/>
</clipPath>
</defs>
</svg>
