<svg width="402" height="183" viewBox="0 0 402 183" fill="none" xmlns="http://www.w3.org/2000/svg">
<rect x="57.0176" y="66.3281" width="298.776" height="49.796" fill="black"/>
<path d="M368.284 10.333C370.641 21.5898 379.956 30.1914 391.273 32.1405L391.003 149.78C378.891 152.505 371.024 160.33 368.284 172.378L34.2383 172.66C31.1002 160.302 23.5034 152.505 10.8516 149.78L10.8516 33.6235L12.0443 31.9992C23.617 30.1772 31.5972 21.6463 33.5425 10.3047L368.298 10.333H368.284ZM77.9446 88.7637C77.0926 86.3485 75.9425 76.6029 73.8409 76.5464C70.93 78.6368 71.6968 79.23 72.5204 82.0548C73.0884 84.018 77.5754 97.5771 78.7966 96.2918C81.7927 89.8795 78.2144 89.5688 77.9446 88.7637ZM87.3164 97.6901C87.0466 94.5828 86.365 76.5888 83.7806 76.5464C80.6141 78.9052 82.6447 86.1932 83.2979 89.7101C83.7523 92.1959 83.4115 98.8906 87.3164 97.7042V97.6901ZM108.63 76.5182C99.7978 77.9447 106.926 91.5885 104.37 97.6901L108.63 97.6901V76.5182ZM132.769 84.9785C134.019 81.9418 135.112 76.1368 129.929 76.5182V84.9926L127.175 83.6226L121.41 97.6901L125.684 96.7438L129.219 87.8033L129.929 97.7184L134.189 97.6901L133.493 87.8033C136.674 87.0688 137.895 94.9359 138.435 96.7438L142.709 97.6759L137.001 83.5519L132.769 84.9643V84.9785ZM166.848 77.9306L166.848 97.7042L173.962 96.9839L173.238 93.4387L169.702 96.2777C168.836 88.2552 173.976 71.3205 160.373 77.8882L161.183 87.8033L162.588 77.9164H166.848V77.9306ZM191.002 97.7184C189.639 91.6027 194.665 77.4786 186.742 76.5323C186.003 77.2526 191.896 94.0885 185.336 96.2918L178.932 77.9447C174.019 83.0717 182.525 91.066 181.119 97.6478L191.002 97.7184ZM196.667 76.5182L196.667 97.7042H200.927C197.945 91.8004 200.317 84.8513 199.507 78.6085C199.238 76.5464 198.414 74.216 196.667 76.5182ZM206.607 76.5182L202.802 78.5803C204.761 84.696 203.81 90.9247 202.319 96.9839L206.607 97.7042L206.607 76.5182ZM212.287 76.5182L212.287 97.7042H216.547C213.565 91.8004 215.936 84.8513 215.127 78.6085C214.857 76.5464 214.033 74.216 212.287 76.5182ZM222.227 76.5182L218.492 78.6085C219.032 84.7242 219.486 91.0235 217.953 96.9839L222.241 97.7042L222.241 76.5182H222.227ZM94.4303 97.6901C89.4321 91.2778 92.627 84.9502 92.3146 77.9306C87.2453 82.2949 86.3508 96.3907 94.4303 97.6901ZM100.082 97.7042C102.851 91.8145 105.847 80.2752 97.2703 77.9447C101.232 84.5971 100.352 90.8964 97.2703 97.6901H100.082V97.7042ZM144.129 77.9306L144.129 97.7042L148.417 96.9839C146.685 91.4331 146.983 83.7214 148.389 77.9447H144.129V77.9306ZM297.484 82.1678C294.545 82.2949 285.898 80.7272 286.295 85.4587C289.234 94.597 298.691 91.0377 297.484 82.1678ZM341.489 86.405H331.563V100.515H341.503C341.972 97.8454 338.748 99.8793 337.556 98.8483C336.945 98.3257 336.888 94.8229 335.823 93.4811C341.148 93.7778 342.128 91.3625 341.503 86.405H341.489Z" fill="black"/>
<path d="M401.558 26.0159L401.853 156.854C388.233 160.297 379.712 166.76 378.032 181.899L25.2258 182.111C24.1645 168.99 14.1555 157.612 0.874023 157.719L1.00669 26.7592L2.21543 24.9692C16.7056 24.1804 22.6314 14.0471 25.8007 0.773666L374.509 0C379.211 0.864669 378.858 7.52415 380.848 11.6806C385.579 21.5864 391.874 22.9213 401.558 26.0159ZM398.669 27.4722C390.753 26.6986 383.221 21.996 379.344 14.7449C376.941 10.2698 377.531 3.9441 373.035 3.03393L28.2477 2.9581C24.9015 15.7158 16.8383 25.9552 3.67478 28.2003L3.95484 153.805C9.21731 157.612 15.0694 157.84 19.9781 163.104C24.2529 167.7 25.388 173.889 28.3361 179.093L374.317 178.82C380.007 167.2 385.211 157.506 398.92 155.398L398.684 27.4722H398.669Z" fill="black"/>
<path d="M400.055 27.304L400.348 156.998C386.829 160.411 378.372 166.817 376.704 181.824L26.5176 182.034C25.4642 169.027 15.5295 157.75 2.34668 157.855L2.47836 28.0408L3.67813 26.2665C18.0607 25.4846 23.9425 15.4399 27.0883 2.28252L373.207 1.51563C377.874 2.37273 377.523 8.97397 379.498 13.0941C384.195 22.9132 390.443 24.2365 400.055 27.304ZM397.188 28.7476C389.331 27.9807 381.854 23.3192 378.006 16.1315C375.621 11.6956 376.206 5.42523 371.744 4.52301L29.5171 4.44785C26.1957 17.0939 18.1924 27.2438 5.12663 29.4693L5.40462 153.975C10.628 157.75 16.4367 157.975 21.3089 163.193C25.552 167.749 26.6786 173.884 29.6048 179.042L373.017 178.771C378.665 167.253 383.829 157.644 397.437 155.554L397.202 28.7476H397.188Z" fill="black"/>
<path d="M398.585 27.0873L398.876 155.691C385.456 159.076 377.062 165.428 375.406 180.309L27.8142 180.517C26.7685 167.62 16.9074 156.437 3.82227 156.541L3.95297 27.8179L5.14385 26.0585C19.4199 25.2831 25.2581 15.3228 28.3806 2.27608L371.936 1.51563C376.568 2.36553 376.22 8.91129 378.18 12.9968C382.842 22.7334 389.044 24.0456 398.585 27.0873ZM395.739 28.5187C387.94 27.7583 380.519 23.136 376.699 16.0087C374.332 11.6101 374.913 5.39238 370.483 4.49774L30.7914 4.42321C27.4947 16.963 19.5506 27.0276 6.58163 29.2344L6.85756 152.694C12.0423 156.437 17.8079 156.66 22.644 161.834C26.8557 166.352 27.9739 172.436 30.8785 177.55L371.747 177.282C377.353 165.86 382.479 156.332 395.986 154.26L395.753 28.5187H395.739Z" fill="black"/>
<path d="M140.58 67.404H136.548V80.8235C136.548 81.9365 136.411 82.8501 136.138 83.5641C135.865 84.2781 135.498 84.8451 135.036 85.2651C134.574 85.6642 134.038 85.9477 133.429 86.1157C132.841 86.2837 132.222 86.3677 131.571 86.3677C131.256 86.3677 130.972 86.3677 130.72 86.3677C130.468 86.3677 130.195 86.3467 129.901 86.3047V83.1546C130.09 83.1756 130.29 83.1861 130.5 83.1861C130.71 83.1861 130.909 83.1861 131.098 83.1861C131.644 83.1861 132.106 83.0496 132.484 82.7766C132.883 82.5035 133.083 81.9365 133.083 81.0755V64.2539H144.045V86.3047H140.58V67.404ZM150.126 86.3047H146.566V64.2539H149.653V77.4529L153.213 64.2539H157.56V86.3047H154.441V70.3336L150.126 86.3047ZM174.98 78.0829V81.0125C174.98 82.7976 174.539 84.1731 173.657 85.1391C172.795 86.0842 171.514 86.5567 169.813 86.5567C168.112 86.5567 166.821 86.0842 165.939 85.1391C165.078 84.1731 164.647 82.7976 164.647 81.0125V69.5461C164.647 67.761 165.078 66.396 165.939 65.4509C166.821 64.4849 168.112 64.0019 169.813 64.0019C171.514 64.0019 172.795 64.4849 173.657 65.4509C174.539 66.396 174.98 67.761 174.98 69.5461V71.6881H171.703V69.3256C171.703 68.5275 171.535 67.971 171.199 67.656C170.884 67.32 170.454 67.152 169.908 67.152C169.362 67.152 168.921 67.32 168.585 67.656C168.27 67.971 168.112 68.5275 168.112 69.3256V81.233C168.112 82.031 168.27 82.5876 168.585 82.9026C168.921 83.2176 169.362 83.3751 169.908 83.3751C170.454 83.3751 170.884 83.2176 171.199 82.9026C171.535 82.5876 171.703 82.031 171.703 81.233V78.0829H174.98ZM176.23 64.2539H186.94V67.404H183.318V86.3047H179.853V67.404L176.23 67.404V64.2539ZM193.63 64.2539C195.373 64.2539 196.664 64.7159 197.504 65.6399C198.365 66.564 198.796 67.9185 198.796 69.7036V72.5702C198.796 74.3552 198.365 75.7098 197.504 76.6338C196.664 77.5579 195.373 78.0199 193.63 78.0199H191.992V86.3047H188.527V64.2539H193.63ZM191.992 67.404V74.8698H193.63C194.176 74.8698 194.596 74.7228 194.89 74.4288C195.184 74.1347 195.331 73.5887 195.331 72.7907V69.4831C195.331 68.685 195.184 68.139 194.89 67.845C194.596 67.551 194.176 67.404 193.63 67.404H191.992ZM211.553 86.3047H208.057L207.458 82.304H203.205L202.607 86.3047H199.425L202.953 64.2539H208.025L211.553 86.3047ZM203.646 79.3114H206.985L205.316 68.16L203.646 79.3114ZM223.154 78.0829V81.0125C223.154 82.7976 222.713 84.1731 221.831 85.1391C220.97 86.0842 219.689 86.5567 217.988 86.5567C216.287 86.5567 214.995 86.0842 214.113 85.1391C213.252 84.1731 212.822 82.7976 212.822 81.0125V69.5461C212.822 67.761 213.252 66.396 214.113 65.4509C214.995 64.4849 216.287 64.0019 217.988 64.0019C219.689 64.0019 220.97 64.4849 221.831 65.4509C222.713 66.396 223.154 67.761 223.154 69.5461V71.6881H219.878V69.3256C219.878 68.5275 219.71 67.971 219.374 67.656C219.059 67.32 218.629 67.152 218.082 67.152C217.536 67.152 217.095 67.32 216.759 67.656C216.444 67.971 216.287 68.5275 216.287 69.3256V81.233C216.287 82.031 216.444 82.5876 216.759 82.9026C217.095 83.2176 217.536 83.3751 218.082 83.3751C218.629 83.3751 219.059 83.2176 219.374 82.9026C219.71 82.5876 219.878 82.031 219.878 81.233V78.0829H223.154ZM228.815 72.5387H230.453C232.196 72.5387 233.487 73.0007 234.328 73.9247C235.189 74.8488 235.619 76.2033 235.619 77.9884V80.855C235.619 82.6401 235.189 83.9946 234.328 84.9186C233.487 85.8427 232.196 86.3047 230.453 86.3047H225.35V64.2539H234.517V67.404H228.815V72.5387ZM230.453 83.1546C230.999 83.1546 231.419 83.0076 231.713 82.7136C232.007 82.4195 232.154 81.8735 232.154 81.0755V77.7679C232.154 76.9698 232.007 76.4238 231.713 76.1298C231.419 75.8358 230.999 75.6888 230.453 75.6888H228.815V83.1546H230.453ZM241.12 73.5467H245.877V76.6968H241.12V83.1546H247.105V86.3047H237.655V64.2539H247.105V67.404H241.12V73.5467ZM254.263 64.2539C256.006 64.2539 257.298 64.7159 258.138 65.6399C258.999 66.564 259.43 67.9185 259.43 69.7036V72.5702C259.43 74.3552 258.999 75.7098 258.138 76.6338C257.298 77.5579 256.006 78.0199 254.263 78.0199H252.625V86.3047H249.16V64.2539H254.263ZM252.625 67.404V74.8698H254.263C254.809 74.8698 255.229 74.7228 255.523 74.4288C255.817 74.1347 255.964 73.5887 255.964 72.7907V69.4831C255.964 68.685 255.817 68.139 255.523 67.845C255.229 67.551 254.809 67.404 254.263 67.404H252.625ZM264.469 86.3047H261.004V64.2539H270.171V67.404H264.469V86.3047Z" fill="white"/>
<path d="M162.74 105.944C162.981 105.944 163.102 106.072 163.102 106.329C163.102 106.426 163.094 106.482 163.077 106.498L161.415 111.123C162.411 113.901 162.965 115.483 163.077 115.868C163.077 116.109 162.949 116.23 162.692 116.23C162.548 116.23 162.427 116.15 162.331 115.989L159.344 111.508C159.247 111.364 159.199 111.227 159.199 111.099C159.199 110.97 159.255 110.818 159.368 110.641L162.331 106.257C162.427 106.048 162.564 105.944 162.74 105.944ZM160.018 105.269C160.115 105.269 160.203 105.309 160.283 105.39C160.38 105.47 160.428 105.55 160.428 105.631C160.428 105.679 160.388 105.807 160.307 106.016L157.682 111.075L160.38 116.374C160.428 116.439 160.452 116.519 160.452 116.615C160.452 116.872 160.315 117.001 160.042 117.001C159.866 117.001 159.721 116.928 159.609 116.784L155.321 111.508C155.128 111.235 155.144 110.946 155.369 110.641L159.609 105.486C159.721 105.342 159.858 105.269 160.018 105.269ZM165.961 100.692L165.238 100.451C164.933 100.355 164.78 100.211 164.78 100.018C164.78 99.7288 164.933 99.5842 165.238 99.5842L166.37 99.7288C166.932 99.793 167.414 99.8251 167.816 99.8251C168.474 99.8251 169.55 99.7448 171.043 99.5842C171.252 99.5842 171.429 99.7609 171.573 100.114L175.861 110.593L180.39 100.162C180.519 99.7769 180.687 99.5842 180.896 99.5842C180.96 99.5842 181.257 99.6324 181.787 99.7288C182.381 99.8091 182.775 99.8492 182.968 99.8492C183.353 99.8492 184.003 99.8091 184.919 99.7288C185.754 99.6324 186.196 99.5842 186.244 99.5842C186.388 99.5842 186.501 99.6324 186.581 99.7288C186.661 99.8091 186.701 99.9054 186.701 100.018C186.701 100.259 186.549 100.403 186.244 100.451C184.847 100.644 184.148 101.238 184.148 102.234V102.33L184.557 114.134C184.574 114.664 184.71 115.082 184.967 115.387C185.224 115.692 185.682 115.917 186.34 116.061C186.645 116.125 186.798 116.27 186.798 116.495C186.798 116.607 186.758 116.704 186.677 116.784C186.597 116.88 186.485 116.928 186.34 116.928C184.847 116.768 183.674 116.688 182.823 116.688C181.908 116.688 180.671 116.768 179.113 116.928C178.808 116.928 178.656 116.784 178.656 116.495C178.656 116.254 178.808 116.109 179.113 116.061C180.494 115.885 181.185 115.258 181.185 114.182C181.089 110.874 181.024 108.69 180.992 107.63C180.88 104.37 180.824 102.443 180.824 101.849L174.946 115.507C174.914 115.668 174.85 115.78 174.753 115.844C174.657 115.893 174.56 115.893 174.464 115.844C174.368 115.78 174.287 115.676 174.223 115.531L168.731 102.065L168.321 113.941V114.038C168.321 115.242 168.835 115.917 169.863 116.061C170.168 116.109 170.321 116.254 170.321 116.495C170.321 116.607 170.281 116.704 170.2 116.784C170.12 116.88 170.008 116.928 169.863 116.928C168.691 116.768 167.775 116.688 167.117 116.688C166.491 116.688 165.623 116.768 164.515 116.928C164.21 116.928 164.058 116.784 164.058 116.495C164.058 116.27 164.21 116.125 164.515 116.061C165.254 115.917 165.768 115.676 166.057 115.339C166.346 115.001 166.515 114.503 166.563 113.845L167.502 102.354C167.502 102.322 167.51 102.274 167.526 102.21V102.114C167.526 101.664 167.374 101.351 167.069 101.174C166.924 101.078 166.78 100.997 166.635 100.933L165.961 100.692ZM193.294 105.366C194.37 105.366 195.35 105.687 196.233 106.329C197.116 106.955 197.574 107.815 197.606 108.907C197.606 109.276 197.413 109.461 197.028 109.461H190.789C190.757 109.782 190.74 110.111 190.74 110.448C190.74 111.476 191.054 112.448 191.68 113.363C192.306 114.263 193.157 114.712 194.233 114.712C194.747 114.712 195.261 114.592 195.775 114.351C196.305 114.094 196.69 113.781 196.931 113.411C197.076 113.203 197.204 113.098 197.317 113.098C197.59 113.098 197.726 113.227 197.726 113.484C197.726 113.58 197.718 113.644 197.702 113.676C197.429 114.592 196.827 115.363 195.896 115.989C194.964 116.615 193.944 116.928 192.836 116.928C191.295 116.928 190.106 116.39 189.271 115.314C188.42 114.222 187.994 112.922 187.994 111.412C187.994 109.565 188.5 108.096 189.512 107.004C190.524 105.912 191.784 105.366 193.294 105.366ZM193.149 106.45C191.945 106.45 191.19 107.204 190.885 108.714H193.583C194.257 108.714 194.595 108.377 194.595 107.702C194.595 107.317 194.458 107.012 194.185 106.787C193.912 106.562 193.567 106.45 193.149 106.45ZM200.446 105.607H208.877C209.118 105.607 209.319 105.486 209.48 105.245C209.672 105.004 209.841 104.884 209.985 104.884C210.066 104.884 210.146 104.924 210.226 105.004C210.323 105.085 210.379 105.173 210.395 105.269C210.395 105.382 210.411 105.92 210.443 106.883L210.515 108.473C210.515 108.842 210.387 109.027 210.13 109.027C209.889 109.027 209.72 108.834 209.624 108.449C209.399 107.582 208.893 107.036 208.106 106.811C207.593 106.65 207.159 106.57 206.806 106.57H205.963V114.736C205.963 115.459 206.484 115.909 207.528 116.085C207.769 116.166 207.89 116.31 207.89 116.519C207.89 116.647 207.841 116.744 207.745 116.808C207.665 116.888 207.568 116.928 207.456 116.928C207.44 116.928 207.376 116.92 207.263 116.904C207.167 116.904 206.99 116.888 206.733 116.856C206.492 116.84 206.252 116.824 206.011 116.808C205.047 116.728 204.469 116.688 204.276 116.688C203.907 116.688 203.433 116.72 202.855 116.784L201.602 116.928C201.49 116.928 201.386 116.888 201.289 116.808C201.193 116.728 201.145 116.631 201.145 116.519C201.145 116.31 201.281 116.166 201.554 116.085C202.566 115.812 203.072 115.355 203.072 114.712V106.57H202.181C200.783 106.57 199.748 107.229 199.073 108.545C198.929 108.867 198.76 109.027 198.567 109.027C198.326 109.027 198.206 108.899 198.206 108.642V108.594C198.222 108.577 198.23 108.553 198.23 108.521C198.246 108.473 198.254 108.433 198.254 108.401L199.073 105.197C199.089 105.133 199.145 105.069 199.242 105.004C199.338 104.924 199.41 104.884 199.458 104.884C199.651 104.884 199.804 105.004 199.916 105.245C200.061 105.486 200.237 105.607 200.446 105.607ZM211.474 111.147C211.474 109.413 211.996 107.975 213.039 106.835C214.099 105.695 215.545 105.125 217.375 105.125C219.27 105.125 220.724 105.695 221.736 106.835C222.763 107.959 223.277 109.397 223.277 111.147C223.277 112.881 222.739 114.319 221.663 115.459C220.571 116.599 219.142 117.169 217.375 117.169C215.464 117.169 214.003 116.607 212.991 115.483C211.98 114.359 211.474 112.914 211.474 111.147ZM214.75 111.147C214.75 114.439 215.625 116.085 217.375 116.085C219.094 116.085 219.953 114.439 219.953 111.147C219.953 109.653 219.8 108.497 219.495 107.678C219.19 106.699 218.484 106.209 217.375 106.209C216.524 106.209 215.874 106.65 215.424 107.534C214.975 108.417 214.75 109.621 214.75 111.147ZM224.758 120.614C224.758 120.887 224.621 121.024 224.348 121.024C224.075 121.024 223.939 120.887 223.939 120.614L223.409 116.543C223.393 116.511 223.385 116.455 223.385 116.374C223.385 116.198 223.441 116.045 223.553 115.917C223.682 115.788 223.818 115.724 223.963 115.724H225.239C226.765 112.946 227.528 110.36 227.528 107.967C227.528 107.55 227.432 107.212 227.239 106.955C227.046 106.699 226.677 106.458 226.131 106.233C225.842 106.104 225.697 105.952 225.697 105.775C225.697 105.502 225.834 105.366 226.107 105.366C227.006 105.526 227.921 105.607 228.853 105.607H233.719C233.992 105.607 234.506 105.566 235.261 105.486C235.437 105.47 235.622 105.454 235.815 105.438C236.023 105.406 236.168 105.39 236.248 105.39C236.345 105.374 236.401 105.366 236.417 105.366C236.561 105.366 236.674 105.414 236.754 105.51C236.834 105.59 236.875 105.687 236.875 105.799C236.875 106.024 236.722 106.169 236.417 106.233C235.919 106.377 235.574 106.562 235.381 106.787C235.204 106.996 235.116 107.309 235.116 107.726V115.724H236.176C236.61 115.724 236.826 115.941 236.826 116.374V116.519C236.585 118.831 236.433 120.196 236.369 120.614C236.369 120.887 236.232 121.024 235.959 121.024C235.718 121.024 235.582 120.887 235.55 120.614L235.429 119.891C235.333 119.153 235.196 118.583 235.02 118.181C234.618 117.185 233.775 116.688 232.49 116.688H227.215C226.364 116.688 225.777 117.017 225.456 117.675C225.296 118.045 225.183 118.35 225.119 118.591C225.087 118.719 225.023 119.08 224.926 119.675C224.846 120.188 224.79 120.502 224.758 120.614ZM232.225 115.724V106.57H228.732C228.684 110.071 228.018 113.122 226.733 115.724H232.225ZM241.165 105.269C241.326 105.269 241.462 105.342 241.575 105.486L245.814 110.641C246.039 110.946 246.055 111.235 245.863 111.508L241.575 116.784C241.462 116.928 241.318 117.001 241.141 117.001C240.868 117.001 240.732 116.872 240.732 116.615C240.732 116.535 240.756 116.455 240.804 116.374L243.502 111.075L240.876 106.016C240.796 105.807 240.756 105.679 240.756 105.631C240.756 105.55 240.796 105.47 240.876 105.39C240.972 105.309 241.069 105.269 241.165 105.269ZM238.443 105.944C238.62 105.944 238.756 106.048 238.853 106.257L241.816 110.641C241.928 110.818 241.984 110.97 241.984 111.099C241.984 111.227 241.936 111.364 241.84 111.508L238.853 115.989C238.756 116.15 238.636 116.23 238.491 116.23C238.234 116.23 238.106 116.109 238.106 115.868C238.218 115.483 238.772 113.901 239.768 111.123L238.106 106.498C238.09 106.482 238.082 106.426 238.082 106.329C238.082 106.072 238.202 105.944 238.443 105.944Z" fill="white"/>
</svg>
