<svg width="402" height="183" viewBox="0 0 402 183" fill="none" xmlns="http://www.w3.org/2000/svg">
<rect x="56.1436" y="66.457" width="298.776" height="49.796" fill="black"/>
<path d="M367.41 10.4658C369.767 21.7226 379.082 30.3242 390.399 32.2733L390.129 149.912C378.017 152.638 370.15 160.463 367.41 172.511L33.3643 172.793C30.2262 160.435 22.6294 152.638 9.97754 149.912L9.97754 33.7563L11.1703 32.132C22.743 30.31 30.7231 21.7791 32.6685 10.4375L367.424 10.4658H367.41ZM77.0706 88.8965C76.2186 86.4813 75.0685 76.7358 72.9669 76.6793C70.056 78.7696 70.8228 79.3628 71.6464 82.1876C72.2143 84.1508 76.7014 97.7099 77.9226 96.4246C80.9187 90.0123 77.3404 89.7016 77.0706 88.8965ZM86.4423 97.8229C86.1725 94.7156 85.491 76.7216 82.9066 76.6793C79.7401 79.038 81.7707 86.326 82.4238 89.8429C82.8782 92.3287 82.5374 99.0235 86.4423 97.837V97.8229ZM107.756 76.651C98.9238 78.0775 106.052 91.7213 103.496 97.8229L107.756 97.8229V76.651ZM131.895 85.1113C133.145 82.0746 134.238 76.2696 129.055 76.651V85.1254L126.301 83.7554L120.536 97.8229L124.81 96.8766L128.345 87.9361L129.055 97.8512L133.315 97.8229L132.619 87.9361C135.8 87.2016 137.021 95.0687 137.561 96.8766L141.835 97.8088L136.127 83.6847L131.895 85.0971V85.1113ZM165.974 78.0634L165.974 97.837L173.088 97.1167L172.364 93.5715L168.828 96.4105C167.962 88.388 173.102 71.4533 159.499 78.021L160.309 87.9361L161.714 78.0492H165.974V78.0634ZM190.128 97.8512C188.765 91.7355 193.791 77.6114 185.868 76.6651C185.129 77.3854 191.022 94.2213 184.462 96.4246L178.058 78.0775C173.145 83.2045 181.651 91.1988 180.245 97.7806L190.128 97.8512ZM195.793 76.651L195.793 97.837H200.053C197.071 91.9332 199.443 84.9841 198.633 78.7413C198.363 76.6792 197.54 74.3488 195.793 76.651ZM205.733 76.651L201.928 78.7131C203.887 84.8288 202.936 91.0575 201.445 97.1167L205.733 97.837L205.733 76.651ZM211.413 76.651L211.413 97.837H215.673C212.691 91.9332 215.062 84.9841 214.253 78.7413C213.983 76.6792 213.159 74.3488 211.413 76.651ZM221.353 76.651L217.618 78.7413C218.158 84.857 218.612 91.1564 217.079 97.1167L221.367 97.837L221.367 76.651H221.353ZM93.5563 97.8229C88.5581 91.4106 91.753 85.083 91.4406 78.0634C86.3713 82.4277 85.4768 96.5235 93.5563 97.8229ZM99.2077 97.837C101.977 91.9473 104.973 80.408 96.3962 78.0775C100.358 84.7299 99.4775 91.0292 96.3962 97.8229H99.2077V97.837ZM143.255 78.0634L143.255 97.837L147.543 97.1167C145.811 91.5659 146.109 83.8543 147.515 78.0775H143.255V78.0634ZM296.61 82.3006C293.671 82.4277 285.024 80.86 285.421 85.5915C288.36 94.7298 297.817 91.1705 296.61 82.3006ZM340.615 86.5378H330.689V100.648H340.629C341.098 97.9783 337.874 100.012 336.682 98.9811C336.071 98.4585 336.014 94.9557 334.949 93.614C340.274 93.9106 341.254 91.4953 340.629 86.5378H340.615Z" fill="black"/>
<path d="M400.684 26.1488L400.979 156.987C387.359 160.43 378.838 166.893 377.158 182.032L24.3518 182.244C23.2905 169.122 13.2815 157.745 0 157.851L0.132662 26.8921L1.34141 25.102C15.8316 24.3132 21.7574 14.1799 24.9267 0.906478L373.635 0.132813C378.337 0.997481 377.983 7.65697 379.973 11.8134C384.705 21.7192 391 23.0542 400.684 26.1488ZM397.795 27.605C389.879 26.8314 382.347 22.1288 378.47 14.8777C376.067 10.4027 376.657 4.07692 372.161 3.16674L27.3737 3.09091C24.0275 15.8486 15.9643 26.088 2.80075 28.3331L3.08082 153.938C8.34329 157.745 14.1954 157.973 19.1041 163.237C23.3789 167.833 24.5139 174.022 27.4621 179.225L373.443 178.952C379.133 167.332 384.337 157.639 398.046 155.53L397.81 27.605H397.795Z" fill="black"/>
<path d="M399.181 27.4407L399.474 157.134C385.955 160.548 377.498 166.954 375.83 181.96L25.6436 182.171C24.5902 169.164 14.6555 157.886 1.47266 157.991L1.60433 28.1775L2.8041 26.4032C17.1867 25.6213 23.0685 15.5766 26.2142 2.41924L372.333 1.65234C377 2.50945 376.649 9.11069 378.624 13.2308C383.321 23.0499 389.569 24.3732 399.181 27.4407ZM396.314 28.8843C388.457 28.1174 380.98 23.4559 377.132 16.2683C374.747 11.8324 375.332 5.56195 370.87 4.65973L28.643 4.58457C25.3217 17.2306 17.3184 27.3806 4.25261 29.606L4.5306 154.112C9.75398 157.886 15.5626 158.112 20.4349 163.33C24.6779 167.886 25.8046 174.021 28.7308 179.179L372.143 178.908C377.79 167.39 382.955 157.781 396.562 155.691L396.328 28.8843H396.314Z" fill="black"/>
<path d="M397.711 27.2201L398.002 155.824C384.582 159.209 376.188 165.561 374.532 180.441L26.9402 180.65C25.8945 167.752 16.0334 156.569 2.94824 156.674L3.07894 27.9507L4.26983 26.1913C18.5459 25.4159 24.3841 15.4557 27.5065 2.40889L371.062 1.64844C375.694 2.49834 375.346 9.04411 377.306 13.1296C381.968 22.8662 388.17 24.1784 397.711 27.2201ZM394.865 28.6515C387.066 27.8911 379.645 23.2688 375.825 16.1415C373.458 11.7429 374.039 5.52519 369.609 4.63055L29.9174 4.55602C26.6207 17.0958 18.6766 27.1604 5.70761 29.3672L5.98353 152.827C11.1682 156.569 16.9338 156.793 21.77 161.967C25.9816 166.485 27.0999 172.568 30.0045 177.683L370.873 177.414C376.479 165.993 381.605 156.465 395.112 154.392L394.879 28.6515H394.865Z" fill="black"/>
<path d="M92.0746 63.896L91.1089 65.7137V71.8203H87.9846V51.9384H91.1089V60.6013L95.2557 51.9384H98.3232L93.9776 60.8001L98.3232 71.8203H95.1137L92.0746 63.896ZM102.585 67.2475C102.585 67.967 102.727 68.4783 103.011 68.7812C103.314 69.0653 103.712 69.2073 104.204 69.2073C104.697 69.2073 105.085 69.0653 105.369 68.7812C105.672 68.4783 105.823 67.967 105.823 67.2475V56.5113C105.823 55.7917 105.672 55.2899 105.369 55.0059C105.085 54.703 104.697 54.5515 104.204 54.5515C103.712 54.5515 103.314 54.703 103.011 55.0059C102.727 55.2899 102.585 55.7917 102.585 56.5113V67.2475ZM99.4611 56.7101C99.4611 55.1006 99.8682 53.8698 100.682 53.0177C101.497 52.1467 102.671 51.7112 104.204 51.7112C105.738 51.7112 106.912 52.1467 107.726 53.0177C108.541 53.8698 108.948 55.1006 108.948 56.7101V67.0487C108.948 68.6581 108.541 69.8984 107.726 70.7694C106.912 71.6215 105.738 72.0475 104.204 72.0475C102.671 72.0475 101.497 71.6215 100.682 70.7694C99.8682 69.8984 99.4611 68.6581 99.4611 67.0487V56.7101ZM114.047 71.8203H110.923V51.9384H114.047V60.4592H117.598V51.9384L120.779 51.9384V71.8203H117.598V63.2995H114.047V71.8203ZM132.076 64.4072V67.0487C132.076 68.6581 131.679 69.8984 130.883 70.7694C130.107 71.6215 128.952 72.0475 127.418 72.0475C125.884 72.0475 124.72 71.6215 123.925 70.7694C123.148 69.8984 122.76 68.6581 122.76 67.0487V56.7101C122.76 55.1006 123.148 53.8698 123.925 53.0177C124.72 52.1467 125.884 51.7112 127.418 51.7112C128.952 51.7112 130.107 52.1467 130.883 53.0177C131.679 53.8698 132.076 55.1006 132.076 56.7101V58.6415H129.122V56.5113C129.122 55.7917 128.971 55.2899 128.668 55.0059C128.384 54.703 127.996 54.5515 127.503 54.5515C127.011 54.5515 126.613 54.703 126.311 55.0059C126.026 55.2899 125.884 55.7917 125.884 56.5113V67.2475C125.884 67.967 126.026 68.4688 126.311 68.7528C126.613 69.0368 127.011 69.1789 127.503 69.1789C127.996 69.1789 128.384 69.0368 128.668 68.7528C128.971 68.4688 129.122 67.967 129.122 67.2475V64.4072H132.076ZM133.204 51.9384H142.861V54.7787H139.594V71.8203H136.47V54.7787H133.204V51.9384ZM154.374 71.8203H151.221L150.681 68.2132H146.847L146.307 71.8203H143.439L146.62 51.9384H151.193L154.374 71.8203ZM147.245 65.5149H150.255L148.75 55.4604L147.245 65.5149ZM158.926 71.8203H155.802V51.9384H158.926V60.4592H162.476V51.9384H165.657V71.8203H162.476V63.2995H158.926V71.8203ZM167.071 51.9384H176.728V54.7787H173.461V71.8203H170.337V54.7787H167.071V51.9384ZM181.367 71.8203H178.158V51.9384H180.941V63.8392L184.151 51.9384H188.07V71.8203H185.258V57.4202L181.367 71.8203ZM193.458 71.8203H190.334V51.9384H193.458V60.4592L197.009 60.4592V51.9384H200.19V71.8203H197.009V63.2995L193.458 63.2995V71.8203ZM215.897 64.4072V67.0487C215.897 68.6581 215.5 69.8984 214.705 70.7694C213.928 71.6215 212.773 72.0475 211.239 72.0475C209.706 72.0475 208.541 71.6215 207.746 70.7694C206.97 69.8984 206.581 68.6581 206.581 67.0487V56.7101C206.581 55.1006 206.97 53.8698 207.746 53.0177C208.541 52.1467 209.706 51.7112 211.239 51.7112C212.773 51.7112 213.928 52.1467 214.705 53.0177C215.5 53.8698 215.897 55.1006 215.897 56.7101V58.6415H212.944V56.5113C212.944 55.7917 212.792 55.2899 212.489 55.0059C212.205 54.703 211.817 54.5515 211.325 54.5515C210.832 54.5515 210.435 54.703 210.132 55.0059C209.848 55.2899 209.706 55.7917 209.706 56.5113V67.2475C209.706 67.967 209.848 68.4688 210.132 68.7528C210.435 69.0368 210.832 69.1789 211.325 69.1789C211.817 69.1789 212.205 69.0368 212.489 68.7528C212.792 68.4688 212.944 67.967 212.944 67.2475V64.4072H215.897ZM221.001 60.3172H225.29V63.1575H221.001V68.98H226.398V71.8203H217.877V51.9384H226.398V54.7787H221.001V60.3172ZM232.852 51.9384C234.423 51.9384 235.588 52.355 236.345 53.1882C237.122 54.0213 237.51 55.2426 237.51 56.8521V59.4367C237.51 61.0462 237.122 62.2675 236.345 63.1007C235.588 63.9338 234.423 64.3504 232.852 64.3504H231.375V71.8203H228.251V51.9384H232.852ZM231.375 54.7787V61.5101H232.852C233.344 61.5101 233.723 61.3776 233.988 61.1125C234.253 60.8474 234.386 60.3551 234.386 59.6356V56.6533C234.386 55.9337 234.253 55.4414 233.988 55.1763C233.723 54.9112 233.344 54.7787 232.852 54.7787H231.375ZM242.054 71.8203H238.929V51.9384H247.195V54.7787H242.054V71.8203ZM251.734 60.3172H256.023V63.1575H251.734V68.98H257.13V71.8203H248.61V51.9384H257.13V54.7787H251.734V60.3172ZM262.108 60.3172H266.396V63.1575H262.108V68.98H267.504V71.8203H258.983V51.9384H267.504V54.7787H262.108V60.3172ZM274.072 51.9384C275.7 51.9384 276.874 52.3171 277.594 53.0745C278.332 53.8319 278.701 54.9775 278.701 56.5113V57.2213C278.701 58.2438 278.54 59.0864 278.219 59.7492C277.897 60.4119 277.385 60.9042 276.685 61.2261C277.537 61.548 278.133 62.0782 278.474 62.8167C278.834 63.5362 279.014 64.4261 279.014 65.4865V67.1055C279.014 68.6392 278.616 69.8132 277.821 70.6274C277.026 71.4227 275.842 71.8203 274.271 71.8203H269.357V51.9384H274.072ZM272.481 62.8735V68.98H274.271C274.801 68.98 275.198 68.838 275.463 68.554C275.747 68.27 275.889 67.7587 275.889 67.0203V65.2877C275.889 64.3599 275.729 63.7255 275.407 63.3847C275.104 63.0439 274.592 62.8735 273.873 62.8735H272.481ZM272.481 54.7787V60.0332H273.702C274.289 60.0332 274.744 59.8817 275.066 59.5788C275.407 59.2758 275.577 58.7267 275.577 57.9314V56.8237C275.577 56.1042 275.445 55.5834 275.179 55.2615C274.933 54.9396 274.536 54.7787 273.987 54.7787H272.481ZM284.077 71.8203H280.868V51.9384H283.651V63.8392L286.861 51.9384H290.78V71.8203H287.968V57.4202L284.077 71.8203ZM295.458 51.9384V59.6072C295.458 60.3267 295.601 60.8285 295.885 61.1125C296.187 61.3965 296.585 61.5385 297.077 61.5385C297.551 61.5385 297.93 61.4155 298.214 61.1693C298.498 60.9042 298.659 60.4592 298.696 59.8344V51.9384L301.821 51.9384V71.8203H298.696V64.18C298.431 64.2747 298.157 64.3409 297.873 64.3788C297.608 64.3977 297.314 64.4072 296.992 64.4072C295.458 64.4072 294.294 63.9812 293.499 63.1291C292.722 62.2581 292.334 61.0178 292.334 59.4083V51.9384H295.458ZM128.873 95.4072V98.0487C128.873 99.6581 128.475 100.898 127.68 101.769C126.903 102.621 125.748 103.048 124.215 103.048C122.681 103.048 121.516 102.621 120.721 101.769C119.945 100.898 119.557 99.6581 119.557 98.0487V87.7101C119.557 86.1006 119.945 84.8698 120.721 84.0177C121.516 83.1467 122.681 82.7112 124.215 82.7112C125.748 82.7112 126.903 83.1467 127.68 84.0177C128.475 84.8698 128.873 86.1006 128.873 87.7101V89.6415H125.919V87.5113C125.919 86.7917 125.767 86.2899 125.464 86.0059C125.18 85.703 124.792 85.5515 124.3 85.5515C123.808 85.5515 123.41 85.703 123.107 86.0059C122.823 86.2899 122.681 86.7917 122.681 87.5113V98.2475C122.681 98.967 122.823 99.4688 123.107 99.7528C123.41 100.037 123.808 100.179 124.3 100.179C124.792 100.179 125.18 100.037 125.464 99.7528C125.767 99.4688 125.919 98.967 125.919 98.2475V95.4072H128.873ZM130 82.9384H139.657V85.7787H136.391V102.82H133.266V85.7787H130V82.9384ZM151.17 102.82H148.017L147.478 99.2132H143.643L143.104 102.82H140.235L143.416 82.9384H147.989L151.17 102.82ZM144.041 96.5149H147.052L145.546 86.4604L144.041 96.5149ZM155.722 102.82H152.598V82.9384H155.722V91.4592H159.273V82.9384H162.454V102.82H159.273V94.2995H155.722V102.82ZM167.929 102.82H164.719V82.9384H167.503V94.8392L170.712 82.9384H174.632V102.82H171.82V88.4202L167.929 102.82ZM185.928 95.4072V98.0487C185.928 99.6581 185.53 100.898 184.735 101.769C183.958 102.621 182.803 103.048 181.27 103.048C179.736 103.048 178.571 102.621 177.776 101.769C177 100.898 176.612 99.6581 176.612 98.0487V87.7101C176.612 86.1006 177 84.8698 177.776 84.0177C178.571 83.1467 179.736 82.7112 181.27 82.7112C182.803 82.7112 183.958 83.1467 184.735 84.0177C185.53 84.8698 185.928 86.1006 185.928 87.7101V89.6415H182.974V87.5113C182.974 86.7917 182.822 86.2899 182.519 86.0059C182.235 85.703 181.847 85.5515 181.355 85.5515C180.863 85.5515 180.465 85.703 180.162 86.0059C179.878 86.2899 179.736 86.7917 179.736 87.5113V98.2475C179.736 98.967 179.878 99.4688 180.162 99.7528C180.465 100.037 180.863 100.179 181.355 100.179C181.847 100.179 182.235 100.037 182.519 99.7528C182.822 99.4688 182.974 98.967 182.974 98.2475V95.4072H185.928ZM196.684 85.7787H193.048V97.8782C193.048 98.8818 192.925 99.7055 192.679 100.349C192.433 100.993 192.101 101.504 191.685 101.883C191.268 102.243 190.785 102.498 190.236 102.65C189.706 102.801 189.147 102.877 188.56 102.877C188.276 102.877 188.021 102.877 187.794 102.877C187.566 102.877 187.32 102.858 187.055 102.82V99.98C187.226 99.999 187.405 100.008 187.595 100.008C187.784 100.008 187.964 100.008 188.134 100.008C188.627 100.008 189.043 99.8854 189.384 99.6392C189.744 99.3931 189.924 98.8818 189.924 98.1055V82.9384H199.808V102.82H196.684V85.7787ZM212.164 102.82H209.011L208.471 99.2132L204.637 99.2132L204.097 102.82H201.229L204.41 82.9384L208.983 82.9384L212.164 102.82ZM205.035 96.5149L208.045 96.5149L206.54 86.4604L205.035 96.5149ZM218.306 82.9384C219.935 82.9384 221.109 83.3171 221.828 84.0745C222.567 84.8319 222.936 85.9775 222.936 87.5113V88.2213C222.936 89.2438 222.775 90.0864 222.453 90.7492C222.131 91.4119 221.62 91.9042 220.92 92.2261C221.772 92.548 222.368 93.0782 222.709 93.8167C223.069 94.5362 223.249 95.4261 223.249 96.4865V98.1055C223.249 99.6392 222.851 100.813 222.056 101.627C221.26 102.423 220.077 102.82 218.505 102.82H213.592V82.9384H218.306ZM216.716 93.8735V99.98H218.505C219.035 99.98 219.433 99.838 219.698 99.554C219.982 99.27 220.124 98.7587 220.124 98.0203V96.2877C220.124 95.3599 219.963 94.7255 219.641 94.3847C219.338 94.0439 218.827 93.8735 218.108 93.8735H216.716ZM216.716 85.7787V91.0332H217.937C218.524 91.0332 218.979 90.8817 219.301 90.5788C219.641 90.2758 219.812 89.7267 219.812 88.9314V87.8237C219.812 87.1042 219.679 86.5834 219.414 86.2615C219.168 85.9396 218.77 85.7787 218.221 85.7787H216.716ZM234.135 95.4072V98.0487C234.135 99.6581 233.737 100.898 232.942 101.769C232.165 102.621 231.01 103.048 229.477 103.048C227.943 103.048 226.778 102.621 225.983 101.769C225.207 100.898 224.818 99.6581 224.818 98.0487V87.7101C224.818 86.1006 225.207 84.8698 225.983 84.0177C226.778 83.1467 227.943 82.7112 229.477 82.7112C231.01 82.7112 232.165 83.1467 232.942 84.0177C233.737 84.8698 234.135 86.1006 234.135 87.7101V89.6415H231.181V87.5113C231.181 86.7917 231.029 86.2899 230.726 86.0059C230.442 85.703 230.054 85.5515 229.562 85.5515C229.069 85.5515 228.672 85.703 228.369 86.0059C228.085 86.2899 227.943 86.7917 227.943 87.5113V98.2475C227.943 98.967 228.085 99.4688 228.369 99.7528C228.672 100.037 229.069 100.179 229.562 100.179C230.054 100.179 230.442 100.037 230.726 99.7528C231.029 99.4688 231.181 98.967 231.181 98.2475V95.4072H234.135ZM240.204 94.896L239.238 96.7137V102.82H236.114V82.9384H239.238V91.6013L243.385 82.9384H246.453L242.107 91.8001L246.453 102.82H243.243L240.204 94.896ZM251.084 102.82H247.875V82.9384H250.658V94.8392L253.868 82.9384H257.787V102.82H254.975V88.4202L251.084 102.82ZM263.261 102.82H260.051V82.9384H262.835V94.8392L266.044 82.9384H269.964V102.82H267.152V88.4202L263.261 102.82ZM268.487 79.5017V81.8307H261.613V79.5017H268.487Z" fill="white"/>
<path d="M82.2024 120.379C82.4196 120.379 82.5282 120.495 82.5282 120.727C82.5282 120.814 82.5209 120.864 82.5065 120.879L81.0078 125.049C81.9056 127.554 82.4051 128.98 82.5065 129.328C82.5065 129.545 82.3906 129.654 82.159 129.654C82.0286 129.654 81.92 129.581 81.8332 129.437L79.1399 125.397C79.053 125.266 79.0096 125.143 79.0096 125.027C79.0096 124.912 79.0603 124.774 79.1616 124.615L81.8332 120.662C81.92 120.474 82.0431 120.379 82.2024 120.379ZM79.7481 119.771C79.8349 119.771 79.9146 119.807 79.987 119.88C80.0739 119.952 80.1173 120.025 80.1173 120.097C80.1173 120.141 80.0811 120.256 80.0087 120.445L77.6413 125.006L80.0739 129.784C80.1173 129.842 80.139 129.914 80.139 130.001C80.139 130.233 80.0159 130.349 79.7698 130.349C79.6105 130.349 79.4802 130.284 79.3788 130.153L75.5127 125.397C75.339 125.151 75.3534 124.89 75.5562 124.615L79.3788 119.967C79.4802 119.836 79.6033 119.771 79.7481 119.771ZM102.069 115.427C101.432 115.514 100.976 115.688 100.701 115.949C100.426 116.195 100.288 116.571 100.288 117.078V127.677C100.288 128.256 100.404 128.662 100.636 128.894C100.867 129.125 101.36 129.328 102.113 129.502C102.373 129.545 102.504 129.675 102.504 129.893C102.504 130.153 102.373 130.284 102.113 130.284C102.098 130.284 102.04 130.276 101.939 130.262C101.837 130.262 101.664 130.247 101.418 130.218C101.171 130.204 100.918 130.189 100.657 130.175C99.6148 130.103 98.9198 130.066 98.5723 130.066C98.1523 130.066 97.0808 130.139 95.3577 130.284C95.2274 130.284 95.1261 130.24 95.0537 130.153C94.9813 130.081 94.9451 129.994 94.9451 129.893C94.9451 129.675 95.0826 129.545 95.3577 129.502C96.0383 129.386 96.5016 129.198 96.7478 128.937C97.0084 128.676 97.1388 128.271 97.1388 127.721V115.949H88.9722V127.721C88.9722 128.271 89.0952 128.676 89.3414 128.937C89.602 129.198 90.0726 129.386 90.7532 129.502C91.0283 129.545 91.1658 129.675 91.1658 129.893C91.1658 129.994 91.1296 130.081 91.0572 130.153C90.9848 130.24 90.8835 130.284 90.7532 130.284C89.117 130.139 88.0454 130.066 87.5387 130.066C86.5685 130.066 85.3884 130.139 83.9983 130.284C83.7377 130.284 83.6074 130.153 83.6074 129.893C83.6074 129.675 83.7377 129.545 83.9983 129.502C84.7368 129.328 85.2219 129.125 85.4536 128.894C85.6997 128.647 85.8228 128.242 85.8228 127.677V117.078C85.8228 116.571 85.6852 116.195 85.4101 115.949C85.135 115.688 84.6789 115.514 84.0418 115.427C83.7667 115.413 83.6291 115.283 83.6291 115.036C83.6291 114.776 83.7667 114.645 84.0418 114.645C85.4753 114.79 86.6264 114.863 87.4952 114.863H98.6157C99.3107 114.863 100.462 114.79 102.069 114.645C102.344 114.645 102.482 114.776 102.482 115.036C102.482 115.283 102.344 115.413 102.069 115.427ZM103.572 122.226C103.297 122.226 103.159 122.095 103.159 121.835C103.159 121.617 103.297 121.487 103.572 121.444C104.354 121.313 105.194 120.922 106.092 120.271C106.135 120.242 106.215 120.162 106.33 120.032C106.461 119.887 106.577 119.757 106.678 119.641C106.794 119.525 106.866 119.467 106.895 119.467C107.054 119.467 107.156 119.525 107.199 119.641C107.257 119.742 107.286 119.931 107.286 120.206V121.487C108.488 120.401 109.596 119.858 110.609 119.858C111.869 119.858 112.861 120.372 113.585 121.4C114.309 122.428 114.671 123.594 114.671 124.897C114.671 126.533 114.186 127.88 113.216 128.937C112.245 129.98 111.007 130.501 109.502 130.501C108.778 130.501 108.039 130.284 107.286 129.849V133.368C107.286 133.773 107.416 134.063 107.677 134.237C107.938 134.425 108.372 134.584 108.98 134.714C109.255 134.772 109.393 134.903 109.393 135.105C109.393 135.207 109.357 135.294 109.284 135.366C109.212 135.453 109.111 135.496 108.98 135.496C107.923 135.352 106.939 135.279 106.026 135.279C105.418 135.279 104.607 135.352 103.594 135.496C103.319 135.496 103.181 135.366 103.181 135.105C103.181 134.903 103.319 134.772 103.594 134.714C104.028 134.613 104.318 134.468 104.463 134.28C104.607 134.106 104.68 133.824 104.68 133.433V123.29C104.68 122.928 104.6 122.66 104.441 122.486C104.282 122.312 103.992 122.226 103.572 122.226ZM109.024 121.683C108.358 121.683 107.778 121.972 107.286 122.551V127.113C107.286 127.706 107.511 128.249 107.959 128.742C108.408 129.234 108.937 129.48 109.545 129.48C110.298 129.48 110.899 129.111 111.348 128.372C111.797 127.648 112.021 126.794 112.021 125.809C112.021 124.564 111.768 123.565 111.261 122.812C110.754 122.059 110.008 121.683 109.024 121.683ZM124.083 122.204V128.068C124.083 128.387 124.192 128.546 124.409 128.546C124.669 128.546 124.923 128.249 125.169 127.656C125.227 127.511 125.321 127.438 125.451 127.438C125.553 127.438 125.64 127.482 125.712 127.569C125.799 127.641 125.842 127.728 125.842 127.829C125.727 128.553 125.386 129.14 124.822 129.589C124.242 130.052 123.598 130.284 122.888 130.284C122.266 130.284 121.868 130.066 121.694 129.632C121.549 129.256 121.477 128.814 121.477 128.307C120.984 128.901 120.412 129.379 119.761 129.741C119.124 130.103 118.494 130.284 117.871 130.284C117.263 130.284 116.792 130.132 116.459 129.827C116.141 129.509 115.982 129.082 115.982 128.546C115.996 127.431 116.561 126.468 117.676 125.657C118.82 124.846 120.087 124.311 121.477 124.05V122.204C121.477 121.321 121.057 120.879 120.217 120.879C119.71 120.879 119.276 121.082 118.914 121.487C118.552 121.878 118.349 122.349 118.306 122.899C118.306 123.073 118.204 123.174 118.002 123.203L116.611 123.355C116.467 123.355 116.394 123.246 116.394 123.029C116.525 122.146 117.082 121.4 118.067 120.792C119.051 120.169 120.058 119.858 121.086 119.858C121.94 119.858 122.65 120.068 123.214 120.488C123.793 120.908 124.083 121.48 124.083 122.204ZM119.565 128.524C120.231 128.524 120.869 128.068 121.477 127.156V124.745C120.637 124.962 119.949 125.317 119.413 125.809C118.892 126.287 118.631 126.816 118.631 127.395C118.631 127.742 118.711 128.018 118.87 128.22C119.03 128.423 119.261 128.524 119.565 128.524ZM126.954 120.618C126.65 120.575 126.498 120.43 126.498 120.184C126.498 119.967 126.65 119.858 126.954 119.858C128.605 120.003 129.546 120.075 129.778 120.075C130.009 120.075 130.502 120.039 131.254 119.967C132.007 119.894 132.529 119.858 132.818 119.858C133.774 119.858 134.614 120.068 135.338 120.488C136.062 120.908 136.424 121.567 136.424 122.465C136.424 123.102 136.199 123.587 135.75 123.92C135.316 124.253 134.592 124.506 133.578 124.68C134.578 124.723 135.381 124.991 135.989 125.484C136.612 125.976 136.923 126.598 136.923 127.351C136.923 128.322 136.59 129.053 135.924 129.545C135.258 130.037 134.375 130.284 133.274 130.284C132.97 130.284 132.398 130.247 131.559 130.175C130.719 130.103 130.132 130.066 129.799 130.066C129.539 130.066 128.583 130.139 126.932 130.284C126.643 130.284 126.498 130.175 126.498 129.958C126.498 129.697 126.643 129.552 126.932 129.523C127.425 129.408 127.75 129.277 127.91 129.132C128.069 128.973 128.149 128.705 128.149 128.329V121.704C128.149 121.371 128.054 121.125 127.866 120.966C127.678 120.792 127.374 120.676 126.954 120.618ZM131.711 125.179H130.755V127.96C130.755 128.481 130.885 128.843 131.146 129.046C131.421 129.234 131.819 129.328 132.34 129.328C132.876 129.328 133.318 129.147 133.665 128.785C134.027 128.423 134.208 127.938 134.208 127.33C134.208 126.678 133.977 126.157 133.513 125.766C133.064 125.375 132.464 125.179 131.711 125.179ZM131.819 120.814C131.703 120.814 131.515 120.828 131.254 120.857C131.008 120.872 130.842 120.879 130.755 120.879V124.311H131.689C132.326 124.311 132.818 124.151 133.166 123.833C133.528 123.514 133.709 123.058 133.709 122.465C133.709 121.987 133.542 121.596 133.209 121.292C132.891 120.973 132.427 120.814 131.819 120.814ZM138.374 133.607C138.374 133.853 138.251 133.976 138.005 133.976C137.759 133.976 137.636 133.853 137.636 133.607L137.158 129.936C137.144 129.907 137.136 129.856 137.136 129.784C137.136 129.625 137.187 129.487 137.288 129.371C137.404 129.256 137.527 129.198 137.658 129.198H138.809C140.184 126.693 140.872 124.361 140.872 122.204C140.872 121.827 140.785 121.523 140.611 121.292C140.438 121.06 140.105 120.843 139.612 120.64C139.352 120.524 139.221 120.387 139.221 120.227C139.221 119.981 139.344 119.858 139.591 119.858C140.401 120.003 141.227 120.075 142.067 120.075H146.454C146.7 120.075 147.164 120.039 147.844 119.967C148.003 119.952 148.17 119.938 148.344 119.923C148.532 119.894 148.662 119.88 148.735 119.88C148.821 119.865 148.872 119.858 148.887 119.858C149.017 119.858 149.118 119.902 149.191 119.988C149.263 120.061 149.299 120.148 149.299 120.249C149.299 120.452 149.162 120.582 148.887 120.64C148.438 120.77 148.126 120.937 147.953 121.14C147.793 121.328 147.714 121.61 147.714 121.987V129.198H148.669C149.06 129.198 149.256 129.393 149.256 129.784V129.914C149.039 131.999 148.901 133.23 148.843 133.607C148.843 133.853 148.72 133.976 148.474 133.976C148.257 133.976 148.134 133.853 148.105 133.607L147.996 132.955C147.909 132.289 147.786 131.775 147.627 131.413C147.265 130.515 146.505 130.066 145.346 130.066H140.59C139.822 130.066 139.294 130.363 139.004 130.957C138.859 131.29 138.758 131.565 138.7 131.782C138.671 131.898 138.613 132.224 138.526 132.76C138.454 133.223 138.403 133.505 138.374 133.607ZM145.107 129.198V120.944H141.958C141.915 124.101 141.314 126.852 140.155 129.198L145.107 129.198ZM158.489 122.204V128.068C158.489 128.387 158.598 128.546 158.815 128.546C159.076 128.546 159.329 128.249 159.575 127.656C159.633 127.511 159.727 127.438 159.858 127.438C159.959 127.438 160.046 127.482 160.118 127.569C160.205 127.641 160.249 127.728 160.249 127.829C160.133 128.553 159.792 129.14 159.228 129.589C158.649 130.052 158.004 130.284 157.295 130.284C156.672 130.284 156.274 130.066 156.1 129.632C155.955 129.256 155.883 128.814 155.883 128.307C155.391 128.901 154.819 129.379 154.167 129.741C153.53 130.103 152.9 130.284 152.277 130.284C151.669 130.284 151.199 130.132 150.866 129.827C150.547 129.509 150.388 129.082 150.388 128.546C150.402 127.431 150.967 126.468 152.082 125.657C153.226 124.846 154.493 124.311 155.883 124.05V122.204C155.883 121.321 155.463 120.879 154.623 120.879C154.116 120.879 153.682 121.082 153.32 121.487C152.958 121.878 152.755 122.349 152.712 122.899C152.712 123.073 152.61 123.174 152.408 123.203L151.018 123.355C150.873 123.355 150.8 123.246 150.8 123.029C150.931 122.146 151.488 121.4 152.473 120.792C153.458 120.169 154.464 119.858 155.492 119.858C156.346 119.858 157.056 120.068 157.62 120.488C158.2 120.908 158.489 121.48 158.489 122.204ZM153.972 128.524C154.638 128.524 155.275 128.068 155.883 127.156V124.745C155.043 124.962 154.355 125.317 153.82 125.809C153.298 126.287 153.038 126.816 153.038 127.395C153.038 127.742 153.117 128.018 153.277 128.22C153.436 128.423 153.667 128.524 153.972 128.524ZM167.051 128.22V121.987C167.051 121.61 166.964 121.328 166.79 121.14C166.631 120.937 166.327 120.77 165.878 120.64C165.603 120.582 165.465 120.452 165.465 120.249C165.465 120.148 165.501 120.061 165.574 119.988C165.646 119.902 165.748 119.858 165.878 119.858L167.051 119.988C167.529 120.046 167.948 120.075 168.31 120.075H175.282C175.644 120.075 176.064 120.046 176.542 119.988L177.715 119.858C177.845 119.858 177.947 119.902 178.019 119.988C178.092 120.061 178.128 120.148 178.128 120.249C178.128 120.452 177.99 120.582 177.715 120.64C177.266 120.77 176.955 120.937 176.781 121.14C176.622 121.328 176.542 121.61 176.542 121.987V128.22C176.542 128.611 176.615 128.901 176.759 129.089C176.904 129.263 177.194 129.4 177.628 129.502C177.903 129.56 178.041 129.69 178.041 129.893C178.041 130.153 177.903 130.284 177.628 130.284C176.455 130.139 175.644 130.066 175.196 130.066C174.602 130.066 173.82 130.139 172.85 130.284C172.72 130.284 172.618 130.24 172.546 130.153C172.473 130.081 172.437 129.994 172.437 129.893C172.437 129.69 172.575 129.56 172.85 129.502C173.284 129.371 173.574 129.219 173.719 129.046C173.863 128.857 173.936 128.561 173.936 128.155V120.944H169.657V128.155C169.657 128.561 169.729 128.857 169.874 129.046C170.019 129.219 170.309 129.371 170.743 129.502C171.018 129.56 171.156 129.69 171.156 129.893C171.156 129.994 171.12 130.081 171.047 130.153C170.975 130.24 170.873 130.284 170.743 130.284L169.701 130.153C169.223 130.095 168.788 130.066 168.397 130.066C168.079 130.066 167.268 130.139 165.965 130.284C165.69 130.284 165.552 130.153 165.552 129.893C165.552 129.69 165.69 129.56 165.965 129.502C166.399 129.4 166.689 129.263 166.834 129.089C166.978 128.901 167.051 128.611 167.051 128.22ZM183.994 119.858C184.964 119.858 185.847 120.148 186.644 120.727C187.44 121.292 187.853 122.066 187.882 123.051C187.882 123.384 187.708 123.55 187.361 123.55H181.735C181.706 123.84 181.692 124.137 181.692 124.441C181.692 125.368 181.974 126.244 182.539 127.069C183.103 127.88 183.871 128.285 184.841 128.285C185.304 128.285 185.768 128.177 186.231 127.96C186.709 127.728 187.056 127.446 187.274 127.113C187.404 126.924 187.52 126.83 187.621 126.83C187.867 126.83 187.99 126.946 187.99 127.178C187.99 127.265 187.983 127.322 187.969 127.351C187.723 128.177 187.18 128.872 186.34 129.437C185.5 130.001 184.58 130.284 183.581 130.284C182.191 130.284 181.12 129.799 180.367 128.828C179.599 127.844 179.216 126.671 179.216 125.31C179.216 123.645 179.672 122.32 180.584 121.335C181.496 120.35 182.633 119.858 183.994 119.858ZM183.864 120.836C182.778 120.836 182.097 121.516 181.822 122.877H184.255C184.863 122.877 185.167 122.573 185.167 121.965C185.167 121.617 185.044 121.342 184.798 121.14C184.551 120.937 184.24 120.836 183.864 120.836ZM189.27 122.226C188.995 122.226 188.857 122.095 188.857 121.835C188.857 121.617 188.995 121.487 189.27 121.444C190.052 121.313 190.892 120.922 191.789 120.271C191.833 120.242 191.912 120.162 192.028 120.032C192.159 119.887 192.274 119.757 192.376 119.641C192.492 119.525 192.564 119.467 192.593 119.467C192.752 119.467 192.854 119.525 192.897 119.641C192.955 119.742 192.984 119.931 192.984 120.206V121.487C194.186 120.401 195.293 119.858 196.307 119.858C197.567 119.858 198.559 120.372 199.283 121.4C200.007 122.428 200.369 123.594 200.369 124.897C200.369 126.533 199.884 127.88 198.913 128.937C197.943 129.98 196.705 130.501 195.199 130.501C194.475 130.501 193.737 130.284 192.984 129.849V133.368C192.984 133.773 193.114 134.063 193.375 134.237C193.635 134.425 194.07 134.584 194.678 134.714C194.953 134.772 195.091 134.903 195.091 135.105C195.091 135.207 195.054 135.294 194.982 135.366C194.91 135.453 194.808 135.496 194.678 135.496C193.621 135.352 192.636 135.279 191.724 135.279C191.116 135.279 190.305 135.352 189.292 135.496C189.016 135.496 188.879 135.366 188.879 135.105C188.879 134.903 189.016 134.772 189.292 134.714C189.726 134.613 190.016 134.468 190.16 134.28C190.305 134.106 190.378 133.824 190.378 133.433V123.29C190.378 122.928 190.298 122.66 190.139 122.486C189.979 122.312 189.69 122.226 189.27 122.226ZM194.721 121.683C194.055 121.683 193.476 121.972 192.984 122.551V127.113C192.984 127.706 193.208 128.249 193.657 128.742C194.106 129.234 194.635 129.48 195.243 129.48C195.996 129.48 196.597 129.111 197.045 128.372C197.494 127.648 197.719 126.794 197.719 125.809C197.719 124.564 197.465 123.565 196.959 122.812C196.452 122.059 195.706 121.683 194.721 121.683ZM206.458 119.858C207.428 119.858 208.311 120.148 209.108 120.727C209.904 121.292 210.317 122.066 210.346 123.051C210.346 123.384 210.172 123.55 209.824 123.55H204.199C204.17 123.84 204.155 124.137 204.155 124.441C204.155 125.368 204.438 126.244 205.003 127.069C205.567 127.88 206.335 128.285 207.305 128.285C207.768 128.285 208.232 128.177 208.695 127.96C209.173 127.728 209.52 127.446 209.737 127.113C209.868 126.924 209.984 126.83 210.085 126.83C210.331 126.83 210.454 126.946 210.454 127.178C210.454 127.265 210.447 127.322 210.432 127.351C210.186 128.177 209.643 128.872 208.803 129.437C207.964 130.001 207.044 130.284 206.045 130.284C204.655 130.284 203.583 129.799 202.831 128.828C202.063 127.844 201.679 126.671 201.679 125.31C201.679 123.645 202.136 122.32 203.048 121.335C203.96 120.35 205.097 119.858 206.458 119.858ZM206.327 120.836C205.241 120.836 204.561 121.516 204.286 122.877H206.718C207.327 122.877 207.631 122.573 207.631 121.965C207.631 121.617 207.508 121.342 207.261 121.14C207.015 120.937 206.704 120.836 206.327 120.836ZM227.382 120.075C227.932 120.075 228.663 120.003 229.576 119.858C229.706 119.858 229.807 119.902 229.88 119.988C229.952 120.061 229.988 120.148 229.988 120.249C229.988 120.452 229.851 120.582 229.576 120.64C228.374 120.944 227.389 121.436 226.622 122.117C226.448 122.247 226.158 122.501 225.753 122.877L224.928 123.616L228.663 128.199C229.301 128.951 229.844 129.386 230.292 129.502C230.568 129.56 230.705 129.69 230.705 129.893C230.705 129.994 230.669 130.081 230.596 130.153C230.524 130.24 230.423 130.284 230.292 130.284C229.047 130.139 228.258 130.066 227.925 130.066C227.592 130.066 226.752 130.139 225.405 130.284C225.13 130.284 224.993 130.153 224.993 129.893C224.993 129.733 225.13 129.603 225.405 129.502C225.623 129.386 225.731 129.212 225.731 128.98C225.731 128.72 225.666 128.503 225.536 128.329L223.32 125.484C223.103 125.208 222.662 125.071 221.995 125.071V128.155C221.995 128.532 222.075 128.821 222.234 129.024C222.408 129.212 222.719 129.371 223.168 129.502C223.443 129.56 223.581 129.69 223.581 129.893C223.581 129.994 223.545 130.081 223.472 130.153C223.4 130.24 223.299 130.284 223.168 130.284C221.88 130.139 221.069 130.066 220.736 130.066C220.128 130.066 219.317 130.139 218.303 130.284C218.028 130.284 217.89 130.153 217.89 129.893C217.89 129.69 218.028 129.56 218.303 129.502C218.766 129.415 219.063 129.284 219.194 129.111C219.324 128.937 219.389 128.64 219.389 128.22V125.071C218.723 125.071 218.281 125.208 218.064 125.484L215.849 128.329C215.718 128.503 215.653 128.72 215.653 128.98C215.653 129.212 215.762 129.386 215.979 129.502C216.254 129.603 216.392 129.733 216.392 129.893C216.392 130.153 216.254 130.284 215.979 130.284C214.632 130.139 213.793 130.066 213.46 130.066C213.127 130.066 212.337 130.139 211.092 130.284C210.962 130.284 210.86 130.24 210.788 130.153C210.716 130.081 210.679 129.994 210.679 129.893C210.679 129.69 210.817 129.56 211.092 129.502C211.541 129.386 212.084 128.951 212.721 128.199L216.457 123.616L215.632 122.877C215.226 122.501 214.937 122.247 214.763 122.117C213.995 121.436 213.011 120.944 211.809 120.64C211.534 120.582 211.396 120.452 211.396 120.249C211.396 120.148 211.432 120.061 211.505 119.988C211.577 119.902 211.679 119.858 211.809 119.858C212.721 120.003 213.452 120.075 214.003 120.075C214.582 120.075 215.335 120.003 216.261 119.858C216.537 119.858 216.674 119.988 216.674 120.249C216.674 120.423 216.537 120.553 216.261 120.64C215.957 120.756 215.805 120.915 215.805 121.118C215.805 121.306 215.994 121.588 216.37 121.965L217.869 123.442C218.376 123.949 218.882 124.202 219.389 124.202V121.922C219.389 121.502 219.324 121.212 219.194 121.053C219.063 120.879 218.766 120.741 218.303 120.64C218.028 120.582 217.89 120.452 217.89 120.249C217.89 119.988 218.028 119.858 218.303 119.858C219.317 120.003 220.128 120.075 220.736 120.075C221.069 120.075 221.88 120.003 223.168 119.858C223.299 119.858 223.4 119.902 223.472 119.988C223.545 120.061 223.581 120.148 223.581 120.249C223.581 120.452 223.443 120.582 223.168 120.64C222.719 120.77 222.408 120.937 222.234 121.14C222.075 121.328 221.995 121.61 221.995 121.987V124.202C222.502 124.202 223.009 123.949 223.516 123.442L225.014 121.965C225.391 121.588 225.579 121.306 225.579 121.118C225.579 120.915 225.427 120.756 225.123 120.64C224.848 120.553 224.71 120.423 224.71 120.249C224.71 119.988 224.848 119.858 225.123 119.858C226.05 120.003 226.803 120.075 227.382 120.075ZM235.243 121.987V128.394L239.369 120.206C239.471 119.974 239.579 119.858 239.695 119.858C240.332 120.003 240.803 120.075 241.107 120.075C241.339 120.075 242.041 120.003 243.214 119.858C243.489 119.858 243.626 119.988 243.626 120.249C243.626 120.452 243.489 120.582 243.214 120.64C242.779 120.741 242.49 120.886 242.345 121.074C242.2 121.248 242.128 121.531 242.128 121.922V128.22C242.128 128.611 242.2 128.901 242.345 129.089C242.49 129.263 242.779 129.4 243.214 129.502C243.489 129.56 243.626 129.69 243.626 129.893C243.626 130.153 243.489 130.284 243.214 130.284C242.041 130.139 241.23 130.066 240.781 130.066C240.187 130.066 239.406 130.139 238.435 130.284C238.305 130.284 238.204 130.24 238.131 130.153C238.059 130.081 238.023 129.994 238.023 129.893C238.023 129.69 238.16 129.56 238.435 129.502C238.87 129.371 239.159 129.219 239.304 129.046C239.449 128.857 239.521 128.561 239.521 128.155V121.835L235.351 130.088C235.308 130.218 235.243 130.284 235.156 130.284C235.112 130.284 234.902 130.247 234.526 130.175C234.164 130.103 233.896 130.066 233.722 130.066C233.577 130.066 232.853 130.139 231.55 130.284C231.275 130.284 231.138 130.153 231.138 129.893C231.138 129.69 231.275 129.56 231.55 129.502C231.985 129.4 232.274 129.263 232.419 129.089C232.564 128.901 232.636 128.611 232.636 128.22V121.922C232.636 121.531 232.564 121.248 232.419 121.074C232.274 120.886 231.985 120.741 231.55 120.64C231.275 120.582 231.138 120.452 231.138 120.249C231.138 119.988 231.275 119.858 231.55 119.858C232.853 120.003 233.664 120.075 233.983 120.075C234.374 120.075 234.808 120.046 235.286 119.988L236.329 119.858C236.459 119.858 236.56 119.902 236.633 119.988C236.705 120.061 236.741 120.148 236.741 120.249C236.741 120.452 236.604 120.582 236.329 120.64C235.894 120.77 235.605 120.93 235.46 121.118C235.315 121.292 235.243 121.581 235.243 121.987ZM244.957 120.618C244.653 120.575 244.501 120.43 244.501 120.184C244.501 119.967 244.653 119.858 244.957 119.858C246.608 120.003 247.549 120.075 247.781 120.075C248.012 120.075 248.505 120.039 249.258 119.967C250.011 119.894 250.532 119.858 250.822 119.858C251.777 119.858 252.617 120.068 253.341 120.488C254.065 120.908 254.427 121.567 254.427 122.465C254.427 123.102 254.203 123.587 253.754 123.92C253.319 124.253 252.595 124.506 251.582 124.68C252.581 124.723 253.384 124.991 253.993 125.484C254.615 125.976 254.927 126.598 254.927 127.351C254.927 128.322 254.594 129.053 253.927 129.545C253.261 130.037 252.378 130.284 251.278 130.284C250.974 130.284 250.402 130.247 249.562 130.175C248.722 130.103 248.136 130.066 247.803 130.066C247.542 130.066 246.586 130.139 244.936 130.284C244.646 130.284 244.501 130.175 244.501 129.958C244.501 129.697 244.646 129.552 244.936 129.523C245.428 129.408 245.754 129.277 245.913 129.132C246.072 128.973 246.152 128.705 246.152 128.329V121.704C246.152 121.371 246.058 121.125 245.869 120.966C245.681 120.792 245.377 120.676 244.957 120.618ZM249.714 125.179H248.758V127.96C248.758 128.481 248.889 128.843 249.149 129.046C249.424 129.234 249.822 129.328 250.344 129.328C250.879 129.328 251.321 129.147 251.669 128.785C252.031 128.423 252.212 127.938 252.212 127.33C252.212 126.678 251.98 126.157 251.517 125.766C251.068 125.375 250.467 125.179 249.714 125.179ZM249.822 120.814C249.707 120.814 249.518 120.828 249.258 120.857C249.012 120.872 248.845 120.879 248.758 120.879V124.311H249.692C250.329 124.311 250.822 124.151 251.169 123.833C251.531 123.514 251.712 123.058 251.712 122.465C251.712 121.987 251.546 121.596 251.213 121.292C250.894 120.973 250.431 120.814 249.822 120.814ZM264.55 122.204V128.068C264.55 128.387 264.659 128.546 264.876 128.546C265.137 128.546 265.39 128.249 265.636 127.656C265.694 127.511 265.788 127.438 265.918 127.438C266.02 127.438 266.107 127.482 266.179 127.569C266.266 127.641 266.309 127.728 266.309 127.829C266.194 128.553 265.853 129.14 265.289 129.589C264.709 130.052 264.065 130.284 263.356 130.284C262.733 130.284 262.335 130.066 262.161 129.632C262.016 129.256 261.944 128.814 261.944 128.307C261.451 128.901 260.879 129.379 260.228 129.741C259.591 130.103 258.961 130.284 258.338 130.284C257.73 130.284 257.26 130.132 256.927 129.827C256.608 129.509 256.449 129.082 256.449 128.546C256.463 127.431 257.028 126.468 258.143 125.657C259.287 124.846 260.554 124.311 261.944 124.05V122.204C261.944 121.321 261.524 120.879 260.684 120.879C260.177 120.879 259.743 121.082 259.381 121.487C259.019 121.878 258.816 122.349 258.773 122.899C258.773 123.073 258.671 123.174 258.469 123.203L257.079 123.355C256.934 123.355 256.861 123.246 256.861 123.029C256.992 122.146 257.549 121.4 258.534 120.792C259.518 120.169 260.525 119.858 261.553 119.858C262.407 119.858 263.117 120.068 263.681 120.488C264.261 120.908 264.55 121.48 264.55 122.204ZM260.032 128.524C260.698 128.524 261.336 128.068 261.944 127.156V124.745C261.104 124.962 260.416 125.317 259.88 125.809C259.359 126.287 259.098 126.816 259.098 127.395C259.098 127.742 259.178 128.018 259.337 128.22C259.497 128.423 259.728 128.524 260.032 128.524ZM274.263 120.64C273.988 120.582 273.85 120.452 273.85 120.249C273.85 120.148 273.886 120.061 273.959 119.988C274.031 119.902 274.132 119.858 274.263 119.858C275.233 120.003 276.015 120.075 276.608 120.075C277.057 120.075 277.868 120.003 279.041 119.858C279.316 119.858 279.454 119.988 279.454 120.249C279.454 120.452 279.316 120.582 279.041 120.64C278.607 120.741 278.317 120.886 278.172 121.074C278.027 121.248 277.955 121.531 277.955 121.922V128.22C277.955 128.611 278.027 128.901 278.172 129.089C278.317 129.263 278.607 129.4 279.041 129.502C279.316 129.56 279.454 129.69 279.454 129.893C279.454 130.153 279.316 130.284 279.041 130.284C277.868 130.139 277.057 130.066 276.608 130.066C276.015 130.066 275.233 130.139 274.263 130.284C274.132 130.284 274.031 130.24 273.959 130.153C273.886 130.081 273.85 129.994 273.85 129.893C273.85 129.69 273.988 129.56 274.263 129.502C274.697 129.371 274.987 129.219 275.132 129.046C275.276 128.857 275.349 128.561 275.349 128.155V125.179H271.07V128.155C271.07 128.561 271.142 128.857 271.287 129.046C271.432 129.219 271.722 129.371 272.156 129.502C272.431 129.56 272.569 129.69 272.569 129.893C272.569 129.994 272.532 130.081 272.46 130.153C272.388 130.24 272.286 130.284 272.156 130.284L271.113 130.153C270.636 130.095 270.201 130.066 269.81 130.066C269.492 130.066 268.681 130.139 267.378 130.284C267.102 130.284 266.965 130.153 266.965 129.893C266.965 129.69 267.102 129.56 267.378 129.502C267.812 129.4 268.102 129.263 268.246 129.089C268.391 128.901 268.464 128.611 268.464 128.22V121.922C268.464 121.531 268.391 121.248 268.246 121.074C268.102 120.886 267.812 120.741 267.378 120.64C267.102 120.582 266.965 120.452 266.965 120.249C266.965 119.988 267.102 119.858 267.378 119.858C268.681 120.003 269.492 120.075 269.81 120.075C270.201 120.075 270.636 120.046 271.113 119.988L272.156 119.858C272.286 119.858 272.388 119.902 272.46 119.988C272.532 120.061 272.569 120.148 272.569 120.249C272.569 120.452 272.431 120.582 272.156 120.64C271.722 120.77 271.432 120.93 271.287 121.118C271.142 121.292 271.07 121.581 271.07 121.987V124.311H275.349V121.987C275.349 121.581 275.276 121.292 275.132 121.118C274.987 120.93 274.697 120.77 274.263 120.64ZM284.433 121.987V128.394L288.56 120.206C288.662 119.974 288.77 119.858 288.886 119.858C289.523 120.003 289.994 120.075 290.298 120.075C290.529 120.075 291.232 120.003 292.405 119.858C292.68 119.858 292.817 119.988 292.817 120.249C292.817 120.452 292.68 120.582 292.405 120.64C291.97 120.741 291.681 120.886 291.536 121.074C291.391 121.248 291.319 121.531 291.319 121.922V128.22C291.319 128.611 291.391 128.901 291.536 129.089C291.681 129.263 291.97 129.4 292.405 129.502C292.68 129.56 292.817 129.69 292.817 129.893C292.817 130.153 292.68 130.284 292.405 130.284C291.232 130.139 290.421 130.066 289.972 130.066C289.378 130.066 288.596 130.139 287.626 130.284C287.496 130.284 287.395 130.24 287.322 130.153C287.25 130.081 287.214 129.994 287.214 129.893C287.214 129.69 287.351 129.56 287.626 129.502C288.061 129.371 288.35 129.219 288.495 129.046C288.64 128.857 288.712 128.561 288.712 128.155V121.835L284.542 130.088C284.499 130.218 284.433 130.284 284.347 130.284C284.303 130.284 284.093 130.247 283.717 130.175C283.355 130.103 283.087 130.066 282.913 130.066C282.768 130.066 282.044 130.139 280.741 130.284C280.466 130.284 280.328 130.153 280.328 129.893C280.328 129.69 280.466 129.56 280.741 129.502C281.176 129.4 281.465 129.263 281.61 129.089C281.755 128.901 281.827 128.611 281.827 128.22V121.922C281.827 121.531 281.755 121.248 281.61 121.074C281.465 120.886 281.176 120.741 280.741 120.64C280.466 120.582 280.328 120.452 280.328 120.249C280.328 119.988 280.466 119.858 280.741 119.858C282.044 120.003 282.855 120.075 283.174 120.075C283.565 120.075 283.999 120.046 284.477 119.988L285.519 119.858C285.65 119.858 285.751 119.902 285.824 119.988C285.896 120.061 285.932 120.148 285.932 120.249C285.932 120.452 285.795 120.582 285.519 120.64C285.085 120.77 284.795 120.93 284.651 121.118C284.506 121.292 284.433 121.581 284.433 121.987ZM297.797 121.987V128.394L301.924 120.206C302.025 119.974 302.134 119.858 302.25 119.858C302.887 120.003 303.357 120.075 303.661 120.075C303.893 120.075 304.595 120.003 305.768 119.858C306.043 119.858 306.181 119.988 306.181 120.249C306.181 120.452 306.043 120.582 305.768 120.64C305.334 120.741 305.044 120.886 304.899 121.074C304.755 121.248 304.682 121.531 304.682 121.922V128.22C304.682 128.611 304.755 128.901 304.899 129.089C305.044 129.263 305.334 129.4 305.768 129.502C306.043 129.56 306.181 129.69 306.181 129.893C306.181 130.153 306.043 130.284 305.768 130.284C304.595 130.139 303.784 130.066 303.336 130.066C302.742 130.066 301.96 130.139 300.99 130.284C300.86 130.284 300.758 130.24 300.686 130.153C300.613 130.081 300.577 129.994 300.577 129.893C300.577 129.69 300.715 129.56 300.99 129.502C301.424 129.371 301.714 129.219 301.859 129.046C302.003 128.857 302.076 128.561 302.076 128.155V121.835L297.906 130.088C297.862 130.218 297.797 130.284 297.71 130.284C297.667 130.284 297.457 130.247 297.08 130.175C296.718 130.103 296.45 130.066 296.277 130.066C296.132 130.066 295.408 130.139 294.105 130.284C293.83 130.284 293.692 130.153 293.692 129.893C293.692 129.69 293.83 129.56 294.105 129.502C294.539 129.4 294.829 129.263 294.973 129.089C295.118 128.901 295.191 128.611 295.191 128.22V121.922C295.191 121.531 295.118 121.248 294.973 121.074C294.829 120.886 294.539 120.741 294.105 120.64C293.83 120.582 293.692 120.452 293.692 120.249C293.692 119.988 293.83 119.858 294.105 119.858C295.408 120.003 296.219 120.075 296.537 120.075C296.928 120.075 297.363 120.046 297.84 119.988L298.883 119.858C299.013 119.858 299.115 119.902 299.187 119.988C299.259 120.061 299.296 120.148 299.296 120.249C299.296 120.452 299.158 120.582 298.883 120.64C298.449 120.77 298.159 120.93 298.014 121.118C297.869 121.292 297.797 121.581 297.797 121.987ZM300.382 118.446C299.788 118.446 299.245 118.294 298.753 117.99C298.26 117.686 297.884 117.302 297.623 116.839C297.58 116.767 297.558 116.709 297.558 116.665C297.558 116.622 297.594 116.564 297.667 116.492L298.47 115.862C298.514 115.818 298.557 115.797 298.601 115.797C298.717 115.797 298.782 115.84 298.796 115.927C299.303 116.651 299.933 117.013 300.686 117.013C301.627 117.013 302.351 116.673 302.858 115.992C302.945 115.833 303.068 115.753 303.227 115.753C303.415 115.753 303.509 115.847 303.509 116.035C303.509 116.093 303.495 116.166 303.466 116.253C303.205 116.875 302.793 117.397 302.228 117.816C301.663 118.236 301.048 118.446 300.382 118.446ZM310.053 119.771C310.198 119.771 310.321 119.836 310.422 119.967L314.245 124.615C314.448 124.89 314.462 125.151 314.288 125.397L310.422 130.153C310.321 130.284 310.19 130.349 310.031 130.349C309.785 130.349 309.662 130.233 309.662 130.001C309.662 129.929 309.684 129.856 309.727 129.784L312.16 125.006L309.792 120.445C309.72 120.256 309.684 120.141 309.684 120.097C309.684 120.025 309.72 119.952 309.792 119.88C309.879 119.807 309.966 119.771 310.053 119.771ZM307.599 120.379C307.758 120.379 307.881 120.474 307.968 120.662L310.639 124.615C310.741 124.774 310.791 124.912 310.791 125.027C310.791 125.143 310.748 125.266 310.661 125.397L307.968 129.437C307.881 129.581 307.772 129.654 307.642 129.654C307.41 129.654 307.294 129.545 307.294 129.328C307.396 128.98 307.895 127.554 308.793 125.049L307.294 120.879C307.28 120.864 307.273 120.814 307.273 120.727C307.273 120.495 307.381 120.379 307.599 120.379Z" fill="white"/>
</svg>
