<svg width="402" height="183" viewBox="0 0 402 183" fill="none" xmlns="http://www.w3.org/2000/svg">
<rect x="57.0176" y="66.3242" width="298.776" height="49.796" fill="black"/>
<path d="M368.284 10.333C370.641 21.5898 379.956 30.1914 391.273 32.1405L391.003 149.78C378.891 152.505 371.024 160.33 368.284 172.378L34.2383 172.66C31.1002 160.302 23.5034 152.505 10.8516 149.78L10.8516 33.6235L12.0443 31.9992C23.617 30.1772 31.5972 21.6463 33.5425 10.3047L368.298 10.333H368.284ZM77.9446 88.7637C77.0926 86.3485 75.9425 76.6029 73.8409 76.5464C70.93 78.6368 71.6968 79.23 72.5204 82.0548C73.0884 84.018 77.5754 97.5771 78.7966 96.2918C81.7927 89.8795 78.2144 89.5688 77.9446 88.7637ZM87.3164 97.6901C87.0466 94.5828 86.365 76.5888 83.7806 76.5464C80.6141 78.9052 82.6447 86.1932 83.2979 89.7101C83.7523 92.1959 83.4115 98.8906 87.3164 97.7042V97.6901ZM108.63 76.5182C99.7978 77.9447 106.926 91.5885 104.37 97.6901L108.63 97.6901V76.5182ZM132.769 84.9785C134.019 81.9418 135.112 76.1368 129.929 76.5182V84.9926L127.175 83.6226L121.41 97.6901L125.684 96.7438L129.219 87.8033L129.929 97.7184L134.189 97.6901L133.493 87.8033C136.674 87.0688 137.895 94.9359 138.435 96.7438L142.709 97.6759L137.001 83.5519L132.769 84.9643V84.9785ZM166.848 77.9306L166.848 97.7042L173.962 96.9839L173.238 93.4387L169.702 96.2777C168.836 88.2552 173.976 71.3205 160.373 77.8882L161.183 87.8033L162.588 77.9164H166.848V77.9306ZM191.002 97.7184C189.639 91.6027 194.665 77.4786 186.742 76.5323C186.003 77.2526 191.896 94.0885 185.336 96.2918L178.932 77.9447C174.019 83.0717 182.525 91.066 181.119 97.6478L191.002 97.7184ZM196.667 76.5182L196.667 97.7042H200.927C197.945 91.8004 200.317 84.8513 199.507 78.6085C199.238 76.5464 198.414 74.216 196.667 76.5182ZM206.607 76.5182L202.802 78.5803C204.761 84.696 203.81 90.9247 202.319 96.9839L206.607 97.7042L206.607 76.5182ZM212.287 76.5182L212.287 97.7042H216.547C213.565 91.8004 215.936 84.8513 215.127 78.6085C214.857 76.5464 214.033 74.216 212.287 76.5182ZM222.227 76.5182L218.492 78.6085C219.032 84.7242 219.486 91.0235 217.953 96.9839L222.241 97.7042L222.241 76.5182H222.227ZM94.4303 97.6901C89.4321 91.2778 92.627 84.9502 92.3146 77.9306C87.2453 82.2949 86.3508 96.3907 94.4303 97.6901ZM100.082 97.7042C102.851 91.8145 105.847 80.2752 97.2703 77.9447C101.232 84.5971 100.352 90.8964 97.2703 97.6901H100.082V97.7042ZM144.129 77.9306L144.129 97.7042L148.417 96.9839C146.685 91.4331 146.983 83.7214 148.389 77.9447H144.129V77.9306ZM297.484 82.1678C294.545 82.2949 285.898 80.7272 286.295 85.4587C289.234 94.597 298.691 91.0377 297.484 82.1678ZM341.489 86.405H331.563V100.515H341.503C341.972 97.8454 338.748 99.8793 337.556 98.8483C336.945 98.3257 336.888 94.8229 335.823 93.4811C341.148 93.7778 342.128 91.3625 341.503 86.405H341.489Z" fill="black"/>
<path d="M401.558 26.0159L401.853 156.854C388.233 160.297 379.712 166.76 378.032 181.899L25.2258 182.111C24.1645 168.99 14.1555 157.612 0.874023 157.719L1.00669 26.7592L2.21543 24.9692C16.7056 24.1804 22.6314 14.0471 25.8007 0.773666L374.509 0C379.211 0.864669 378.858 7.52415 380.848 11.6806C385.579 21.5864 391.874 22.9213 401.558 26.0159ZM398.669 27.4722C390.753 26.6986 383.221 21.996 379.344 14.7449C376.941 10.2698 377.531 3.9441 373.035 3.03393L28.2477 2.9581C24.9015 15.7158 16.8383 25.9552 3.67478 28.2003L3.95484 153.805C9.21731 157.612 15.0694 157.84 19.9781 163.104C24.2529 167.7 25.388 173.889 28.3361 179.093L374.317 178.82C380.007 167.2 385.211 157.506 398.92 155.398L398.684 27.4722H398.669Z" fill="black"/>
<path d="M400.055 27.3079L400.348 157.002C386.829 160.415 378.372 166.821 376.704 181.828L26.5176 182.038C25.4642 169.031 15.5295 157.753 2.34668 157.859L2.47836 28.0447L3.67813 26.2704C18.0607 25.4885 23.9425 15.4438 27.0883 2.28643L373.207 1.51953C377.874 2.37664 377.523 8.97788 379.498 13.098C384.195 22.9171 390.443 24.2404 400.055 27.3079ZM397.188 28.7515C389.331 27.9846 381.854 23.3231 378.006 16.1354C375.621 11.6995 376.206 5.42914 371.744 4.52692L29.5171 4.45175C26.1957 17.0978 18.1924 27.2477 5.12663 29.4732L5.40462 153.979C10.628 157.753 16.4367 157.979 21.3089 163.197C25.552 167.753 26.6786 173.888 29.6048 179.046L373.017 178.775C378.665 167.257 383.829 157.648 397.437 155.558L397.202 28.7515H397.188Z" fill="black"/>
<path d="M398.585 27.0873L398.876 155.691C385.456 159.076 377.062 165.428 375.406 180.309L27.8142 180.517C26.7685 167.62 16.9074 156.437 3.82227 156.541L3.95297 27.8179L5.14385 26.0585C19.4199 25.2831 25.2581 15.3228 28.3806 2.27608L371.936 1.51563C376.568 2.36553 376.22 8.91129 378.18 12.9968C382.842 22.7334 389.044 24.0456 398.585 27.0873ZM395.739 28.5187C387.94 27.7583 380.519 23.136 376.699 16.0087C374.332 11.6101 374.913 5.39238 370.483 4.49774L30.7914 4.42321C27.4947 16.963 19.5506 27.0276 6.58163 29.2344L6.85756 152.694C12.0423 156.437 17.8079 156.66 22.644 161.834C26.8557 166.352 27.9739 172.436 30.8785 177.55L371.747 177.282C377.353 165.86 382.479 156.332 395.986 154.26L395.753 28.5187H395.739Z" fill="black"/>
<path d="M133.672 72.3047H130.519L129.98 68.6975H126.145L125.606 72.3047H122.737L125.918 52.4228H130.491L133.672 72.3047ZM126.543 65.9993H129.554L128.048 55.9447L126.543 65.9993ZM138.224 72.3047H135.1V52.4228H138.224V60.9436H141.775V52.4228L144.956 52.4228V72.3047H141.775V63.7839H138.224V72.3047ZM146.369 52.4228H156.026V55.2631H152.759V72.3047H149.635V55.2631H146.369V52.4228ZM160.296 67.7319C160.296 68.4514 160.438 68.9626 160.722 69.2656C161.025 69.5496 161.423 69.6916 161.915 69.6916C162.407 69.6916 162.796 69.5496 163.08 69.2656C163.383 68.9626 163.534 68.4514 163.534 67.7319V56.9956C163.534 56.2761 163.383 55.7743 163.08 55.4903C162.796 55.1873 162.407 55.0359 161.915 55.0359C161.423 55.0359 161.025 55.1873 160.722 55.4903C160.438 55.7743 160.296 56.2761 160.296 56.9956V67.7319ZM157.172 57.1945C157.172 55.585 157.579 54.3542 158.393 53.5021C159.207 52.6311 160.381 52.1956 161.915 52.1956C163.449 52.1956 164.623 52.6311 165.437 53.5021C166.251 54.3542 166.658 55.585 166.658 57.1945V67.533C166.658 69.1425 166.251 70.3828 165.437 71.2538C164.623 72.1059 163.449 72.5319 161.915 72.5319C160.381 72.5319 159.207 72.1059 158.393 71.2538C157.579 70.3828 157.172 69.1425 157.172 67.533V57.1945ZM171.758 72.3047H168.634V52.4228H171.758V60.9436H175.309V52.4228H178.49V72.3047H175.309V63.7839H171.758V72.3047ZM188.289 72.3047H185.165V52.4228H195.021V72.3047H191.84V55.2631H188.289V72.3047ZM207.369 72.3047H204.217L203.677 68.6975H199.842L199.303 72.3047H196.434L199.615 52.4228H204.188L207.369 72.3047ZM200.24 65.9993H203.251L201.745 55.9447L200.24 65.9993ZM213.512 52.4228C215.14 52.4228 216.314 52.8015 217.034 53.5589C217.772 54.3163 218.142 55.4619 218.142 56.9956V57.7057C218.142 58.7282 217.981 59.5708 217.659 60.2335C217.337 60.8963 216.826 61.3886 216.125 61.7105C216.977 62.0324 217.574 62.5626 217.914 63.301C218.274 64.0206 218.454 64.9105 218.454 65.9709V67.5898C218.454 69.1236 218.056 70.2976 217.261 71.1118C216.466 71.907 215.282 72.3047 213.711 72.3047H208.797V52.4228H213.512ZM211.921 63.3578V69.4644H213.711C214.241 69.4644 214.639 69.3224 214.904 69.0384C215.188 68.7544 215.33 68.2431 215.33 67.5046V65.7721C215.33 64.8442 215.169 64.2099 214.847 63.8691C214.544 63.5283 214.033 63.3578 213.313 63.3578H211.921ZM211.921 55.2631V60.5176H213.143C213.73 60.5176 214.184 60.3661 214.506 60.0631C214.847 59.7602 215.017 59.211 215.017 58.4158V57.3081C215.017 56.5885 214.885 56.0678 214.62 55.7459C214.373 55.424 213.976 55.2631 213.427 55.2631H211.921ZM229.084 55.2631L225.449 55.2631V67.3626C225.449 68.3662 225.326 69.1899 225.08 69.8337C224.833 70.4774 224.502 70.9887 224.086 71.3674C223.669 71.7272 223.186 71.9828 222.637 72.1343C222.107 72.2858 221.548 72.3615 220.961 72.3615C220.677 72.3615 220.422 72.3615 220.194 72.3615C219.967 72.3615 219.721 72.3426 219.456 72.3047V69.4644C219.626 69.4834 219.806 69.4928 219.996 69.4928C220.185 69.4928 220.365 69.4928 220.535 69.4928C221.027 69.4928 221.444 69.3697 221.785 69.1236C222.145 68.8774 222.325 68.3662 222.325 67.5898V52.4228L232.209 52.4228V72.3047H229.084V55.2631ZM237.322 67.7319C237.322 68.4514 237.464 68.9626 237.748 69.2656C238.051 69.5496 238.448 69.6916 238.941 69.6916C239.433 69.6916 239.821 69.5496 240.105 69.2656C240.408 68.9626 240.56 68.4514 240.56 67.7319V56.9956C240.56 56.2761 240.408 55.7743 240.105 55.4903C239.821 55.1873 239.433 55.0359 238.941 55.0359C238.448 55.0359 238.051 55.1873 237.748 55.4903C237.464 55.7743 237.322 56.2761 237.322 56.9956V67.7319ZM234.198 57.1945C234.198 55.585 234.605 54.3542 235.419 53.5021C236.233 52.6311 237.407 52.1956 238.941 52.1956C240.475 52.1956 241.649 52.6311 242.463 53.5021C243.277 54.3542 243.684 55.585 243.684 57.1945V67.533C243.684 69.1425 243.277 70.3828 242.463 71.2538C241.649 72.1059 240.475 72.5319 238.941 72.5319C237.407 72.5319 236.233 72.1059 235.419 71.2538C234.605 70.3828 234.198 69.1425 234.198 67.533V57.1945ZM250.374 52.4228C252.003 52.4228 253.177 52.8015 253.896 53.5589C254.635 54.3163 255.004 55.4619 255.004 56.9956V57.7057C255.004 58.7282 254.843 59.5708 254.521 60.2335C254.199 60.8963 253.688 61.3886 252.987 61.7105C253.84 62.0324 254.436 62.5626 254.777 63.301C255.137 64.0206 255.316 64.9105 255.316 65.9709V67.5898C255.316 69.1236 254.919 70.2976 254.124 71.1118C253.328 71.907 252.145 72.3047 250.573 72.3047H245.66V52.4228H250.374ZM248.784 63.3578V69.4644H250.573C251.103 69.4644 251.501 69.3224 251.766 69.0384C252.05 68.7544 252.192 68.2431 252.192 67.5046V65.7721C252.192 64.8442 252.031 64.2099 251.709 63.8691C251.406 63.5283 250.895 63.3578 250.176 63.3578H248.784ZM248.784 55.2631V60.5176H250.005C250.592 60.5176 251.047 60.3661 251.369 60.0631C251.709 59.7602 251.88 59.211 251.88 58.4158V57.3081C251.88 56.5885 251.747 56.0678 251.482 55.7459C251.236 55.424 250.838 55.2631 250.289 55.2631H248.784ZM260.38 72.3047H257.17V52.4228H259.954V64.3235L263.163 52.4228H267.083V72.3047H264.271V57.9045L260.38 72.3047ZM271.761 52.4228V60.0915C271.761 60.8111 271.903 61.3128 272.187 61.5969C272.49 61.8809 272.888 62.0229 273.38 62.0229C273.854 62.0229 274.232 61.8998 274.516 61.6537C274.8 61.3886 274.961 60.9436 274.999 60.3188V52.4228H278.123V72.3047H274.999V64.6644C274.734 64.759 274.459 64.8253 274.175 64.8632C273.91 64.8821 273.617 64.8916 273.295 64.8916C271.761 64.8916 270.597 64.4655 269.801 63.6135C269.025 62.7424 268.637 61.5022 268.637 59.8927V52.4228H271.761ZM176.249 83.4228V91.0915C176.249 91.8111 176.391 92.3128 176.675 92.5969C176.978 92.8809 177.375 93.0229 177.868 93.0229C178.341 93.0229 178.72 92.8998 179.004 92.6537C179.288 92.3886 179.449 91.9436 179.487 91.3188V83.4228H182.611V103.305H179.487V95.6644C179.222 95.759 178.947 95.8253 178.663 95.8632C178.398 95.8821 178.104 95.8916 177.783 95.8916C176.249 95.8916 175.084 95.4655 174.289 94.6135C173.513 93.7424 173.125 92.5022 173.125 90.8927V83.4228H176.249ZM187.998 91.8016H192.287V94.6419H187.998V100.464H193.395V103.305H184.874V83.4228H193.395V86.2631H187.998V91.8016ZM205.671 83.4228L202.405 93.0797L205.899 103.305H202.604L200.048 95.4371L197.463 103.305H194.538L198.031 93.0797L194.765 83.4228H198.003L200.36 90.7507L202.774 83.4228H205.671ZM210.292 98.7319C210.292 99.4514 210.434 99.9626 210.718 100.266C211.021 100.55 211.419 100.692 211.911 100.692C212.403 100.692 212.792 100.55 213.076 100.266C213.379 99.9626 213.53 99.4514 213.53 98.7319V87.9956C213.53 87.2761 213.379 86.7743 213.076 86.4903C212.792 86.1873 212.403 86.0359 211.911 86.0359C211.419 86.0359 211.021 86.1873 210.718 86.4903C210.434 86.7743 210.292 87.2761 210.292 87.9956V98.7319ZM207.168 88.1945C207.168 86.585 207.575 85.3542 208.389 84.5021C209.203 83.6311 210.377 83.1956 211.911 83.1956C213.445 83.1956 214.619 83.6311 215.433 84.5021C216.247 85.3542 216.654 86.585 216.654 88.1945V98.533C216.654 100.143 216.247 101.383 215.433 102.254C214.619 103.106 213.445 103.532 211.911 103.532C210.377 103.532 209.203 103.106 208.389 102.254C207.575 101.383 207.168 100.143 207.168 98.533V88.1945ZM223.345 83.4228C224.973 83.4228 226.147 83.8015 226.867 84.5589C227.605 85.3163 227.974 86.4619 227.974 87.9956V88.7057C227.974 89.7282 227.813 90.5708 227.492 91.2335C227.17 91.8963 226.658 92.3886 225.958 92.7105C226.81 93.0324 227.406 93.5626 227.747 94.301C228.107 95.0206 228.287 95.9105 228.287 96.9709V98.5898C228.287 100.124 227.889 101.298 227.094 102.112C226.299 102.907 225.115 103.305 223.544 103.305H218.63V83.4228H223.345ZM221.754 94.3578V100.464H223.544C224.074 100.464 224.471 100.322 224.736 100.038C225.02 99.7544 225.162 99.2431 225.162 98.5046V96.7721C225.162 95.8442 225.002 95.2099 224.68 94.8691C224.377 94.5283 223.865 94.3578 223.146 94.3578H221.754ZM221.754 86.2631V91.5176H222.975C223.562 91.5176 224.017 91.3661 224.339 91.0631C224.68 90.7602 224.85 90.211 224.85 89.4158V88.3081C224.85 87.5885 224.718 87.0678 224.452 86.7459C224.206 86.424 223.809 86.2631 223.26 86.2631H221.754Z" fill="white"/>
<path d="M79.3658 120.618C79.583 120.618 79.6916 120.734 79.6916 120.965C79.6916 121.052 79.6843 121.103 79.6698 121.117L78.1712 125.287C79.0689 127.792 79.5685 129.219 79.6698 129.566C79.6698 129.783 79.554 129.892 79.3223 129.892C79.192 129.892 79.0834 129.82 78.9965 129.675L76.3033 125.635C76.2164 125.505 76.173 125.382 76.173 125.266C76.173 125.15 76.2237 125.012 76.325 124.853L78.9965 120.9C79.0834 120.712 79.2065 120.618 79.3658 120.618ZM76.9114 120.01C76.9983 120.01 77.078 120.046 77.1504 120.118C77.2372 120.191 77.2807 120.263 77.2807 120.335C77.2807 120.379 77.2445 120.495 77.1721 120.683L74.8046 125.244L77.2372 130.022C77.2807 130.08 77.3024 130.153 77.3024 130.24C77.3024 130.471 77.1793 130.587 76.9332 130.587C76.7739 130.587 76.6436 130.522 76.5422 130.392L72.6761 125.635C72.5023 125.389 72.5168 125.128 72.7195 124.853L76.5422 120.205C76.6436 120.075 76.7666 120.01 76.9114 120.01ZM99.2325 115.666C98.5954 115.752 98.1393 115.926 97.8642 116.187C97.589 116.433 97.4515 116.81 97.4515 117.316V127.916C97.4515 128.495 97.5673 128.9 97.799 129.132C98.0307 129.364 98.523 129.566 99.2759 129.74C99.5366 129.783 99.6669 129.914 99.6669 130.131C99.6669 130.392 99.5366 130.522 99.2759 130.522C99.2615 130.522 99.2035 130.515 99.1022 130.5C99.0008 130.5 98.8271 130.486 98.5809 130.457C98.3348 130.442 98.0814 130.428 97.8207 130.413C96.7782 130.341 96.0832 130.305 95.7356 130.305C95.3157 130.305 94.2442 130.377 92.5211 130.522C92.3908 130.522 92.2894 130.478 92.217 130.392C92.1446 130.319 92.1084 130.232 92.1084 130.131C92.1084 129.914 92.246 129.783 92.5211 129.74C93.2017 129.624 93.665 129.436 93.9112 129.175C94.1718 128.915 94.3021 128.509 94.3021 127.959V116.187H86.1355V127.959C86.1355 128.509 86.2586 128.915 86.5048 129.175C86.7654 129.436 87.236 129.624 87.9165 129.74C88.1917 129.783 88.3292 129.914 88.3292 130.131C88.3292 130.232 88.293 130.319 88.2206 130.392C88.1482 130.478 88.0469 130.522 87.9165 130.522C86.2803 130.377 85.2088 130.305 84.702 130.305C83.7319 130.305 82.5518 130.377 81.1617 130.522C80.9011 130.522 80.7708 130.392 80.7708 130.131C80.7708 129.914 80.9011 129.783 81.1617 129.74C81.9002 129.566 82.3853 129.364 82.6169 129.132C82.8631 128.886 82.9862 128.48 82.9862 127.916V117.316C82.9862 116.81 82.8486 116.433 82.5735 116.187C82.2984 115.926 81.8423 115.752 81.2052 115.666C80.93 115.651 80.7925 115.521 80.7925 115.275C80.7925 115.014 80.93 114.884 81.2052 114.884C82.6387 115.028 83.7898 115.101 84.6586 115.101H95.7791C96.4741 115.101 97.6252 115.028 99.2325 114.884C99.5076 114.884 99.6452 115.014 99.6452 115.275C99.6452 115.521 99.5076 115.651 99.2325 115.666ZM106.035 120.096C106.788 120.096 107.469 120.248 108.077 120.553C108.699 120.828 109.011 121.262 109.011 121.856C109.011 122.203 108.888 122.478 108.641 122.681C108.41 122.869 108.091 122.963 107.686 122.963C107.324 122.963 107.034 122.869 106.817 122.681C106.614 122.478 106.477 122.261 106.404 122.029C106.332 121.783 106.216 121.566 106.057 121.378C105.897 121.175 105.68 121.074 105.405 121.074C104.913 121.074 104.5 121.291 104.167 121.725C103.689 122.406 103.45 123.376 103.45 124.636C103.45 125.07 103.501 125.497 103.602 125.917C103.704 126.337 103.849 126.743 104.037 127.134C104.24 127.51 104.522 127.821 104.884 128.068C105.246 128.299 105.659 128.415 106.122 128.415C107.107 128.415 107.845 128.039 108.337 127.286C108.468 127.097 108.583 127.003 108.685 127.003C108.931 127.003 109.054 127.141 109.054 127.416C109.054 127.503 109.047 127.561 109.032 127.59C108.801 128.459 108.323 129.168 107.599 129.718C106.889 130.254 106.064 130.522 105.123 130.522C103.733 130.522 102.661 130.037 101.908 129.067C101.141 128.082 100.757 126.909 100.757 125.548C100.757 123.854 101.242 122.522 102.212 121.552C103.182 120.582 104.457 120.096 106.035 120.096ZM114.254 122.225V128.632L118.381 120.444C118.482 120.212 118.591 120.096 118.707 120.096C119.344 120.241 119.814 120.314 120.119 120.314C120.35 120.314 121.052 120.241 122.225 120.096C122.5 120.096 122.638 120.227 122.638 120.487C122.638 120.69 122.5 120.82 122.225 120.878C121.791 120.98 121.501 121.124 121.357 121.313C121.212 121.486 121.139 121.769 121.139 122.16V128.459C121.139 128.849 121.212 129.139 121.357 129.327C121.501 129.501 121.791 129.639 122.225 129.74C122.5 129.798 122.638 129.928 122.638 130.131C122.638 130.392 122.5 130.522 122.225 130.522C121.052 130.377 120.242 130.305 119.793 130.305C119.199 130.305 118.417 130.377 117.447 130.522C117.317 130.522 117.215 130.478 117.143 130.392C117.071 130.319 117.034 130.232 117.034 130.131C117.034 129.928 117.172 129.798 117.447 129.74C117.881 129.61 118.171 129.458 118.316 129.284C118.461 129.096 118.533 128.799 118.533 128.393V122.073L114.363 130.326C114.319 130.457 114.254 130.522 114.167 130.522C114.124 130.522 113.914 130.486 113.537 130.413C113.175 130.341 112.908 130.305 112.734 130.305C112.589 130.305 111.865 130.377 110.562 130.522C110.287 130.522 110.149 130.392 110.149 130.131C110.149 129.928 110.287 129.798 110.562 129.74C110.996 129.639 111.286 129.501 111.431 129.327C111.575 129.139 111.648 128.849 111.648 128.459V122.16C111.648 121.769 111.575 121.486 111.431 121.313C111.286 121.124 110.996 120.98 110.562 120.878C110.287 120.82 110.149 120.69 110.149 120.487C110.149 120.227 110.287 120.096 110.562 120.096C111.865 120.241 112.676 120.314 112.994 120.314C113.385 120.314 113.82 120.285 114.298 120.227L115.34 120.096C115.471 120.096 115.572 120.14 115.644 120.227C115.717 120.299 115.753 120.386 115.753 120.487C115.753 120.69 115.615 120.82 115.34 120.878C114.906 121.009 114.616 121.168 114.471 121.356C114.327 121.53 114.254 121.82 114.254 122.225ZM130.854 120.878C130.579 120.791 130.441 120.661 130.441 120.487C130.441 120.227 130.579 120.096 130.854 120.096C131.621 120.241 132.237 120.314 132.7 120.314C133.221 120.314 133.779 120.241 134.373 120.096C134.503 120.096 134.604 120.14 134.677 120.227C134.749 120.299 134.785 120.386 134.785 120.487C134.785 120.69 134.648 120.82 134.373 120.878C134.199 120.922 134.032 120.98 133.873 121.052C133.728 121.11 133.591 121.182 133.46 121.269C133.33 121.342 133.214 121.414 133.113 121.486C133.011 121.559 132.91 121.646 132.809 121.747C132.707 121.848 132.628 121.928 132.57 121.986C132.526 122.044 132.461 122.124 132.374 122.225C132.302 122.312 132.259 122.363 132.244 122.377L130.333 124.549L133.33 128.524C133.707 129.045 134.228 129.458 134.894 129.762C135.082 129.849 135.176 129.972 135.176 130.131C135.176 130.232 135.14 130.319 135.068 130.392C134.995 130.478 134.894 130.522 134.764 130.522C133.982 130.377 133.236 130.305 132.526 130.305C131.904 130.305 131.042 130.377 129.942 130.522C129.667 130.522 129.529 130.392 129.529 130.131C129.529 129.986 129.659 129.856 129.92 129.74C130.224 129.61 130.376 129.436 130.376 129.219C130.376 129.059 130.289 128.849 130.116 128.589L128.617 126.612L127.162 128.372C126.973 128.603 126.879 128.842 126.879 129.088C126.879 129.407 127.097 129.624 127.531 129.74C127.806 129.798 127.944 129.928 127.944 130.131C127.944 130.232 127.907 130.319 127.835 130.392C127.763 130.478 127.661 130.522 127.531 130.522C126.706 130.377 126.054 130.305 125.576 130.305C125.344 130.305 124.722 130.377 123.708 130.522C123.433 130.522 123.296 130.392 123.296 130.131C123.296 129.957 123.433 129.827 123.708 129.74C124.649 129.45 125.475 128.878 126.184 128.024L128.03 125.809L125.294 122.138C124.801 121.429 124.338 121.009 123.904 120.878C123.629 120.791 123.491 120.661 123.491 120.487C123.491 120.227 123.629 120.096 123.904 120.096C125.511 120.343 127.118 120.343 128.725 120.096C128.856 120.096 128.957 120.14 129.03 120.227C129.102 120.299 129.138 120.386 129.138 120.487C129.138 120.69 129.001 120.82 128.725 120.878C128.378 120.936 128.204 121.11 128.204 121.4C128.204 121.602 128.269 121.783 128.4 121.943L129.746 123.745L131.049 122.16C131.267 121.885 131.375 121.646 131.375 121.443C131.375 121.168 131.202 120.98 130.854 120.878ZM135.503 125.309C135.503 123.745 135.973 122.449 136.914 121.421C137.87 120.393 139.173 119.879 140.824 119.879C142.533 119.879 143.843 120.393 144.755 121.421C145.682 122.435 146.145 123.731 146.145 125.309C146.145 126.873 145.66 128.169 144.69 129.197C143.706 130.225 142.417 130.739 140.824 130.739C139.101 130.739 137.783 130.232 136.871 129.219C135.959 128.205 135.503 126.902 135.503 125.309ZM138.457 125.309C138.457 128.278 139.246 129.762 140.824 129.762C142.373 129.762 143.148 128.278 143.148 125.309C143.148 123.963 143.01 122.92 142.735 122.182C142.46 121.298 141.823 120.857 140.824 120.857C140.057 120.857 139.47 121.255 139.065 122.051C138.659 122.848 138.457 123.934 138.457 125.309ZM146.794 129.371C146.794 128.965 146.909 128.654 147.141 128.437C147.373 128.22 147.684 128.111 148.075 128.111C148.394 128.111 148.719 128.299 149.052 128.676C149.183 128.835 149.335 128.915 149.509 128.915C149.842 128.915 150.153 128.654 150.442 128.133C151.065 126.989 151.376 125.092 151.376 122.442C151.376 122.066 151.29 121.762 151.116 121.53C150.942 121.298 150.609 121.081 150.117 120.878C149.856 120.762 149.726 120.625 149.726 120.466C149.726 120.22 149.849 120.096 150.095 120.096C150.906 120.241 151.731 120.314 152.571 120.314H156.893C157.139 120.314 157.603 120.277 158.283 120.205C158.443 120.191 158.609 120.176 158.783 120.162C158.971 120.133 159.101 120.118 159.174 120.118C159.261 120.104 159.311 120.096 159.326 120.096C159.456 120.096 159.557 120.14 159.63 120.227C159.702 120.299 159.738 120.386 159.738 120.487C159.738 120.69 159.601 120.82 159.326 120.878C158.877 121.009 158.566 121.175 158.392 121.378C158.233 121.566 158.153 121.848 158.153 122.225V128.393C158.153 128.799 158.233 129.103 158.392 129.306C158.566 129.508 158.899 129.668 159.391 129.783C159.637 129.856 159.76 129.979 159.76 130.153C159.76 130.399 159.637 130.522 159.391 130.522C158.319 130.377 157.472 130.305 156.85 130.305C156.227 130.305 155.38 130.377 154.309 130.522C154.062 130.522 153.939 130.399 153.939 130.153C153.939 129.979 154.062 129.856 154.309 129.783C154.772 129.653 155.09 129.487 155.264 129.284C155.452 129.067 155.547 128.777 155.547 128.415V121.182H152.462C152.462 121.921 152.455 122.413 152.441 122.659C152.383 123.514 152.347 124.071 152.332 124.332C152.26 125.201 152.18 125.823 152.093 126.2C152.006 126.663 151.854 127.22 151.637 127.872C151.449 128.466 151.203 128.965 150.899 129.371C150.247 130.283 149.378 130.739 148.292 130.739C147.901 130.739 147.554 130.602 147.25 130.326C146.946 130.066 146.794 129.747 146.794 129.371ZM160.851 125.309C160.851 123.745 161.322 122.449 162.263 121.421C163.219 120.393 164.522 119.879 166.172 119.879C167.881 119.879 169.191 120.393 170.104 121.421C171.03 122.435 171.494 123.731 171.494 125.309C171.494 126.873 171.009 128.169 170.039 129.197C169.054 130.225 167.765 130.739 166.172 130.739C164.449 130.739 163.132 130.232 162.219 129.219C161.307 128.205 160.851 126.902 160.851 125.309ZM163.805 125.309C163.805 128.278 164.594 129.762 166.172 129.762C167.722 129.762 168.496 128.278 168.496 125.309C168.496 123.963 168.359 122.92 168.084 122.182C167.809 121.298 167.172 120.857 166.172 120.857C165.405 120.857 164.819 121.255 164.413 122.051C164.008 122.848 163.805 123.934 163.805 125.309ZM181.59 120.031V123.724C181.59 123.97 181.467 124.093 181.221 124.093C180.975 124.093 180.852 123.97 180.852 123.724C180.678 122.536 180.265 121.798 179.614 121.508C179.136 121.291 178.585 121.182 177.963 121.182H176.768V128.393C176.768 128.77 176.848 129.059 177.007 129.262C177.181 129.45 177.492 129.61 177.941 129.74C178.216 129.798 178.354 129.928 178.354 130.131C178.354 130.232 178.318 130.319 178.245 130.392C178.173 130.478 178.071 130.522 177.941 130.522C177.927 130.522 177.876 130.515 177.789 130.5C177.717 130.5 177.586 130.486 177.398 130.457C177.224 130.442 177.058 130.428 176.899 130.413C176.218 130.341 175.755 130.305 175.509 130.305C174.9 130.305 174.089 130.377 173.076 130.522C172.801 130.522 172.663 130.392 172.663 130.131C172.663 129.928 172.801 129.798 173.076 129.74C173.51 129.639 173.8 129.501 173.945 129.327C174.089 129.139 174.162 128.849 174.162 128.459V122.225C174.162 121.848 174.075 121.566 173.901 121.378C173.742 121.175 173.438 121.009 172.989 120.878C172.714 120.82 172.576 120.69 172.576 120.487C172.576 120.386 172.613 120.299 172.685 120.227C172.757 120.14 172.859 120.096 172.989 120.096L174.01 120.205C174.705 120.277 175.175 120.314 175.422 120.314H179.744C180.091 120.314 180.395 120.205 180.656 119.988C180.946 119.771 181.134 119.662 181.221 119.662C181.467 119.662 181.59 119.785 181.59 120.031ZM186.778 122.225V128.632L190.905 120.444C191.007 120.212 191.115 120.096 191.231 120.096C191.868 120.241 192.339 120.314 192.643 120.314C192.874 120.314 193.577 120.241 194.75 120.096C195.025 120.096 195.162 120.227 195.162 120.487C195.162 120.69 195.025 120.82 194.75 120.878C194.315 120.98 194.026 121.124 193.881 121.313C193.736 121.486 193.664 121.769 193.664 122.16V128.459C193.664 128.849 193.736 129.139 193.881 129.327C194.026 129.501 194.315 129.639 194.75 129.74C195.025 129.798 195.162 129.928 195.162 130.131C195.162 130.392 195.025 130.522 194.75 130.522C193.577 130.377 192.766 130.305 192.317 130.305C191.723 130.305 190.941 130.377 189.971 130.522C189.841 130.522 189.74 130.478 189.667 130.392C189.595 130.319 189.559 130.232 189.559 130.131C189.559 129.928 189.696 129.798 189.971 129.74C190.406 129.61 190.695 129.458 190.84 129.284C190.985 129.096 191.057 128.799 191.057 128.393V122.073L186.887 130.326C186.844 130.457 186.778 130.522 186.692 130.522C186.648 130.522 186.438 130.486 186.062 130.413C185.7 130.341 185.432 130.305 185.258 130.305C185.113 130.305 184.389 130.377 183.086 130.522C182.811 130.522 182.673 130.392 182.673 130.131C182.673 129.928 182.811 129.798 183.086 129.74C183.521 129.639 183.81 129.501 183.955 129.327C184.1 129.139 184.172 128.849 184.172 128.459V122.16C184.172 121.769 184.1 121.486 183.955 121.313C183.81 121.124 183.521 120.98 183.086 120.878C182.811 120.82 182.673 120.69 182.673 120.487C182.673 120.227 182.811 120.096 183.086 120.096C184.389 120.241 185.2 120.314 185.519 120.314C185.91 120.314 186.344 120.285 186.822 120.227L187.864 120.096C187.995 120.096 188.096 120.14 188.169 120.227C188.241 120.299 188.277 120.386 188.277 120.487C188.277 120.69 188.14 120.82 187.864 120.878C187.43 121.009 187.14 121.168 186.996 121.356C186.851 121.53 186.778 121.82 186.778 122.225ZM202.336 120.835C202.017 120.748 201.858 120.625 201.858 120.466C201.858 120.22 202.032 120.096 202.379 120.096C202.466 120.111 202.654 120.14 202.944 120.183C203.248 120.212 203.545 120.241 203.834 120.27C204.124 120.299 204.37 120.314 204.573 120.314C204.79 120.314 205.224 120.277 205.876 120.205C206.035 120.191 206.195 120.176 206.354 120.162C206.528 120.133 206.643 120.118 206.701 120.118C206.774 120.104 206.817 120.096 206.832 120.096C207.165 120.096 207.331 120.22 207.331 120.466C207.331 120.61 207.172 120.734 206.853 120.835C206.636 120.936 206.47 121.023 206.354 121.096C206.238 121.168 206.122 121.291 206.006 121.465C205.905 121.624 205.84 121.834 205.811 122.095V128.48C205.811 129.219 206.151 129.653 206.832 129.783C207.15 129.827 207.31 129.943 207.31 130.131C207.31 130.392 207.143 130.522 206.81 130.522C205.782 130.377 205.051 130.305 204.616 130.305C204.385 130.305 203.574 130.377 202.184 130.522C201.851 130.522 201.684 130.392 201.684 130.131C201.684 130.015 201.836 129.899 202.14 129.783C202.85 129.552 203.205 129.11 203.205 128.459V125.483C202.553 125.932 202.213 126.163 202.184 126.178C201.46 126.641 200.678 126.873 199.838 126.873C198.911 126.873 198.209 126.634 197.731 126.156C197.253 125.678 197.014 125.02 197.014 124.18V122.486C197.014 122.182 197 121.95 196.971 121.791C196.942 121.617 196.848 121.443 196.689 121.269C196.544 121.096 196.319 120.965 196.015 120.878C195.74 120.82 195.603 120.69 195.603 120.487C195.603 120.386 195.639 120.299 195.711 120.227C195.784 120.14 195.885 120.096 196.015 120.096L197.036 120.227C197.499 120.285 197.912 120.314 198.274 120.314C198.593 120.314 199.404 120.241 200.707 120.096C200.982 120.096 201.119 120.227 201.119 120.487C201.119 120.661 200.982 120.791 200.707 120.878C199.983 121.081 199.621 121.595 199.621 122.42V123.658C199.621 124.643 200.135 125.135 201.163 125.135C201.771 125.135 202.452 124.846 203.205 124.267V122.116C203.205 121.407 202.915 120.98 202.336 120.835ZM213.187 120.096C214.157 120.096 215.041 120.386 215.837 120.965C216.633 121.53 217.046 122.305 217.075 123.289C217.075 123.622 216.901 123.789 216.554 123.789H210.928C210.899 124.078 210.885 124.375 210.885 124.679C210.885 125.606 211.167 126.482 211.732 127.307C212.297 128.118 213.064 128.524 214.034 128.524C214.498 128.524 214.961 128.415 215.424 128.198C215.902 127.966 216.25 127.684 216.467 127.351C216.597 127.163 216.713 127.068 216.814 127.068C217.06 127.068 217.184 127.184 217.184 127.416C217.184 127.503 217.176 127.561 217.162 127.59C216.916 128.415 216.373 129.11 215.533 129.675C214.693 130.24 213.774 130.522 212.774 130.522C211.384 130.522 210.313 130.037 209.56 129.067C208.792 128.082 208.409 126.909 208.409 125.548C208.409 123.883 208.865 122.558 209.777 121.573C210.689 120.589 211.826 120.096 213.187 120.096ZM213.057 121.074C211.971 121.074 211.29 121.754 211.015 123.115H213.448C214.056 123.115 214.36 122.811 214.36 122.203C214.36 121.856 214.237 121.581 213.991 121.378C213.745 121.175 213.433 121.074 213.057 121.074ZM223.763 120.096C224.516 120.096 225.196 120.248 225.804 120.553C226.427 120.828 226.738 121.262 226.738 121.856C226.738 122.203 226.615 122.478 226.369 122.681C226.137 122.869 225.819 122.963 225.413 122.963C225.051 122.963 224.762 122.869 224.544 122.681C224.342 122.478 224.204 122.261 224.132 122.029C224.059 121.783 223.944 121.566 223.784 121.378C223.625 121.175 223.408 121.074 223.133 121.074C222.64 121.074 222.228 121.291 221.895 121.725C221.417 122.406 221.178 123.376 221.178 124.636C221.178 125.07 221.229 125.497 221.33 125.917C221.431 126.337 221.576 126.743 221.764 127.134C221.967 127.51 222.249 127.821 222.611 128.068C222.973 128.299 223.386 128.415 223.849 128.415C224.834 128.415 225.573 128.039 226.065 127.286C226.195 127.097 226.311 127.003 226.412 127.003C226.659 127.003 226.782 127.141 226.782 127.416C226.782 127.503 226.774 127.561 226.76 127.59C226.528 128.459 226.05 129.168 225.326 129.718C224.617 130.254 223.792 130.522 222.85 130.522C221.46 130.522 220.389 130.037 219.636 129.067C218.868 128.082 218.485 126.909 218.485 125.548C218.485 123.854 218.97 122.522 219.94 121.552C220.91 120.582 222.184 120.096 223.763 120.096ZM237.325 120.314C237.904 120.314 238.65 120.241 239.562 120.096C239.692 120.096 239.794 120.14 239.866 120.227C239.938 120.299 239.975 120.386 239.975 120.487C239.975 120.69 239.837 120.82 239.562 120.878C238.36 121.182 237.376 121.675 236.608 122.355C236.434 122.486 236.145 122.739 235.739 123.115L234.914 123.854L238.65 128.437C239.287 129.19 239.83 129.624 240.279 129.74C240.554 129.798 240.691 129.928 240.691 130.131C240.691 130.232 240.655 130.319 240.583 130.392C240.51 130.478 240.409 130.522 240.279 130.522C239.033 130.377 238.244 130.305 237.911 130.305C237.578 130.305 236.738 130.377 235.392 130.522C235.117 130.522 234.979 130.392 234.979 130.131C234.979 129.972 235.117 129.841 235.392 129.74C235.609 129.624 235.718 129.45 235.718 129.219C235.718 128.987 235.631 128.763 235.457 128.545L233.242 125.7C233.053 125.439 232.633 125.309 231.982 125.309V128.393C231.982 128.77 232.061 129.059 232.221 129.262C232.394 129.45 232.706 129.61 233.155 129.74C233.43 129.798 233.567 129.928 233.567 130.131C233.567 130.232 233.531 130.319 233.459 130.392C233.386 130.478 233.285 130.522 233.155 130.522C231.866 130.377 231.055 130.305 230.722 130.305C230.114 130.305 229.303 130.377 228.289 130.522C228.014 130.522 227.877 130.392 227.877 130.131C227.877 129.928 228.014 129.798 228.289 129.74C228.753 129.653 229.05 129.523 229.18 129.349C229.31 129.175 229.375 128.878 229.375 128.459V122.16C229.375 121.74 229.31 121.45 229.18 121.291C229.05 121.117 228.753 120.98 228.289 120.878C228.014 120.82 227.877 120.69 227.877 120.487C227.877 120.227 228.014 120.096 228.289 120.096C229.303 120.241 230.114 120.314 230.722 120.314C231.055 120.314 231.866 120.241 233.155 120.096C233.285 120.096 233.386 120.14 233.459 120.227C233.531 120.299 233.567 120.386 233.567 120.487C233.567 120.69 233.43 120.82 233.155 120.878C232.706 121.009 232.394 121.175 232.221 121.378C232.061 121.566 231.982 121.848 231.982 122.225V124.44C232.098 124.44 232.329 124.382 232.677 124.267C232.749 124.252 232.865 124.165 233.024 124.006L233.35 123.68L234.849 122.203C235.225 121.87 235.413 121.588 235.413 121.356C235.413 121.153 235.261 120.994 234.957 120.878C234.682 120.791 234.545 120.661 234.545 120.487C234.545 120.227 234.682 120.096 234.957 120.096C235.884 120.241 236.673 120.314 237.325 120.314ZM245.239 122.225V128.632L249.366 120.444C249.467 120.212 249.576 120.096 249.692 120.096C250.329 120.241 250.8 120.314 251.104 120.314C251.335 120.314 252.038 120.241 253.21 120.096C253.486 120.096 253.623 120.227 253.623 120.487C253.623 120.69 253.486 120.82 253.21 120.878C252.776 120.98 252.486 121.124 252.342 121.313C252.197 121.486 252.124 121.769 252.124 122.16V128.459C252.124 128.849 252.197 129.139 252.342 129.327C252.486 129.501 252.776 129.639 253.21 129.74C253.486 129.798 253.623 129.928 253.623 130.131C253.623 130.392 253.486 130.522 253.21 130.522C252.038 130.377 251.227 130.305 250.778 130.305C250.184 130.305 249.402 130.377 248.432 130.522C248.302 130.522 248.2 130.478 248.128 130.392C248.056 130.319 248.019 130.232 248.019 130.131C248.019 129.928 248.157 129.798 248.432 129.74C248.866 129.61 249.156 129.458 249.301 129.284C249.446 129.096 249.518 128.799 249.518 128.393V122.073L245.348 130.326C245.304 130.457 245.239 130.522 245.152 130.522C245.109 130.522 244.899 130.486 244.523 130.413C244.161 130.341 243.893 130.305 243.719 130.305C243.574 130.305 242.85 130.377 241.547 130.522C241.272 130.522 241.134 130.392 241.134 130.131C241.134 129.928 241.272 129.798 241.547 129.74C241.981 129.639 242.271 129.501 242.416 129.327C242.561 129.139 242.633 128.849 242.633 128.459V122.16C242.633 121.769 242.561 121.486 242.416 121.313C242.271 121.124 241.981 120.98 241.547 120.878C241.272 120.82 241.134 120.69 241.134 120.487C241.134 120.227 241.272 120.096 241.547 120.096C242.85 120.241 243.661 120.314 243.98 120.314C244.37 120.314 244.805 120.285 245.283 120.227L246.325 120.096C246.456 120.096 246.557 120.14 246.629 120.227C246.702 120.299 246.738 120.386 246.738 120.487C246.738 120.69 246.6 120.82 246.325 120.878C245.891 121.009 245.601 121.168 245.456 121.356C245.312 121.53 245.239 121.82 245.239 122.225ZM258.603 122.225V128.632L262.73 120.444C262.831 120.212 262.94 120.096 263.055 120.096C263.692 120.241 264.163 120.314 264.467 120.314C264.699 120.314 265.401 120.241 266.574 120.096C266.849 120.096 266.987 120.227 266.987 120.487C266.987 120.69 266.849 120.82 266.574 120.878C266.14 120.98 265.85 121.124 265.705 121.313C265.56 121.486 265.488 121.769 265.488 122.16V128.459C265.488 128.849 265.56 129.139 265.705 129.327C265.85 129.501 266.14 129.639 266.574 129.74C266.849 129.798 266.987 129.928 266.987 130.131C266.987 130.392 266.849 130.522 266.574 130.522C265.401 130.377 264.59 130.305 264.141 130.305C263.548 130.305 262.766 130.377 261.796 130.522C261.665 130.522 261.564 130.478 261.492 130.392C261.419 130.319 261.383 130.232 261.383 130.131C261.383 129.928 261.521 129.798 261.796 129.74C262.23 129.61 262.52 129.458 262.664 129.284C262.809 129.096 262.882 128.799 262.882 128.393V122.073L258.711 130.326C258.668 130.457 258.603 130.522 258.516 130.522C258.473 130.522 258.263 130.486 257.886 130.413C257.524 130.341 257.256 130.305 257.082 130.305C256.938 130.305 256.214 130.377 254.91 130.522C254.635 130.522 254.498 130.392 254.498 130.131C254.498 129.928 254.635 129.798 254.91 129.74C255.345 129.639 255.634 129.501 255.779 129.327C255.924 129.139 255.996 128.849 255.996 128.459V122.16C255.996 121.769 255.924 121.486 255.779 121.313C255.634 121.124 255.345 120.98 254.91 120.878C254.635 120.82 254.498 120.69 254.498 120.487C254.498 120.227 254.635 120.096 254.91 120.096C256.214 120.241 257.025 120.314 257.343 120.314C257.734 120.314 258.168 120.285 258.646 120.227L259.689 120.096C259.819 120.096 259.92 120.14 259.993 120.227C260.065 120.299 260.101 120.386 260.101 120.487C260.101 120.69 259.964 120.82 259.689 120.878C259.254 121.009 258.965 121.168 258.82 121.356C258.675 121.53 258.603 121.82 258.603 122.225ZM261.187 118.685C260.594 118.685 260.051 118.533 259.558 118.229C259.066 117.924 258.69 117.541 258.429 117.077C258.386 117.005 258.364 116.947 258.364 116.904C258.364 116.86 258.4 116.802 258.473 116.73L259.276 116.1C259.32 116.057 259.363 116.035 259.406 116.035C259.522 116.035 259.587 116.078 259.602 116.165C260.109 116.889 260.739 117.251 261.492 117.251C262.433 117.251 263.157 116.911 263.664 116.23C263.75 116.071 263.873 115.991 264.033 115.991C264.221 115.991 264.315 116.086 264.315 116.274C264.315 116.332 264.301 116.404 264.272 116.491C264.011 117.114 263.598 117.635 263.034 118.055C262.469 118.475 261.854 118.685 261.187 118.685ZM288.691 120.314C289.241 120.314 289.972 120.241 290.884 120.096C291.015 120.096 291.116 120.14 291.188 120.227C291.261 120.299 291.297 120.386 291.297 120.487C291.297 120.69 291.159 120.82 290.884 120.878C289.682 121.182 288.698 121.675 287.93 122.355C287.757 122.486 287.467 122.739 287.062 123.115L286.236 123.854L289.972 128.437C290.609 129.19 291.152 129.624 291.601 129.74C291.876 129.798 292.014 129.928 292.014 130.131C292.014 130.232 291.977 130.319 291.905 130.392C291.833 130.478 291.731 130.522 291.601 130.522C290.356 130.377 289.567 130.305 289.234 130.305C288.9 130.305 288.061 130.377 286.714 130.522C286.439 130.522 286.301 130.392 286.301 130.131C286.301 129.972 286.439 129.841 286.714 129.74C286.931 129.624 287.04 129.45 287.04 129.219C287.04 128.958 286.975 128.741 286.844 128.567L284.629 125.722C284.412 125.447 283.97 125.309 283.304 125.309V128.393C283.304 128.77 283.384 129.059 283.543 129.262C283.717 129.45 284.028 129.61 284.477 129.74C284.752 129.798 284.89 129.928 284.89 130.131C284.89 130.232 284.853 130.319 284.781 130.392C284.709 130.478 284.607 130.522 284.477 130.522C283.188 130.377 282.377 130.305 282.044 130.305C281.436 130.305 280.625 130.377 279.612 130.522C279.337 130.522 279.199 130.392 279.199 130.131C279.199 129.928 279.337 129.798 279.612 129.74C280.075 129.653 280.372 129.523 280.502 129.349C280.633 129.175 280.698 128.878 280.698 128.459V125.309C280.032 125.309 279.59 125.447 279.373 125.722L277.157 128.567C277.027 128.741 276.962 128.958 276.962 129.219C276.962 129.45 277.07 129.624 277.288 129.74C277.563 129.841 277.7 129.972 277.7 130.131C277.7 130.392 277.563 130.522 277.288 130.522C275.941 130.377 275.101 130.305 274.768 130.305C274.435 130.305 273.646 130.377 272.401 130.522C272.27 130.522 272.169 130.478 272.097 130.392C272.024 130.319 271.988 130.232 271.988 130.131C271.988 129.928 272.126 129.798 272.401 129.74C272.85 129.624 273.393 129.19 274.03 128.437L277.766 123.854L276.94 123.115C276.535 122.739 276.245 122.486 276.071 122.355C275.304 121.675 274.319 121.182 273.118 120.878C272.842 120.82 272.705 120.69 272.705 120.487C272.705 120.386 272.741 120.299 272.813 120.227C272.886 120.14 272.987 120.096 273.118 120.096C274.03 120.241 274.761 120.314 275.311 120.314C275.89 120.314 276.643 120.241 277.57 120.096C277.845 120.096 277.983 120.227 277.983 120.487C277.983 120.661 277.845 120.791 277.57 120.878C277.266 120.994 277.114 121.153 277.114 121.356C277.114 121.544 277.302 121.827 277.679 122.203L279.177 123.68C279.684 124.187 280.191 124.44 280.698 124.44V122.16C280.698 121.74 280.633 121.45 280.502 121.291C280.372 121.117 280.075 120.98 279.612 120.878C279.337 120.82 279.199 120.69 279.199 120.487C279.199 120.227 279.337 120.096 279.612 120.096C280.625 120.241 281.436 120.314 282.044 120.314C282.377 120.314 283.188 120.241 284.477 120.096C284.607 120.096 284.709 120.14 284.781 120.227C284.853 120.299 284.89 120.386 284.89 120.487C284.89 120.69 284.752 120.82 284.477 120.878C284.028 121.009 283.717 121.175 283.543 121.378C283.384 121.566 283.304 121.848 283.304 122.225V124.44C283.811 124.44 284.318 124.187 284.824 123.68L286.323 122.203C286.7 121.827 286.888 121.544 286.888 121.356C286.888 121.153 286.736 120.994 286.432 120.878C286.157 120.791 286.019 120.661 286.019 120.487C286.019 120.227 286.157 120.096 286.432 120.096C287.358 120.241 288.111 120.314 288.691 120.314ZM297.018 120.096C297.988 120.096 298.871 120.386 299.667 120.965C300.464 121.53 300.876 122.305 300.905 123.289C300.905 123.622 300.732 123.789 300.384 123.789H294.759C294.73 124.078 294.715 124.375 294.715 124.679C294.715 125.606 294.998 126.482 295.562 127.307C296.127 128.118 296.894 128.524 297.865 128.524C298.328 128.524 298.791 128.415 299.255 128.198C299.732 127.966 300.08 127.684 300.297 127.351C300.427 127.163 300.543 127.068 300.645 127.068C300.891 127.068 301.014 127.184 301.014 127.416C301.014 127.503 301.007 127.561 300.992 127.59C300.746 128.415 300.203 129.11 299.363 129.675C298.523 130.24 297.604 130.522 296.605 130.522C295.215 130.522 294.143 130.037 293.39 129.067C292.623 128.082 292.239 126.909 292.239 125.548C292.239 123.883 292.695 122.558 293.608 121.573C294.52 120.589 295.656 120.096 297.018 120.096ZM296.887 121.074C295.801 121.074 295.121 121.754 294.846 123.115H297.278C297.886 123.115 298.19 122.811 298.19 122.203C298.19 121.856 298.067 121.581 297.821 121.378C297.575 121.175 297.264 121.074 296.887 121.074ZM307.593 120.096C308.346 120.096 309.026 120.248 309.635 120.553C310.257 120.828 310.569 121.262 310.569 121.856C310.569 122.203 310.445 122.478 310.199 122.681C309.968 122.869 309.649 122.963 309.244 122.963C308.882 122.963 308.592 122.869 308.375 122.681C308.172 122.478 308.035 122.261 307.962 122.029C307.89 121.783 307.774 121.566 307.615 121.378C307.455 121.175 307.238 121.074 306.963 121.074C306.471 121.074 306.058 121.291 305.725 121.725C305.247 122.406 305.008 123.376 305.008 124.636C305.008 125.07 305.059 125.497 305.16 125.917C305.262 126.337 305.407 126.743 305.595 127.134C305.797 127.51 306.08 127.821 306.442 128.068C306.804 128.299 307.216 128.415 307.68 128.415C308.664 128.415 309.403 128.039 309.895 127.286C310.026 127.097 310.141 127.003 310.243 127.003C310.489 127.003 310.612 127.141 310.612 127.416C310.612 127.503 310.605 127.561 310.59 127.59C310.359 128.459 309.881 129.168 309.157 129.718C308.447 130.254 307.622 130.522 306.681 130.522C305.291 130.522 304.219 130.037 303.466 129.067C302.699 128.082 302.315 126.909 302.315 125.548C302.315 123.854 302.8 122.522 303.77 121.552C304.74 120.582 306.015 120.096 307.593 120.096ZM313.075 120.314H320.677C320.895 120.314 321.076 120.205 321.22 119.988C321.394 119.771 321.546 119.662 321.676 119.662C321.749 119.662 321.821 119.698 321.894 119.771C321.981 119.843 322.031 119.923 322.046 120.01C322.046 120.111 322.06 120.596 322.089 121.465L322.154 122.898C322.154 123.231 322.038 123.398 321.807 123.398C321.59 123.398 321.438 123.224 321.351 122.877C321.148 122.095 320.692 121.602 319.982 121.4C319.519 121.255 319.128 121.182 318.809 121.182H318.049V128.545C318.049 129.197 318.52 129.602 319.461 129.762C319.678 129.834 319.787 129.964 319.787 130.153C319.787 130.268 319.743 130.355 319.657 130.413C319.584 130.486 319.497 130.522 319.396 130.522C319.381 130.522 319.324 130.515 319.222 130.5C319.135 130.5 318.976 130.486 318.744 130.457C318.527 130.442 318.31 130.428 318.093 130.413C317.224 130.341 316.703 130.305 316.529 130.305C316.196 130.305 315.769 130.334 315.247 130.392L314.118 130.522C314.017 130.522 313.923 130.486 313.836 130.413C313.749 130.341 313.705 130.254 313.705 130.153C313.705 129.964 313.828 129.834 314.075 129.762C314.987 129.516 315.443 129.103 315.443 128.524V121.182H314.639C313.38 121.182 312.446 121.776 311.837 122.963C311.707 123.253 311.555 123.398 311.381 123.398C311.164 123.398 311.056 123.282 311.056 123.05V123.007C311.07 122.992 311.077 122.971 311.077 122.942C311.092 122.898 311.099 122.862 311.099 122.833L311.837 119.944C311.852 119.886 311.903 119.829 311.99 119.771C312.076 119.698 312.142 119.662 312.185 119.662C312.359 119.662 312.496 119.771 312.598 119.988C312.728 120.205 312.887 120.314 313.075 120.314ZM325.798 120.01C325.943 120.01 326.066 120.075 326.168 120.205L329.99 124.853C330.193 125.128 330.208 125.389 330.034 125.635L326.168 130.392C326.066 130.522 325.936 130.587 325.777 130.587C325.531 130.587 325.408 130.471 325.408 130.24C325.408 130.167 325.429 130.095 325.473 130.022L327.905 125.244L325.538 120.683C325.465 120.495 325.429 120.379 325.429 120.335C325.429 120.263 325.465 120.191 325.538 120.118C325.625 120.046 325.712 120.01 325.798 120.01ZM323.344 120.618C323.503 120.618 323.627 120.712 323.713 120.9L326.385 124.853C326.486 125.012 326.537 125.15 326.537 125.266C326.537 125.382 326.494 125.505 326.407 125.635L323.713 129.675C323.627 129.82 323.518 129.892 323.388 129.892C323.156 129.892 323.04 129.783 323.04 129.566C323.141 129.219 323.641 127.792 324.539 125.287L323.04 121.117C323.026 121.103 323.018 121.052 323.018 120.965C323.018 120.734 323.127 120.618 323.344 120.618Z" fill="white"/>
</svg>
