<svg width="401" height="183" viewBox="0 0 401 183" fill="none" xmlns="http://www.w3.org/2000/svg">
<rect x="56.1436" y="66.3242" width="298.776" height="49.796" fill="black"/>
<path d="M367.41 10.333C369.767 21.5898 379.082 30.1914 390.399 32.1405L390.129 149.78C378.017 152.505 370.15 160.33 367.41 172.378L33.3643 172.66C30.2262 160.302 22.6294 152.505 9.97754 149.78L9.97754 33.6235L11.1703 31.9992C22.743 30.1772 30.7231 21.6463 32.6685 10.3047L367.424 10.333H367.41ZM77.0706 88.7637C76.2186 86.3485 75.0685 76.6029 72.9669 76.5464C70.056 78.6368 70.8228 79.23 71.6464 82.0548C72.2143 84.018 76.7014 97.5771 77.9226 96.2918C80.9187 89.8795 77.3404 89.5688 77.0706 88.7637ZM86.4423 97.6901C86.1725 94.5828 85.491 76.5888 82.9066 76.5464C79.7401 78.9052 81.7707 86.1932 82.4238 89.7101C82.8782 92.1959 82.5374 98.8906 86.4423 97.7042V97.6901ZM107.756 76.5182C98.9238 77.9447 106.052 91.5885 103.496 97.6901L107.756 97.6901V76.5182ZM131.895 84.9785C133.145 81.9418 134.238 76.1368 129.055 76.5182V84.9926L126.301 83.6226L120.536 97.6901L124.81 96.7438L128.345 87.8033L129.055 97.7184L133.315 97.6901L132.619 87.8033C135.8 87.0688 137.021 94.9359 137.561 96.7438L141.835 97.6759L136.127 83.5519L131.895 84.9643V84.9785ZM165.974 77.9306L165.974 97.7042L173.088 96.9839L172.364 93.4387L168.828 96.2777C167.962 88.2552 173.102 71.3205 159.499 77.8882L160.309 87.8033L161.714 77.9164H165.974V77.9306ZM190.128 97.7184C188.765 91.6027 193.791 77.4786 185.868 76.5323C185.129 77.2526 191.022 94.0885 184.462 96.2918L178.058 77.9447C173.145 83.0717 181.651 91.066 180.245 97.6478L190.128 97.7184ZM195.793 76.5182L195.793 97.7042H200.053C197.071 91.8004 199.443 84.8513 198.633 78.6085C198.363 76.5464 197.54 74.216 195.793 76.5182ZM205.733 76.5182L201.928 78.5803C203.887 84.696 202.936 90.9247 201.445 96.9839L205.733 97.7042L205.733 76.5182ZM211.413 76.5182L211.413 97.7042H215.673C212.691 91.8004 215.062 84.8513 214.253 78.6085C213.983 76.5464 213.159 74.216 211.413 76.5182ZM221.353 76.5182L217.618 78.6085C218.158 84.7242 218.612 91.0235 217.079 96.9839L221.367 97.7042L221.367 76.5182H221.353ZM93.5563 97.6901C88.5581 91.2778 91.753 84.9502 91.4406 77.9306C86.3713 82.2949 85.4768 96.3907 93.5563 97.6901ZM99.2077 97.7042C101.977 91.8145 104.973 80.2752 96.3962 77.9447C100.358 84.5971 99.4775 90.8964 96.3962 97.6901H99.2077V97.7042ZM143.255 77.9306L143.255 97.7042L147.543 96.9839C145.811 91.4331 146.109 83.7214 147.515 77.9447H143.255V77.9306ZM296.61 82.1678C293.671 82.2949 285.024 80.7272 285.421 85.4587C288.36 94.597 297.817 91.0377 296.61 82.1678ZM340.615 86.405H330.689V100.515H340.629C341.098 97.8454 337.874 99.8793 336.682 98.8483C336.071 98.3257 336.014 94.8229 334.949 93.4811C340.274 93.7778 341.254 91.3625 340.629 86.405H340.615Z" fill="black"/>
<path d="M400.684 26.0159L400.979 156.854C387.359 160.297 378.838 166.76 377.158 181.899L24.3518 182.111C23.2905 168.99 13.2815 157.612 0 157.719L0.132662 26.7592L1.34141 24.9692C15.8316 24.1804 21.7574 14.0471 24.9267 0.773666L373.635 0C378.337 0.864669 377.983 7.52415 379.973 11.6806C384.705 21.5864 391 22.9213 400.684 26.0159ZM397.795 27.4722C389.879 26.6986 382.347 21.996 378.47 14.7449C376.067 10.2698 376.657 3.9441 372.161 3.03393L27.3737 2.9581C24.0275 15.7158 15.9643 25.9552 2.80075 28.2003L3.08082 153.805C8.34329 157.612 14.1954 157.84 19.1041 163.104C23.3789 167.7 24.5139 173.889 27.4621 179.093L373.443 178.82C379.133 167.2 384.337 157.506 398.046 155.398L397.81 27.4722H397.795Z" fill="black"/>
<path d="M399.181 27.3079L399.474 157.002C385.955 160.415 377.498 166.821 375.83 181.828L25.6436 182.038C24.5902 169.031 14.6555 157.753 1.47266 157.859L1.60433 28.0447L2.8041 26.2704C17.1867 25.4885 23.0685 15.4438 26.2142 2.28643L372.333 1.51953C377 2.37664 376.649 8.97788 378.624 13.098C383.321 22.9171 389.569 24.2404 399.181 27.3079ZM396.314 28.7515C388.457 27.9846 380.98 23.3231 377.132 16.1354C374.747 11.6995 375.332 5.42914 370.87 4.52692L28.643 4.45175C25.3217 17.0978 17.3184 27.2477 4.25261 29.4732L4.5306 153.979C9.75398 157.753 15.5626 157.979 20.4349 163.197C24.6779 167.753 25.8046 173.888 28.7308 179.046L372.143 178.775C377.79 167.257 382.955 157.648 396.562 155.558L396.328 28.7515H396.314Z" fill="black"/>
<path d="M397.711 27.0873L398.002 155.691C384.582 159.076 376.188 165.428 374.532 180.309L26.9402 180.517C25.8945 167.62 16.0334 156.437 2.94824 156.541L3.07894 27.8179L4.26983 26.0585C18.5459 25.2831 24.3841 15.3228 27.5065 2.27608L371.062 1.51563C375.694 2.36553 375.346 8.91129 377.306 12.9968C381.968 22.7334 388.17 24.0456 397.711 27.0873ZM394.865 28.5187C387.066 27.7583 379.645 23.136 375.825 16.0087C373.458 11.6101 374.039 5.39238 369.609 4.49774L29.9174 4.42321C26.6207 16.963 18.6766 27.0276 5.70761 29.2344L5.98353 152.694C11.1682 156.437 16.9338 156.66 21.77 161.834C25.9816 166.352 27.0999 172.436 30.0045 177.55L370.873 177.282C376.479 165.86 381.605 156.332 395.112 154.26L394.879 28.5187H394.865Z" fill="black"/>
<path d="M101.648 52.4228C103.277 52.4228 104.451 52.8015 105.17 53.5589C105.909 54.3163 106.278 55.4619 106.278 56.9956V57.7057C106.278 58.7282 106.117 59.5708 105.795 60.2335C105.473 60.8963 104.962 61.3886 104.261 61.7105C105.113 62.0324 105.71 62.5626 106.051 63.301C106.411 64.0206 106.59 64.9105 106.59 65.9709V67.5898C106.59 69.1236 106.193 70.2976 105.397 71.1118C104.602 71.907 103.419 72.3047 101.847 72.3047H96.9335L96.9335 52.4228H101.648ZM100.058 63.3578V69.4644H101.847C102.377 69.4644 102.775 69.3224 103.04 69.0384C103.324 68.7544 103.466 68.2431 103.466 67.5046V65.7721C103.466 64.8442 103.305 64.2099 102.983 63.8691C102.68 63.5283 102.169 63.3578 101.45 63.3578H100.058ZM100.058 55.2631V60.5176H101.279C101.866 60.5176 102.321 60.3661 102.642 60.0631C102.983 59.7602 103.154 59.211 103.154 58.4158V57.3081C103.154 56.5885 103.021 56.0678 102.756 55.7459C102.51 55.424 102.112 55.2631 101.563 55.2631H100.058ZM117.476 64.8916V67.533C117.476 69.1425 117.079 70.3828 116.283 71.2538C115.507 72.1059 114.352 72.5319 112.818 72.5319C111.285 72.5319 110.12 72.1059 109.325 71.2538C108.548 70.3828 108.16 69.1425 108.16 67.533V57.1945C108.16 55.585 108.548 54.3542 109.325 53.5021C110.12 52.6311 111.285 52.1956 112.818 52.1956C114.352 52.1956 115.507 52.6311 116.283 53.5021C117.079 54.3542 117.476 55.585 117.476 57.1945V59.1258H114.523V56.9956C114.523 56.2761 114.371 55.7743 114.068 55.4903C113.784 55.1873 113.396 55.0359 112.904 55.0359C112.411 55.0359 112.014 55.1873 111.711 55.4903C111.427 55.7743 111.285 56.2761 111.285 56.9956V67.7319C111.285 68.4514 111.427 68.9532 111.711 69.2372C112.014 69.5212 112.411 69.6632 112.904 69.6632C113.396 69.6632 113.784 69.5212 114.068 69.2372C114.371 68.9532 114.523 68.4514 114.523 67.7319V64.8916H117.476ZM122.58 60.8016H126.869V63.6419H122.58V69.4644H127.977V72.3047H119.456V52.4228H127.977V55.2631H122.58V60.8016ZM134.544 52.4228C136.173 52.4228 137.347 52.8015 138.066 53.5589C138.805 54.3163 139.174 55.4619 139.174 56.9956V57.7057C139.174 58.7282 139.013 59.5708 138.691 60.2335C138.369 60.8963 137.858 61.3886 137.157 61.7105C138.01 62.0324 138.606 62.5626 138.947 63.301C139.307 64.0206 139.486 64.9105 139.486 65.9709V67.5898C139.486 69.1236 139.089 70.2976 138.294 71.1118C137.498 71.907 136.315 72.3047 134.743 72.3047H129.83V52.4228H134.544ZM132.954 63.3578V69.4644H134.743C135.273 69.4644 135.671 69.3224 135.936 69.0384C136.22 68.7544 136.362 68.2431 136.362 67.5046V65.7721C136.362 64.8442 136.201 64.2099 135.879 63.8691C135.576 63.5283 135.065 63.3578 134.346 63.3578H132.954ZM132.954 55.2631V60.5176H134.175C134.762 60.5176 135.217 60.3661 135.539 60.0631C135.879 59.7602 136.05 59.211 136.05 58.4158V57.3081C136.05 56.5885 135.917 56.0678 135.652 55.7459C135.406 55.424 135.008 55.2631 134.459 55.2631H132.954ZM144.181 67.7319C144.181 68.4514 144.323 68.9626 144.607 69.2656C144.91 69.5496 145.307 69.6916 145.8 69.6916C146.292 69.6916 146.68 69.5496 146.964 69.2656C147.267 68.9626 147.419 68.4514 147.419 67.7319V56.9956C147.419 56.2761 147.267 55.7743 146.964 55.4903C146.68 55.1873 146.292 55.0359 145.8 55.0359C145.307 55.0359 144.91 55.1873 144.607 55.4903C144.323 55.7743 144.181 56.2761 144.181 56.9956V67.7319ZM141.056 57.1945C141.056 55.585 141.463 54.3542 142.278 53.5021C143.092 52.6311 144.266 52.1956 145.8 52.1956C147.333 52.1956 148.507 52.6311 149.322 53.5021C150.136 54.3542 150.543 55.585 150.543 57.1945V67.533C150.543 69.1425 150.136 70.3828 149.322 71.2538C148.507 72.1059 147.333 72.5319 145.8 72.5319C144.266 72.5319 143.092 72.1059 142.278 71.2538C141.463 70.3828 141.056 69.1425 141.056 67.533V57.1945ZM161.295 55.2631H157.659V67.3626C157.659 68.3662 157.536 69.1899 157.29 69.8337C157.044 70.4774 156.713 70.9887 156.296 71.3674C155.879 71.7272 155.397 71.9828 154.847 72.1343C154.317 72.2858 153.759 72.3615 153.172 72.3615C152.888 72.3615 152.632 72.3615 152.405 72.3615C152.178 72.3615 151.931 72.3426 151.666 72.3047V69.4644C151.837 69.4834 152.017 69.4928 152.206 69.4928C152.395 69.4928 152.575 69.4928 152.746 69.4928C153.238 69.4928 153.655 69.3697 153.995 69.1236C154.355 68.8774 154.535 68.3662 154.535 67.5898V52.4228H164.419V72.3047H161.295V55.2631ZM169.532 67.7319C169.532 68.4514 169.674 68.9626 169.958 69.2656C170.261 69.5496 170.659 69.6916 171.151 69.6916C171.644 69.6916 172.032 69.5496 172.316 69.2656C172.619 68.9626 172.77 68.4514 172.77 67.7319V56.9956C172.77 56.2761 172.619 55.7743 172.316 55.4903C172.032 55.1873 171.644 55.0359 171.151 55.0359C170.659 55.0359 170.261 55.1873 169.958 55.4903C169.674 55.7743 169.532 56.2761 169.532 56.9956V67.7319ZM166.408 57.1945C166.408 55.585 166.815 54.3542 167.629 53.5021C168.444 52.6311 169.618 52.1956 171.151 52.1956C172.685 52.1956 173.859 52.6311 174.673 53.5021C175.487 54.3542 175.895 55.585 175.895 57.1945V67.533C175.895 69.1425 175.487 70.3828 174.673 71.2538C173.859 72.1059 172.685 72.5319 171.151 72.5319C169.618 72.5319 168.444 72.1059 167.629 71.2538C166.815 70.3828 166.408 69.1425 166.408 67.533V57.1945ZM176.734 69.4644C176.904 69.4834 177.084 69.4928 177.274 69.4928C177.463 69.4928 177.643 69.4928 177.813 69.4928C178.306 69.4928 178.722 69.3697 179.063 69.1236C179.423 68.8774 179.603 68.3662 179.603 67.5898V52.4228H189.487V69.4644H191.077V74.5769H187.896V72.3047H179.915V74.5769H176.734V69.4644ZM182.727 67.3626C182.727 68.1958 182.642 68.8964 182.471 69.4644H186.362V55.2631H182.727V67.3626ZM202.667 56.9956C202.667 56.2761 202.515 55.7743 202.212 55.4903C201.928 55.1873 201.54 55.0359 201.048 55.0359C200.555 55.0359 200.158 55.1873 199.855 55.4903C199.571 55.7743 199.429 56.2761 199.429 56.9956V59.1258H196.475V57.1945C196.475 55.585 196.863 54.3542 197.639 53.5021C198.435 52.6311 199.599 52.1956 201.133 52.1956C202.667 52.1956 203.822 52.6311 204.598 53.5021C205.393 54.3542 205.791 55.585 205.791 57.1945V67.533C205.791 69.1425 205.393 70.3828 204.598 71.2538C203.822 72.1059 202.667 72.5319 201.133 72.5319C199.599 72.5319 198.435 72.1059 197.639 71.2538C196.863 70.3828 196.475 69.1425 196.475 67.533V64.8916H199.429V67.7319C199.429 68.4514 199.571 68.9532 199.855 69.2372C200.158 69.5212 200.555 69.6632 201.048 69.6632C201.54 69.6632 201.928 69.5212 202.212 69.2372C202.515 68.9532 202.667 68.4514 202.667 67.7319V63.6419H198.378V60.8016H202.667V56.9956ZM214.417 66.5389L216.547 52.4228H220.893V72.3047H217.939V58.0465L215.78 72.3047H212.826L210.497 58.2454V72.3047H207.771V52.4228H212.116L214.417 66.5389ZM226.374 72.3047H223.165V52.4228H225.948V64.3235L229.158 52.4228H233.077V72.3047H230.265V57.9045L226.374 72.3047ZM244.118 55.2631H240.482V67.3626C240.482 68.3662 240.359 69.1899 240.113 69.8337C239.867 70.4774 239.535 70.9887 239.119 71.3674C238.702 71.7272 238.219 71.9828 237.67 72.1343C237.14 72.2858 236.581 72.3615 235.994 72.3615C235.71 72.3615 235.455 72.3615 235.227 72.3615C235 72.3615 234.754 72.3426 234.489 72.3047V69.4644C234.659 69.4834 234.839 69.4928 235.029 69.4928C235.218 69.4928 235.398 69.4928 235.568 69.4928C236.061 69.4928 236.477 69.3697 236.818 69.1236C237.178 68.8774 237.358 68.3662 237.358 67.5898V52.4228H247.242V72.3047H244.118V55.2631ZM254.116 69.4644C254.608 69.4644 254.987 69.3319 255.252 69.0668C255.517 68.8017 255.65 68.3094 255.65 67.5898V64.6076C255.65 63.888 255.517 63.3957 255.252 63.1306C254.987 62.8655 254.608 62.733 254.116 62.733H252.639V69.4644H254.116ZM249.515 72.3047V52.4228H252.639V59.8927H254.116C255.688 59.8927 256.852 60.3093 257.609 61.1424C258.386 61.9756 258.774 63.1969 258.774 64.8064V67.391C258.774 69.0005 258.386 70.2218 257.609 71.055C256.852 71.8881 255.688 72.3047 254.116 72.3047H249.515ZM263.318 60.8016H267.607V63.6419H263.318V69.4644H268.714V72.3047H260.193V52.4228H268.714V55.2631H263.318V60.8016ZM275.282 52.4228C276.91 52.4228 278.084 52.8015 278.804 53.5589C279.542 54.3163 279.912 55.4619 279.912 56.9956V57.7057C279.912 58.7282 279.751 59.5708 279.429 60.2335C279.107 60.8963 278.596 61.3886 277.895 61.7105C278.747 62.0324 279.344 62.5626 279.684 63.301C280.044 64.0206 280.224 64.9105 280.224 65.9709V67.5898C280.224 69.1236 279.826 70.2976 279.031 71.1118C278.236 71.907 277.052 72.3047 275.481 72.3047H270.567V52.4228H275.282ZM273.691 63.3578V69.4644H275.481C276.011 69.4644 276.409 69.3224 276.674 69.0384C276.958 68.7544 277.1 68.2431 277.1 67.5046V65.7721C277.1 64.8442 276.939 64.2099 276.617 63.8691C276.314 63.5283 275.803 63.3578 275.083 63.3578H273.691ZM273.691 55.2631V60.5176H274.913C275.5 60.5176 275.954 60.3661 276.276 60.0631C276.617 59.7602 276.787 59.211 276.787 58.4158V57.3081C276.787 56.5885 276.655 56.0678 276.39 55.7459C276.143 55.424 275.746 55.2631 275.197 55.2631H273.691ZM285.287 72.3047H282.078V52.4228H284.861V64.3235L288.071 52.4228H291.99V72.3047H289.179V57.9045L285.287 72.3047ZM296.669 52.4228V60.0915C296.669 60.8111 296.811 61.3128 297.095 61.5969C297.398 61.8809 297.795 62.0229 298.288 62.0229C298.761 62.0229 299.14 61.8998 299.424 61.6537C299.708 61.3886 299.869 60.9436 299.907 60.3188V52.4228H303.031V72.3047H299.907V64.6644C299.642 64.759 299.367 64.8253 299.083 64.8632C298.818 64.8821 298.524 64.8916 298.202 64.8916C296.669 64.8916 295.504 64.4655 294.709 63.6135C293.933 62.7424 293.544 61.5022 293.544 59.8927V52.4228H296.669ZM146.905 97.5389L149.035 83.4228H153.381V103.305H150.427V89.0465L148.268 103.305H145.314L142.985 89.2454V103.305H140.259V83.4228H144.604L146.905 97.5389ZM158.777 91.8016H163.066V94.6419H158.777V100.464H164.174V103.305H155.653V83.4228H164.174V86.2631H158.777V91.8016ZM169.236 103.305H166.026V83.4228H168.81V95.3235L172.019 83.4228H175.939V103.305H173.127V88.9045L169.236 103.305ZM174.462 79.9861V82.3151H167.588V79.9861H174.462ZM181.327 91.8016H185.616V94.6419H181.327V100.464H186.724V103.305H178.203V83.4228H186.724V86.2631H181.327V91.8016ZM193.178 83.4228C194.749 83.4228 195.914 83.8394 196.671 84.6725C197.448 85.5057 197.836 86.727 197.836 88.3365V90.9211C197.836 92.5306 197.448 93.7519 196.671 94.5851C195.914 95.4182 194.749 95.8348 193.178 95.8348H191.701V103.305H188.577V83.4228H193.178ZM191.701 86.2631V92.9945H193.178C193.67 92.9945 194.049 92.862 194.314 92.5969C194.579 92.3318 194.712 91.8395 194.712 91.1199V88.1377C194.712 87.4181 194.579 86.9258 194.314 86.6607C194.049 86.3956 193.67 86.2631 193.178 86.2631H191.701ZM209.679 83.4228L206.413 93.0797L209.906 103.305H206.612L204.055 95.4371L201.471 103.305H198.545L202.039 93.0797L198.772 83.4228H202.01L204.368 90.7507L206.782 83.4228H209.679ZM214.3 98.7319C214.3 99.4514 214.442 99.9626 214.726 100.266C215.029 100.55 215.426 100.692 215.919 100.692C216.411 100.692 216.799 100.55 217.083 100.266C217.386 99.9626 217.538 99.4514 217.538 98.7319V87.9956C217.538 87.2761 217.386 86.7743 217.083 86.4903C216.799 86.1873 216.411 86.0359 215.919 86.0359C215.426 86.0359 215.029 86.1873 214.726 86.4903C214.442 86.7743 214.3 87.2761 214.3 87.9956V98.7319ZM211.176 88.1945C211.176 86.585 211.583 85.3542 212.397 84.5021C213.211 83.6311 214.385 83.1956 215.919 83.1956C217.453 83.1956 218.626 83.6311 219.441 84.5021C220.255 85.3542 220.662 86.585 220.662 88.1945V98.533C220.662 100.143 220.255 101.383 219.441 102.254C218.626 103.106 217.453 103.532 215.919 103.532C214.385 103.532 213.211 103.106 212.397 102.254C211.583 101.383 211.176 100.143 211.176 98.533V88.1945ZM231.414 86.2631L227.778 86.2631V98.3626C227.778 99.3662 227.655 100.19 227.409 100.834C227.163 101.477 226.832 101.989 226.415 102.367C225.999 102.727 225.516 102.983 224.967 103.134C224.436 103.286 223.878 103.361 223.291 103.361C223.007 103.361 222.751 103.361 222.524 103.361C222.297 103.361 222.051 103.343 221.785 103.305V100.464C221.956 100.483 222.136 100.493 222.325 100.493C222.514 100.493 222.694 100.493 222.865 100.493C223.357 100.493 223.774 100.37 224.114 100.124C224.474 99.8774 224.654 99.3662 224.654 98.5898V83.4228L234.538 83.4228V103.305H231.414V86.2631ZM241.412 100.464C241.905 100.464 242.283 100.332 242.548 100.067C242.814 99.8017 242.946 99.3094 242.946 98.5898V95.6076C242.946 94.888 242.814 94.3957 242.548 94.1306C242.283 93.8655 241.905 93.733 241.412 93.733H239.935V100.464H241.412ZM236.811 103.305V83.4228H239.935V90.8927H241.412C242.984 90.8927 244.149 91.3093 244.906 92.1424C245.682 92.9756 246.07 94.1969 246.07 95.8064V98.391C246.07 100.001 245.682 101.222 244.906 102.055C244.149 102.888 242.984 103.305 241.412 103.305H236.811ZM246.354 100.464C246.524 100.483 246.704 100.493 246.893 100.493C247.083 100.493 247.263 100.493 247.433 100.493C247.925 100.493 248.342 100.37 248.683 100.124C249.043 99.8774 249.222 99.3662 249.222 98.5898V83.4228H259.107V100.464H260.697V105.577H257.516V103.305H249.535V105.577H246.354V100.464ZM252.347 98.3626C252.347 99.1958 252.262 99.8964 252.091 100.464H255.982V86.2631H252.347V98.3626Z" fill="white"/>
<path d="M128.68 121.618C128.897 121.618 129.006 121.734 129.006 121.965C129.006 122.052 128.998 122.103 128.984 122.117L127.485 126.287C128.383 128.792 128.883 130.219 128.984 130.566C128.984 130.783 128.868 130.892 128.637 130.892C128.506 130.892 128.398 130.82 128.311 130.675L125.617 126.635C125.531 126.505 125.487 126.382 125.487 126.266C125.487 126.15 125.538 126.012 125.639 125.853L128.311 121.9C128.398 121.712 128.521 121.618 128.68 121.618ZM126.226 121.01C126.312 121.01 126.392 121.046 126.465 121.118C126.551 121.191 126.595 121.263 126.595 121.335C126.595 121.379 126.559 121.495 126.486 121.683L124.119 126.244L126.551 131.022C126.595 131.08 126.617 131.153 126.617 131.24C126.617 131.471 126.493 131.587 126.247 131.587C126.088 131.587 125.958 131.522 125.856 131.392L121.99 126.635C121.817 126.389 121.831 126.128 122.034 125.853L125.856 121.205C125.958 121.075 126.081 121.01 126.226 121.01ZM135.45 117.1V122.573H137.231C139.996 122.573 141.937 123.051 143.052 124.007C144.051 124.847 144.55 125.889 144.55 127.135C144.521 128.669 144.029 129.792 143.073 130.501C142.118 131.211 140.865 131.551 139.316 131.522C138.881 131.522 138.013 131.486 136.709 131.413C135.406 131.341 134.509 131.305 134.016 131.305C133.147 131.305 131.967 131.377 130.476 131.522C130.215 131.522 130.085 131.392 130.085 131.131C130.085 130.914 130.215 130.783 130.476 130.74C131.214 130.566 131.699 130.364 131.931 130.132C132.177 129.886 132.3 129.48 132.3 128.916V118.316C132.3 117.81 132.163 117.433 131.888 117.187C131.613 116.926 131.156 116.752 130.519 116.666C130.244 116.651 130.107 116.521 130.107 116.275C130.107 116.014 130.244 115.884 130.519 115.884C132.387 116.028 133.538 116.101 133.973 116.101H143.008C143.153 116.101 143.247 116.108 143.291 116.123C143.348 116.123 143.399 116.159 143.443 116.231C143.486 116.289 143.508 116.383 143.508 116.514V120.076C143.508 120.351 143.377 120.488 143.117 120.488C142.856 120.488 142.726 120.351 142.726 120.076C142.624 118.917 141.966 118.056 140.749 117.491C140.489 117.346 140.177 117.252 139.815 117.209C139.251 117.136 138.838 117.1 138.577 117.1H135.45ZM137.252 123.659H135.45V128.307C135.45 129.726 136.384 130.436 138.252 130.436C139.164 130.436 139.888 130.139 140.424 129.545C140.959 128.952 141.227 128.155 141.227 127.156C141.227 125.911 140.887 125.02 140.206 124.485C139.526 123.934 138.541 123.659 137.252 123.659ZM149.95 123.225V129.632L154.077 121.444C154.178 121.212 154.287 121.096 154.403 121.096C155.04 121.241 155.511 121.314 155.815 121.314C156.046 121.314 156.749 121.241 157.921 121.096C158.197 121.096 158.334 121.227 158.334 121.487C158.334 121.69 158.197 121.82 157.921 121.878C157.487 121.98 157.197 122.124 157.053 122.313C156.908 122.486 156.835 122.769 156.835 123.16V129.459C156.835 129.849 156.908 130.139 157.053 130.327C157.197 130.501 157.487 130.639 157.921 130.74C158.197 130.798 158.334 130.928 158.334 131.131C158.334 131.392 158.197 131.522 157.921 131.522C156.749 131.377 155.938 131.305 155.489 131.305C154.895 131.305 154.113 131.377 153.143 131.522C153.013 131.522 152.911 131.478 152.839 131.392C152.767 131.319 152.73 131.232 152.73 131.131C152.73 130.928 152.868 130.798 153.143 130.74C153.578 130.61 153.867 130.458 154.012 130.284C154.157 130.096 154.229 129.799 154.229 129.393V123.073L150.059 131.326C150.015 131.457 149.95 131.522 149.863 131.522C149.82 131.522 149.61 131.486 149.234 131.413C148.872 131.341 148.604 131.305 148.43 131.305C148.285 131.305 147.561 131.377 146.258 131.522C145.983 131.522 145.845 131.392 145.845 131.131C145.845 130.928 145.983 130.798 146.258 130.74C146.692 130.639 146.982 130.501 147.127 130.327C147.272 130.139 147.344 129.849 147.344 129.459V123.16C147.344 122.769 147.272 122.486 147.127 122.313C146.982 122.124 146.692 121.98 146.258 121.878C145.983 121.82 145.845 121.69 145.845 121.487C145.845 121.227 145.983 121.096 146.258 121.096C147.561 121.241 148.372 121.314 148.691 121.314C149.082 121.314 149.516 121.285 149.994 121.227L151.036 121.096C151.167 121.096 151.268 121.14 151.34 121.227C151.413 121.299 151.449 121.386 151.449 121.487C151.449 121.69 151.311 121.82 151.036 121.878C150.602 122.009 150.312 122.168 150.168 122.356C150.023 122.53 149.95 122.82 149.95 123.225ZM159.426 126.309C159.426 124.745 159.897 123.449 160.838 122.421C161.793 121.393 163.097 120.879 164.747 120.879C166.456 120.879 167.766 121.393 168.679 122.421C169.605 123.435 170.069 124.731 170.069 126.309C170.069 127.873 169.584 129.169 168.613 130.197C167.629 131.225 166.34 131.739 164.747 131.739C163.024 131.739 161.707 131.232 160.794 130.219C159.882 129.205 159.426 127.902 159.426 126.309ZM162.38 126.309C162.38 129.278 163.169 130.762 164.747 130.762C166.297 130.762 167.071 129.278 167.071 126.309C167.071 124.963 166.934 123.92 166.659 123.182C166.384 122.298 165.746 121.857 164.747 121.857C163.98 121.857 163.394 122.255 162.988 123.051C162.583 123.848 162.38 124.934 162.38 126.309ZM172.281 121.835C172.035 121.791 171.911 121.668 171.911 121.466C171.911 121.22 172.035 121.096 172.281 121.096C173.714 121.241 174.554 121.314 174.8 121.314C175.293 121.314 175.778 121.27 176.255 121.183C176.342 121.154 176.415 121.14 176.473 121.14C176.632 121.14 176.733 121.248 176.777 121.466L179.296 127.525L182.207 121.574C182.337 121.27 182.496 121.118 182.684 121.118C182.757 121.118 182.836 121.14 182.923 121.183C183.387 121.27 183.843 121.314 184.292 121.314C184.581 121.314 185.349 121.241 186.594 121.096C186.84 121.096 186.963 121.22 186.963 121.466C186.963 121.712 186.84 121.835 186.594 121.835C185.682 122.009 185.226 122.392 185.226 122.986L185.682 129.241C185.74 130.11 186.239 130.624 187.18 130.783C187.427 130.827 187.55 130.95 187.55 131.153C187.55 131.399 187.427 131.522 187.18 131.522C186.037 131.377 185.153 131.305 184.531 131.305C183.908 131.305 183.061 131.377 181.989 131.522C181.743 131.522 181.62 131.399 181.62 131.153C181.62 130.906 181.743 130.783 181.989 130.783C182.684 130.624 183.032 130.175 183.032 129.437V129.198L182.554 122.943L178.753 130.827C178.666 131.015 178.594 131.145 178.536 131.218C178.478 131.276 178.391 131.305 178.275 131.305C178.044 131.305 177.892 131.153 177.819 130.849L174.496 122.812L173.758 129.089C173.758 129.118 173.75 129.22 173.736 129.393C173.721 129.567 173.714 129.683 173.714 129.741C173.714 130.262 174.011 130.61 174.605 130.783C174.851 130.856 174.974 130.979 174.974 131.153C174.974 131.399 174.851 131.522 174.605 131.522C173.866 131.377 173.28 131.305 172.845 131.305C172.339 131.305 171.825 131.377 171.303 131.522C171.057 131.522 170.934 131.399 170.934 131.153C170.934 130.979 171.057 130.856 171.303 130.783C171.723 130.653 172.027 130.458 172.216 130.197C172.418 129.936 172.556 129.553 172.628 129.046L173.475 123.268C173.475 123.239 173.475 123.203 173.475 123.16C173.49 123.116 173.497 123.08 173.497 123.051C173.497 122.356 173.092 121.951 172.281 121.835ZM193.307 121.096C194.277 121.096 195.16 121.386 195.957 121.965C196.753 122.53 197.166 123.305 197.195 124.289C197.195 124.622 197.021 124.789 196.674 124.789H191.048C191.019 125.078 191.005 125.375 191.005 125.679C191.005 126.606 191.287 127.482 191.852 128.307C192.417 129.118 193.184 129.524 194.154 129.524C194.617 129.524 195.081 129.415 195.544 129.198C196.022 128.966 196.37 128.684 196.587 128.351C196.717 128.163 196.833 128.068 196.934 128.068C197.18 128.068 197.304 128.184 197.304 128.416C197.304 128.503 197.296 128.561 197.282 128.59C197.036 129.415 196.493 130.11 195.653 130.675C194.813 131.24 193.894 131.522 192.894 131.522C191.504 131.522 190.433 131.037 189.68 130.067C188.912 129.082 188.529 127.909 188.529 126.548C188.529 124.883 188.985 123.558 189.897 122.573C190.809 121.589 191.946 121.096 193.307 121.096ZM193.177 122.074C192.091 122.074 191.41 122.754 191.135 124.115H193.568C194.176 124.115 194.48 123.811 194.48 123.203C194.48 122.856 194.357 122.581 194.111 122.378C193.865 122.175 193.553 122.074 193.177 122.074ZM205.304 121.878C205.029 121.791 204.892 121.661 204.892 121.487C204.892 121.227 205.029 121.096 205.304 121.096C206.072 121.241 206.687 121.314 207.151 121.314C207.672 121.314 208.229 121.241 208.823 121.096C208.953 121.096 209.055 121.14 209.127 121.227C209.2 121.299 209.236 121.386 209.236 121.487C209.236 121.69 209.098 121.82 208.823 121.878C208.649 121.922 208.483 121.98 208.324 122.052C208.179 122.11 208.041 122.182 207.911 122.269C207.781 122.342 207.665 122.414 207.563 122.486C207.462 122.559 207.361 122.646 207.259 122.747C207.158 122.848 207.078 122.928 207.02 122.986C206.977 123.044 206.912 123.124 206.825 123.225C206.752 123.312 206.709 123.363 206.695 123.377L204.783 125.549L207.781 129.524C208.157 130.045 208.678 130.458 209.344 130.762C209.533 130.849 209.627 130.972 209.627 131.131C209.627 131.232 209.591 131.319 209.518 131.392C209.446 131.478 209.344 131.522 209.214 131.522C208.432 131.377 207.686 131.305 206.977 131.305C206.354 131.305 205.493 131.377 204.392 131.522C204.117 131.522 203.98 131.392 203.98 131.131C203.98 130.986 204.11 130.856 204.371 130.74C204.675 130.61 204.827 130.436 204.827 130.219C204.827 130.059 204.74 129.849 204.566 129.589L203.067 127.612L201.612 129.372C201.424 129.603 201.33 129.842 201.33 130.088C201.33 130.407 201.547 130.624 201.981 130.74C202.256 130.798 202.394 130.928 202.394 131.131C202.394 131.232 202.358 131.319 202.285 131.392C202.213 131.478 202.112 131.522 201.981 131.522C201.156 131.377 200.504 131.305 200.027 131.305C199.795 131.305 199.172 131.377 198.159 131.522C197.884 131.522 197.746 131.392 197.746 131.131C197.746 130.957 197.884 130.827 198.159 130.74C199.1 130.45 199.925 129.878 200.635 129.024L202.481 126.809L199.744 123.138C199.252 122.429 198.789 122.009 198.354 121.878C198.079 121.791 197.942 121.661 197.942 121.487C197.942 121.227 198.079 121.096 198.354 121.096C199.961 121.343 201.569 121.343 203.176 121.096C203.306 121.096 203.408 121.14 203.48 121.227C203.552 121.299 203.589 121.386 203.589 121.487C203.589 121.69 203.451 121.82 203.176 121.878C202.828 121.936 202.655 122.11 202.655 122.4C202.655 122.602 202.72 122.783 202.85 122.943L204.197 124.745L205.5 123.16C205.717 122.885 205.826 122.646 205.826 122.443C205.826 122.168 205.652 121.98 205.304 121.878ZM218.606 123.442V129.306C218.606 129.625 218.715 129.784 218.932 129.784C219.193 129.784 219.446 129.487 219.692 128.894C219.75 128.749 219.844 128.677 219.974 128.677C220.076 128.677 220.163 128.72 220.235 128.807C220.322 128.879 220.365 128.966 220.365 129.068C220.25 129.792 219.909 130.378 219.345 130.827C218.765 131.29 218.121 131.522 217.412 131.522C216.789 131.522 216.391 131.305 216.217 130.87C216.072 130.494 216 130.052 216 129.545C215.507 130.139 214.935 130.617 214.284 130.979C213.647 131.341 213.017 131.522 212.394 131.522C211.786 131.522 211.316 131.37 210.982 131.066C210.664 130.747 210.505 130.32 210.505 129.784C210.519 128.669 211.084 127.706 212.199 126.896C213.343 126.085 214.61 125.549 216 125.288V123.442C216 122.559 215.58 122.117 214.74 122.117C214.233 122.117 213.799 122.32 213.437 122.725C213.075 123.116 212.872 123.587 212.829 124.137C212.829 124.311 212.727 124.412 212.525 124.441L211.135 124.593C210.99 124.593 210.917 124.485 210.917 124.268C211.048 123.384 211.605 122.639 212.59 122.03C213.574 121.408 214.581 121.096 215.609 121.096C216.463 121.096 217.173 121.306 217.737 121.726C218.317 122.146 218.606 122.718 218.606 123.442ZM214.088 129.763C214.754 129.763 215.392 129.306 216 128.394V125.983C215.16 126.201 214.472 126.555 213.936 127.048C213.415 127.525 213.154 128.054 213.154 128.633C213.154 128.981 213.234 129.256 213.393 129.459C213.553 129.661 213.784 129.763 214.088 129.763ZM228.319 121.878C228.044 121.82 227.906 121.69 227.906 121.487C227.906 121.386 227.942 121.299 228.015 121.227C228.087 121.14 228.188 121.096 228.319 121.096C229.289 121.241 230.071 121.314 230.664 121.314C231.113 121.314 231.924 121.241 233.097 121.096C233.372 121.096 233.51 121.227 233.51 121.487C233.51 121.69 233.372 121.82 233.097 121.878C232.663 121.98 232.373 122.124 232.228 122.313C232.083 122.486 232.011 122.769 232.011 123.16V129.459C232.011 129.849 232.083 130.139 232.228 130.327C232.373 130.501 232.663 130.639 233.097 130.74C233.372 130.798 233.51 130.928 233.51 131.131C233.51 131.392 233.372 131.522 233.097 131.522C231.924 131.377 231.113 131.305 230.664 131.305C230.071 131.305 229.289 131.377 228.319 131.522C228.188 131.522 228.087 131.478 228.015 131.392C227.942 131.319 227.906 131.232 227.906 131.131C227.906 130.928 228.044 130.798 228.319 130.74C228.753 130.61 229.043 130.458 229.187 130.284C229.332 130.096 229.405 129.799 229.405 129.393V126.418H225.126V129.393C225.126 129.799 225.198 130.096 225.343 130.284C225.488 130.458 225.778 130.61 226.212 130.74C226.487 130.798 226.625 130.928 226.625 131.131C226.625 131.232 226.588 131.319 226.516 131.392C226.444 131.478 226.342 131.522 226.212 131.522L225.169 131.392C224.692 131.334 224.257 131.305 223.866 131.305C223.548 131.305 222.737 131.377 221.434 131.522C221.158 131.522 221.021 131.392 221.021 131.131C221.021 130.928 221.158 130.798 221.434 130.74C221.868 130.639 222.158 130.501 222.302 130.327C222.447 130.139 222.52 129.849 222.52 129.459V123.16C222.52 122.769 222.447 122.486 222.302 122.313C222.158 122.124 221.868 121.98 221.434 121.878C221.158 121.82 221.021 121.69 221.021 121.487C221.021 121.227 221.158 121.096 221.434 121.096C222.737 121.241 223.548 121.314 223.866 121.314C224.257 121.314 224.692 121.285 225.169 121.227L226.212 121.096C226.342 121.096 226.444 121.14 226.516 121.227C226.588 121.299 226.625 121.386 226.625 121.487C226.625 121.69 226.487 121.82 226.212 121.878C225.778 122.009 225.488 122.168 225.343 122.356C225.198 122.53 225.126 122.82 225.126 123.225V125.549H229.405V123.225C229.405 122.82 229.332 122.53 229.187 122.356C229.043 122.168 228.753 122.009 228.319 121.878ZM238.489 123.225V129.632L242.616 121.444C242.718 121.212 242.826 121.096 242.942 121.096C243.579 121.241 244.05 121.314 244.354 121.314C244.585 121.314 245.288 121.241 246.461 121.096C246.736 121.096 246.873 121.227 246.873 121.487C246.873 121.69 246.736 121.82 246.461 121.878C246.026 121.98 245.737 122.124 245.592 122.313C245.447 122.486 245.375 122.769 245.375 123.16V129.459C245.375 129.849 245.447 130.139 245.592 130.327C245.737 130.501 246.026 130.639 246.461 130.74C246.736 130.798 246.873 130.928 246.873 131.131C246.873 131.392 246.736 131.522 246.461 131.522C245.288 131.377 244.477 131.305 244.028 131.305C243.434 131.305 242.652 131.377 241.682 131.522C241.552 131.522 241.451 131.478 241.378 131.392C241.306 131.319 241.27 131.232 241.27 131.131C241.27 130.928 241.407 130.798 241.682 130.74C242.117 130.61 242.406 130.458 242.551 130.284C242.696 130.096 242.768 129.799 242.768 129.393V123.073L238.598 131.326C238.555 131.457 238.489 131.522 238.403 131.522C238.359 131.522 238.149 131.486 237.773 131.413C237.411 131.341 237.143 131.305 236.969 131.305C236.824 131.305 236.1 131.377 234.797 131.522C234.522 131.522 234.384 131.392 234.384 131.131C234.384 130.928 234.522 130.798 234.797 130.74C235.232 130.639 235.521 130.501 235.666 130.327C235.811 130.139 235.883 129.849 235.883 129.459V123.16C235.883 122.769 235.811 122.486 235.666 122.313C235.521 122.124 235.232 121.98 234.797 121.878C234.522 121.82 234.384 121.69 234.384 121.487C234.384 121.227 234.522 121.096 234.797 121.096C236.1 121.241 236.911 121.314 237.23 121.314C237.621 121.314 238.055 121.285 238.533 121.227L239.575 121.096C239.706 121.096 239.807 121.14 239.88 121.227C239.952 121.299 239.988 121.386 239.988 121.487C239.988 121.69 239.851 121.82 239.575 121.878C239.141 122.009 238.851 122.168 238.707 122.356C238.562 122.53 238.489 122.82 238.489 123.225ZM257.196 121.314C257.775 121.314 258.521 121.241 259.433 121.096C259.564 121.096 259.665 121.14 259.737 121.227C259.81 121.299 259.846 121.386 259.846 121.487C259.846 121.69 259.708 121.82 259.433 121.878C258.231 122.182 257.247 122.675 256.479 123.355C256.306 123.486 256.016 123.739 255.611 124.115L254.785 124.854L258.521 129.437C259.158 130.19 259.701 130.624 260.15 130.74C260.425 130.798 260.563 130.928 260.563 131.131C260.563 131.232 260.526 131.319 260.454 131.392C260.382 131.478 260.28 131.522 260.15 131.522C258.905 131.377 258.116 131.305 257.783 131.305C257.449 131.305 256.61 131.377 255.263 131.522C254.988 131.522 254.85 131.392 254.85 131.131C254.85 130.972 254.988 130.841 255.263 130.74C255.48 130.624 255.589 130.45 255.589 130.219C255.589 129.987 255.502 129.763 255.328 129.545L253.113 126.7C252.925 126.439 252.505 126.309 251.853 126.309V129.393C251.853 129.77 251.933 130.059 252.092 130.262C252.266 130.45 252.577 130.61 253.026 130.74C253.301 130.798 253.439 130.928 253.439 131.131C253.439 131.232 253.402 131.319 253.33 131.392C253.258 131.478 253.156 131.522 253.026 131.522C251.737 131.377 250.926 131.305 250.593 131.305C249.985 131.305 249.174 131.377 248.161 131.522C247.886 131.522 247.748 131.392 247.748 131.131C247.748 130.928 247.886 130.798 248.161 130.74C248.624 130.653 248.921 130.523 249.051 130.349C249.181 130.175 249.247 129.878 249.247 129.459V123.16C249.247 122.74 249.181 122.45 249.051 122.291C248.921 122.117 248.624 121.98 248.161 121.878C247.886 121.82 247.748 121.69 247.748 121.487C247.748 121.227 247.886 121.096 248.161 121.096C249.174 121.241 249.985 121.314 250.593 121.314C250.926 121.314 251.737 121.241 253.026 121.096C253.156 121.096 253.258 121.14 253.33 121.227C253.402 121.299 253.439 121.386 253.439 121.487C253.439 121.69 253.301 121.82 253.026 121.878C252.577 122.009 252.266 122.175 252.092 122.378C251.933 122.566 251.853 122.848 251.853 123.225V125.44C251.969 125.44 252.201 125.382 252.548 125.267C252.62 125.252 252.736 125.165 252.896 125.006L253.221 124.68L254.72 123.203C255.096 122.87 255.285 122.588 255.285 122.356C255.285 122.153 255.133 121.994 254.829 121.878C254.554 121.791 254.416 121.661 254.416 121.487C254.416 121.227 254.554 121.096 254.829 121.096C255.755 121.241 256.544 121.314 257.196 121.314ZM269.324 123.442V129.306C269.324 129.625 269.433 129.784 269.65 129.784C269.911 129.784 270.164 129.487 270.41 128.894C270.468 128.749 270.562 128.677 270.692 128.677C270.794 128.677 270.881 128.72 270.953 128.807C271.04 128.879 271.083 128.966 271.083 129.068C270.968 129.792 270.627 130.378 270.063 130.827C269.483 131.29 268.839 131.522 268.13 131.522C267.507 131.522 267.109 131.305 266.935 130.87C266.79 130.494 266.718 130.052 266.718 129.545C266.225 130.139 265.654 130.617 265.002 130.979C264.365 131.341 263.735 131.522 263.112 131.522C262.504 131.522 262.034 131.37 261.701 131.066C261.382 130.747 261.223 130.32 261.223 129.784C261.237 128.669 261.802 127.706 262.917 126.896C264.061 126.085 265.328 125.549 266.718 125.288V123.442C266.718 122.559 266.298 122.117 265.458 122.117C264.951 122.117 264.517 122.32 264.155 122.725C263.793 123.116 263.59 123.587 263.547 124.137C263.547 124.311 263.445 124.412 263.243 124.441L261.853 124.593C261.708 124.593 261.635 124.485 261.635 124.268C261.766 123.384 262.323 122.639 263.308 122.03C264.292 121.408 265.299 121.096 266.327 121.096C267.181 121.096 267.891 121.306 268.455 121.726C269.035 122.146 269.324 122.718 269.324 123.442ZM264.806 129.763C265.473 129.763 266.11 129.306 266.718 128.394V125.983C265.878 126.201 265.19 126.555 264.654 127.048C264.133 127.525 263.873 128.054 263.873 128.633C263.873 128.981 263.952 129.256 264.111 129.459C264.271 129.661 264.502 129.763 264.806 129.763ZM274.736 121.01C274.881 121.01 275.004 121.075 275.105 121.205L278.928 125.853C279.131 126.128 279.145 126.389 278.972 126.635L275.105 131.392C275.004 131.522 274.874 131.587 274.715 131.587C274.468 131.587 274.345 131.471 274.345 131.24C274.345 131.167 274.367 131.095 274.41 131.022L276.843 126.244L274.476 121.683C274.403 121.495 274.367 121.379 274.367 121.335C274.367 121.263 274.403 121.191 274.476 121.118C274.562 121.046 274.649 121.01 274.736 121.01ZM272.282 121.618C272.441 121.618 272.564 121.712 272.651 121.9L275.323 125.853C275.424 126.012 275.475 126.15 275.475 126.266C275.475 126.382 275.431 126.505 275.344 126.635L272.651 130.675C272.564 130.82 272.456 130.892 272.325 130.892C272.094 130.892 271.978 130.783 271.978 130.566C272.079 130.219 272.579 128.792 273.477 126.287L271.978 122.117C271.963 122.103 271.956 122.052 271.956 121.965C271.956 121.734 272.065 121.618 272.282 121.618Z" fill="white"/>
</svg>
