<svg width="150" height="68" viewBox="0 0 150 68" fill="none" xmlns="http://www.w3.org/2000/svg">
<g clip-path="url(#clip0_1487_1448)">
<rect x="22.8931" y="25.5" width="109.33" height="18.2216" fill="white"/>
<path d="M135.853 5.0101C136.709 9.0315 140.093 12.1043 144.204 12.8006L144.106 54.826C139.706 55.7998 136.848 58.5951 135.853 62.8991L14.4962 63C13.3562 58.585 10.5963 55.7998 6 54.826L6 13.3304L6.43333 12.7501C10.6376 12.0993 13.5367 9.05167 14.2435 5L135.858 5.0101H135.853ZM30.3744 33.0287C30.0649 32.1659 29.6471 28.6844 28.8836 28.6642C27.8261 29.411 28.1047 29.6229 28.4039 30.632C28.6102 31.3334 30.2403 36.1772 30.684 35.7181C31.7724 33.4273 30.4725 33.3163 30.3744 33.0287ZM33.7791 36.2176C33.6811 35.1075 33.4335 28.6793 32.4946 28.6642C31.3443 29.5068 32.082 32.1104 32.3192 33.3668C32.4843 34.2548 32.3605 36.6465 33.7791 36.2226V36.2176ZM41.5222 28.6541C38.3136 29.1637 40.9032 34.0378 39.9746 36.2176H41.5222V28.6541ZM50.2919 31.6765C50.7458 30.5916 51.143 28.5179 49.2601 28.6541V31.6815L48.2594 31.1921L46.165 36.2176L47.7177 35.8795L49.0022 32.6856L49.2601 36.2277L50.8077 36.2176L50.5549 32.6856C51.7105 32.4232 52.1541 35.2337 52.3501 35.8795L53.9029 36.2125L51.8291 31.1668L50.2919 31.6714V31.6765ZM62.6725 29.1587V36.2226L65.257 35.9653L64.9939 34.6988L63.7094 35.713C63.3947 32.8471 65.2622 26.7973 60.3202 29.1435L60.6142 32.6856L61.1249 29.1536H62.6725V29.1587ZM71.4473 36.2277C70.9521 34.0429 72.7782 28.9972 69.8997 28.6592C69.6315 28.9165 71.7723 34.9309 69.389 35.7181L67.0625 29.1637C65.2776 30.9953 68.3676 33.8512 67.8569 36.2024L71.4473 36.2277ZM73.5056 28.6541V36.2226H75.0532C73.9699 34.1135 74.8314 31.631 74.5373 29.4009C74.4393 28.6642 74.1401 27.8317 73.5056 28.6541ZM77.1166 28.6541L75.7341 29.3908C76.446 31.5756 76.1004 33.8007 75.5587 35.9653L77.1166 36.2226V28.6541ZM79.1801 28.6541V36.2226H80.7277C79.6444 34.1135 80.5059 31.631 80.2118 29.4009C80.1138 28.6642 79.8146 27.8317 79.1801 28.6541ZM82.7911 28.6541L81.4344 29.4009C81.6304 31.5856 81.7955 33.836 81.2384 35.9653L82.7963 36.2226V28.6541H82.7911ZM36.3636 36.2176C34.5478 33.9268 35.7085 31.6664 35.595 29.1587C33.7533 30.7178 33.4283 35.7534 36.3636 36.2176ZM38.4167 36.2226C39.4227 34.1186 40.5111 29.9963 37.3953 29.1637C38.8346 31.5402 38.5147 33.7906 37.3953 36.2176H38.4167V36.2226ZM54.4187 29.1587V36.2226L55.9766 35.9653C55.3473 33.9823 55.4556 31.2274 55.9663 29.1637H54.4187V29.1587ZM110.132 30.6724C109.064 30.7178 105.922 30.1577 106.067 31.848C107.135 35.1126 110.57 33.8411 110.132 30.6724ZM126.118 32.1861H122.512V37.2267H126.123C126.294 36.2731 125.123 36.9996 124.689 36.6313C124.468 36.4446 124.447 35.1933 124.06 34.714C125.995 34.8199 126.35 33.9571 126.123 32.1861H126.118Z" fill="white"/>
<path d="M149.615 9.7143L149.725 58.5689C144.639 59.8547 141.457 62.2677 140.83 67.9207L9.09291 68C8.69661 63.1004 4.95927 58.8521 0 58.8918L0.0495356 9.99185L0.500878 9.32346C5.91149 9.02892 8.12417 5.24515 9.30757 0.288885L139.515 0C141.27 0.322865 141.138 2.8095 141.881 4.36152C143.648 8.06032 145.998 8.55878 149.615 9.7143ZM148.536 10.2581C145.58 9.96919 142.767 8.21325 141.32 5.50571C140.423 3.83474 140.643 1.47272 138.964 1.13286L10.2213 1.10455C8.97182 5.86823 5.96103 9.69163 1.0458 10.5299L1.15037 57.4304C3.11537 58.8522 5.30053 58.9371 7.13342 60.9026C8.72963 62.6189 9.15345 64.9299 10.2543 66.8728L139.443 66.7709C141.568 62.432 143.511 58.8125 148.629 58.0252L148.541 10.2581H148.536Z" fill="white"/>
<path d="M149.054 10.1918L149.163 58.6192C144.115 59.8937 140.957 62.2856 140.335 67.8892L9.57568 67.9678C9.18232 63.111 5.47273 58.8999 0.550293 58.9392L0.599461 10.467L1.04745 9.80442C6.41788 9.51245 8.61414 5.76178 9.78875 0.848859L139.029 0.5625C140.772 0.882542 140.64 3.34743 141.378 4.88588C143.132 8.55232 145.465 9.04642 149.054 10.1918ZM147.983 10.7308C145.049 10.4445 142.258 8.70391 140.821 6.02005C139.93 4.3637 140.149 2.02234 138.482 1.68545L10.6957 1.65739C9.45549 6.3794 6.46706 10.1694 1.58832 11.0003L1.69212 57.4906C3.64252 58.8999 5.81146 58.9841 7.63074 60.9325C9.2151 62.6337 9.63577 64.9246 10.7284 66.8504L138.958 66.7494C141.067 62.4485 142.995 58.8606 148.076 58.0802L147.989 10.7308H147.983Z" fill="white"/>
<path d="M148.505 10.1109L148.613 58.1313C143.602 59.3952 140.468 61.767 139.85 67.3234L10.0596 67.4013C9.66916 62.5854 5.98705 58.4097 1.10107 58.4487L1.14988 10.3837L1.59455 9.72675C6.9252 9.43724 9.10518 5.71809 10.2711 0.846452L138.554 0.5625C140.284 0.879852 140.154 3.32403 140.886 4.84955C142.626 8.48518 144.942 8.97513 148.505 10.1109ZM147.442 10.6454C144.53 10.3615 141.759 8.6355 140.333 5.97419C139.449 4.33175 139.666 2.01007 138.012 1.67602L11.1713 1.64819C9.9403 6.33052 6.97401 10.0886 2.13141 10.9126L2.23445 57.0122C4.1704 58.4097 6.32327 58.4932 8.12908 60.4252C9.7017 62.1121 10.1193 64.3837 11.2038 66.2934L138.483 66.1932C140.577 61.9284 142.491 58.3707 147.534 57.5968L147.447 10.6454H147.442Z" fill="white"/>
</g>
<defs>
<clipPath id="clip0_1487_1448">
<rect width="150" height="68" fill="white"/>
</clipPath>
</defs>
</svg>
